<svg version="1.1" xmlns="http://www.w3.org/2000/svg" xmlns:xlink="http://www.w3.org/1999/xlink" width="157.22112" height="157.22112" viewBox="0,0,157.22112,157.22112"><g transform="translate(-161.38944,-101.38944)"><g data-paper-data="{&quot;isPaintingLayer&quot;:true}" fill-rule="nonzero" stroke-linecap="butt" stroke-linejoin="miter" stroke-miterlimit="10" stroke-dasharray="" stroke-dashoffset="0" style="mix-blend-mode: normal"><g><path d="M172.70454,179.69823c0,-37.16626 30.12921,-67.29546 67.29546,-67.29546c37.16626,0 67.29546,30.12921 67.29546,67.29547c0,37.16626 -30.12921,67.29547 -67.29546,67.29547c-37.16626,0 -67.29546,-30.12921 -67.29546,-67.29547z" fill="#c10030" stroke="none" stroke-width="0"/><path d="M184.17192,188.75143c0,-30.83299 24.99508,-55.82808 55.82808,-55.82808c30.83299,0 55.82808,24.99508 55.82808,55.82808c0,30.83299 -24.99508,55.82808 -55.82808,55.82808c-30.83299,0 -55.82808,-24.99508 -55.82808,-55.82808z" fill="#ff0040" stroke="none" stroke-width="0"/><path d="M197.44996,205.04719c0,-23.49974 19.05031,-42.55005 42.55004,-42.55005c23.49974,0 42.55005,19.05031 42.55005,42.55005c0,23.49974 -19.05031,42.55004 -42.55005,42.55004c-23.49974,0 -42.55004,-19.05031 -42.55004,-42.55004z" fill="#ff6972" stroke="none" stroke-width="0"/><path d="M174.2134,179.69823c0,-36.33293 29.45367,-65.7866 65.7866,-65.7866c36.33293,0 65.7866,29.45367 65.7866,65.7866c0,36.33293 -29.45367,65.7866 -65.7866,65.7866c-36.33293,0 -65.7866,-29.45367 -65.7866,-65.7866z" fill="none" stroke="#9f0028" stroke-width="5"/></g><path d="M167.13944,180c0,-40.23977 32.62078,-72.86056 72.86056,-72.86056c40.23977,0 72.86056,32.62078 72.86056,72.86056c0,40.23977 -32.62078,72.86056 -72.86056,72.86056c-40.23977,0 -72.86056,-32.62078 -72.86056,-72.86056z" fill="none" stroke="#ff0040" stroke-width="11.5"/></g></g></svg>