<svg version="1.1" xmlns="http://www.w3.org/2000/svg" xmlns:xlink="http://www.w3.org/1999/xlink" width="127.81975" height="127.81975" viewBox="0,0,127.81975,127.81975"><g transform="translate(-176.1067,-115.93852)"><g data-paper-data="{&quot;isPaintingLayer&quot;:true}" fill="#ffffff" fill-rule="nonzero" stroke="none" stroke-width="0" stroke-linecap="butt" stroke-linejoin="miter" stroke-miterlimit="10" stroke-dasharray="" stroke-dashoffset="0" style="mix-blend-mode: normal"><path d="M231.77557,144.19341v-28.25489h16.48202v28.25489z"/><path d="M231.77557,243.75827v-28.25489h16.48202v28.25489z"/><path d="M259.40119,148.80924l19.97922,-19.97922l11.65455,11.65455l-19.97922,19.97922z"/><path d="M188.9982,219.21223l19.97922,-19.97922l11.65455,11.65455l-19.97922,19.97922z"/><path d="M275.67156,171.60739l28.25489,0v16.48202l-28.25489,0z"/><path d="M176.1067,171.60739l28.25489,0l0,16.48202h-28.25489z"/><path d="M271.05573,199.23301l19.97922,19.97922l-11.65455,11.65455l-19.97922,-19.97922z"/><path d="M200.65274,128.83002l19.97922,19.97922l-11.65455,11.65455l-19.97922,-19.97922z"/></g></g></svg>