<svg version="1.1" xmlns="http://www.w3.org/2000/svg" xmlns:xlink="http://www.w3.org/1999/xlink" width="73.8889" height="4.33333" viewBox="0,0,73.8889,4.33333"><defs><linearGradient x1="199.11111" y1="180.00004" x2="266.33333" y2="180.00004" gradientUnits="userSpaceOnUse" id="color-1"><stop offset="0" stop-color="#0c557d"/><stop offset="1" stop-color="#3abf84"/></linearGradient><linearGradient x1="213.66667" y1="180.00004" x2="266.33333" y2="180.00004" gradientUnits="userSpaceOnUse" id="color-2"><stop offset="0" stop-color="#2bb87d"/><stop offset="1" stop-color="#bfffbf"/></linearGradient><linearGradient x1="229.22222" y1="180.00004" x2="266.33333" y2="180.00004" gradientUnits="userSpaceOnUse" id="color-3"><stop offset="0" stop-color="#bfffbf"/><stop offset="1" stop-color="#e3ffdd"/></linearGradient></defs><g transform="translate(-192.44443,-177.83337)"><g data-paper-data="{&quot;isPaintingLayer&quot;:true}" fill-rule="nonzero" stroke="none" stroke-width="0" stroke-linecap="round" stroke-linejoin="miter" stroke-miterlimit="10" stroke-dasharray="" stroke-dashoffset="0" style="mix-blend-mode: normal"><path d="M266.33333,180.0556l-19.15448,2.11111l-51.28997,-2.11111v-0.11111l51.28997,-2.11111l19.15448,2.11111z" data-paper-data="{&quot;index&quot;:null}" fill="url(#color-1)"/><path d="M206.25636,179.50921l-2.5471,0.36572l-6.82038,-0.36572v-0.01925l6.82038,-0.36572l2.5471,0.36572z" data-paper-data="{&quot;index&quot;:null}" fill="#0c557d"/><path d="M200.81191,180.67789l-2.27519,0.32668l-6.09229,-0.32668v-0.01719l6.09229,-0.32668l2.27519,0.32668z" data-paper-data="{&quot;index&quot;:null}" fill="#0c557d"/><path d="M266.33333,180.0556l-17.44444,2.11111l-35.22223,-2.11111v-0.11111l35.22223,-2.11111l17.44444,2.11111z" data-paper-data="{&quot;index&quot;:null}" fill="url(#color-2)"/><path d="M266.33333,180.02711l-12.29208,1.02849l-24.81903,-1.02849v-0.05413l24.81903,-1.02849l12.29208,1.02849z" data-paper-data="{&quot;index&quot;:null}" fill="url(#color-3)"/></g></g></svg>