<svg version="1.1" xmlns="http://www.w3.org/2000/svg" xmlns:xlink="http://www.w3.org/1999/xlink" width="67.5" height="67.5" viewBox="0,0,67.5,67.5"><g transform="translate(-205.10718,-145.70143)"><g data-paper-data="{&quot;isPaintingLayer&quot;:true}" fill-rule="nonzero" stroke-linecap="butt" stroke-linejoin="miter" stroke-miterlimit="10" stroke-dasharray="" stroke-dashoffset="0" style="mix-blend-mode: normal"><path d="M206.85719,179.45143c0,-17.6731 14.3269,-32 32,-32c17.6731,0 32,14.3269 32,32c0,17.6731 -14.3269,32 -32,32c-17.6731,0 -32,-14.3269 -32,-32z" data-paper-data="{&quot;origPos&quot;:null}" fill="#1d3944" stroke="#b4beb8" stroke-width="3.5"/><path d="M213.63515,176.58191c0,-12.68801 10.28566,-22.97367 22.97367,-22.97367c12.68801,0 22.97367,10.28566 22.97367,22.97367c0,12.68801 -10.28566,22.97367 -22.97367,22.97367c-12.68801,0 -22.97367,-10.28566 -22.97367,-22.97367z" fill="#336376" stroke="#000000" stroke-width="0"/><path d="M214.39085,181.62605c0,-14.00285 11.35155,-25.3544 25.3544,-25.3544c14.00285,0 25.3544,11.35155 25.3544,25.3544c0,14.00285 -11.35155,25.3544 -25.3544,25.3544c-14.00285,0 -25.3544,-11.35155 -25.3544,-25.3544z" fill="#1d3944" stroke="none" stroke-width="0"/></g></g></svg>