<svg version="1.1" xmlns="http://www.w3.org/2000/svg" xmlns:xlink="http://www.w3.org/1999/xlink" width="77.77779" height="4.33333" viewBox="0,0,77.77779,4.33333"><defs><linearGradient x1="199.11111" y1="180.00005" x2="266.33333" y2="180.00005" gradientUnits="userSpaceOnUse" id="color-1"><stop offset="0" stop-color="#0c557d"/><stop offset="1" stop-color="#3abf84"/></linearGradient><linearGradient x1="213.66667" y1="180.00005" x2="266.33333" y2="180.00005" gradientUnits="userSpaceOnUse" id="color-2"><stop offset="0" stop-color="#2bb87d"/><stop offset="1" stop-color="#bfffbf"/></linearGradient><linearGradient x1="225" y1="180.00005" x2="266.33333" y2="180.00005" gradientUnits="userSpaceOnUse" id="color-3"><stop offset="0" stop-color="#bfffbf"/><stop offset="1" stop-color="#e3ffdd"/></linearGradient></defs><g transform="translate(-188.55554,-177.83339)"><g data-paper-data="{&quot;isPaintingLayer&quot;:true}" fill-rule="nonzero" stroke="none" stroke-width="0" stroke-linecap="round" stroke-linejoin="miter" stroke-miterlimit="10" stroke-dasharray="" stroke-dashoffset="0" style="mix-blend-mode: normal"><path d="M214.36748,180.54038l-2.69816,0.38741l-7.22487,-0.38741v-0.02039l7.22487,-0.38741l2.69816,0.38741z" data-paper-data="{&quot;index&quot;:null}" fill="#0c557d"/><path d="M266.33333,180.05561l-19.15448,2.11111l-48.06775,-2.11111v-0.11111l48.06775,-2.11111l19.15448,2.11111z" data-paper-data="{&quot;index&quot;:null}" fill="url(#color-1)"/><path d="M266.33333,180.05561l-17.44444,2.11111l-35.22223,-2.11111v-0.11111l35.22223,-2.11111l17.44444,2.11111z" data-paper-data="{&quot;index&quot;:null}" fill="url(#color-2)"/><path d="M266.33333,180.02712l-13.69058,1.02849l-27.64275,-1.02849v-0.05413l27.64275,-1.02849l13.69058,1.02849z" data-paper-data="{&quot;index&quot;:null}" fill="url(#color-3)"/><path d="M198.92303,179.42844l-1.97307,0.28329l-5.2833,-0.28329v-0.01491l5.2833,-0.28329l1.97307,0.28329z" data-paper-data="{&quot;index&quot;:null}" fill="#0c557d"/><path d="M194.126,180.81999l-1.51466,0.21748l-4.0558,-0.21748v-0.01145l4.0558,-0.21748l1.51466,0.21748z" data-paper-data="{&quot;index&quot;:null}" fill="#0c557d"/></g></g></svg>