<svg version="1.1" xmlns="http://www.w3.org/2000/svg" xmlns:xlink="http://www.w3.org/1999/xlink" width="69" height="69" viewBox="0,0,69,69"><g transform="translate(-204.35716,-144.95143)"><g data-paper-data="{&quot;isPaintingLayer&quot;:true}" fill-rule="nonzero" stroke-linecap="butt" stroke-linejoin="miter" stroke-miterlimit="10" stroke-dasharray="" stroke-dashoffset="0" style="mix-blend-mode: normal"><path d="M206.85718,179.45143c0,-17.6731 14.3269,-32 32,-32c17.6731,0 32,14.3269 32,32c0,17.6731 -14.3269,32 -32,32c-17.6731,0 -32,-14.3269 -32,-32z" data-paper-data="{&quot;origPos&quot;:null}" fill="#c10030" stroke="#9f0028" stroke-width="0"/><path d="M223.8857,187.86577c0,-12.56833 10.18864,-22.75697 22.75697,-22.75697c12.56833,0 22.75697,10.18864 22.75697,22.75697c0,12.56833 -10.18864,22.75697 -22.75697,22.75697c-12.56833,0 -22.75697,-10.18864 -22.75697,-22.75697z" fill="#ff0040" stroke="#000000" stroke-width="0"/><path d="M214.32395,171.41956c0,-9.61107 7.79132,-17.40239 17.40239,-17.40239c9.61107,0 17.40239,7.79132 17.40239,17.40239c0,9.61107 -7.79132,17.40239 -17.40239,17.40239c-9.61107,0 -17.40239,-7.79132 -17.40239,-17.40239z" fill="#ff6972" stroke="none" stroke-width="0"/><path d="M206.85717,179.45143c0,-17.6731 14.3269,-32 32,-32c17.6731,0 32,14.3269 32,32c0,17.6731 -14.3269,32 -32,32c-17.6731,0 -32,-14.3269 -32,-32z" data-paper-data="{&quot;origPos&quot;:null}" fill="none" stroke="#9f0028" stroke-width="5"/><path d="M242.24426,163.00521c0,-3.9078 3.1679,-7.0757 7.0757,-7.0757c3.9078,0 7.0757,3.1679 7.0757,7.0757c0,3.9078 -3.1679,7.0757 -7.0757,7.0757c-3.9078,0 -7.0757,-3.1679 -7.0757,-7.0757z" fill="#ffffff" stroke="#ffffff" stroke-width="0"/></g></g></svg>