<svg version="1.1" xmlns="http://www.w3.org/2000/svg" xmlns:xlink="http://www.w3.org/1999/xlink" width="149.69226" height="149.69226" viewBox="0,0,149.69226,149.69226"><defs><radialGradient cx="319.53766" cy="180.43306" r="63.24806" gradientUnits="userSpaceOnUse" id="color-1"><stop offset="0" stop-color="#1d3944"/><stop offset="1" stop-color="#1d3944" stop-opacity="0"/></radialGradient></defs><g transform="translate(-245.17045,-105.17045)"><g stroke="none" stroke-miterlimit="10"><path d="M245.17045,180.01658c0,-41.33638 33.50975,-74.84613 74.84613,-74.84613c41.33638,0 74.84613,33.50975 74.84613,74.84613c0,41.33638 -33.50975,74.84613 -74.84613,74.84613c-41.33638,0 -74.84613,-33.50975 -74.84613,-74.84613z" fill="#4f5268" stroke-width="0"/><path d="M252.1182,180.64806c0,-37.49924 30.39913,-67.89838 67.89838,-67.89838c37.49924,0 67.89841,30.39913 67.89841,67.89838c0,37.49924 -30.39916,67.89841 -67.89838,67.89841c-37.49924,0 -67.89838,-30.39913 -67.89838,-67.89838z" fill="#00050a" stroke-width="0"/><path d="M256.2896,180.43306c0,-34.93094 28.31712,-63.24806 63.24806,-63.24806c34.93094,0 63.24806,28.31712 63.24806,63.24806c0,34.93094 -28.31712,63.24806 -63.24806,63.24806c-34.93094,0 -63.24806,-28.31712 -63.24806,-63.24806z" fill="url(#color-1)" stroke-width="0"/><path d="M301.45171,204.01444c-0.59696,0 -1.19391,-0.17909 -1.79087,-0.53726c-0.35818,-0.47756 -0.59696,-1.01482 -0.71635,-1.61178c0,-0.71635 0.29847,-1.49239 0.89544,-2.32813l17.9087,-22.56496v3.40265l-16.65509,-20.95317c-0.71635,-0.83573 -1.07452,-1.55209 -1.07452,-2.14905c0.11939,-0.71635 0.41788,-1.25361 0.89544,-1.61178c0.47756,-0.47756 1.01482,-0.71635 1.61178,-0.71635c0.83573,0 1.4924,0.17908 1.96996,0.53726c0.59696,0.23879 1.07452,0.65665 1.43269,1.25361l15.2224,19.16231h-2.14905l15.0433,-19.16231c0.47756,-0.59696 0.95514,-1.01483 1.4327,-1.25361c0.59696,-0.35817 1.25361,-0.53726 1.96996,-0.53726c0.71635,0 1.31331,0.23879 1.79087,0.71635c0.47756,0.35817 0.71634,0.89543 0.71634,1.61178c0,0.59696 -0.29847,1.31331 -0.89543,2.14905l-16.65509,20.595v-2.68631l17.72961,22.20679c0.71635,0.83573 1.01482,1.61178 0.89543,2.32813c0,0.59696 -0.23879,1.13422 -0.71635,1.61178c-0.47756,0.35817 -1.01482,0.53726 -1.61178,0.53726c-0.83573,0 -1.55208,-0.11938 -2.14905,-0.35817c-0.47756,-0.35817 -0.95513,-0.83574 -1.43269,-1.4327l-16.11783,-20.41591h2.14905l-16.29692,20.41591c-0.35818,0.47756 -0.83573,0.89544 -1.43269,1.25361c-0.59696,0.35817 -1.25361,0.53726 -1.96996,0.53726z" fill="#ffffff" stroke-width="1"/></g></g></svg>