<svg version="1.1" xmlns="http://www.w3.org/2000/svg" xmlns:xlink="http://www.w3.org/1999/xlink" width="79.66669" height="4.33333" viewBox="0,0,79.66669,4.33333"><defs><linearGradient x1="199.11112" y1="180.00005" x2="266.33333" y2="180.00005" gradientUnits="userSpaceOnUse" id="color-1"><stop offset="0" stop-color="#0c557d"/><stop offset="1" stop-color="#3abf84"/></linearGradient><linearGradient x1="213.66668" y1="180.00005" x2="266.33333" y2="180.00005" gradientUnits="userSpaceOnUse" id="color-2"><stop offset="0" stop-color="#2bb87d"/><stop offset="1" stop-color="#bfffbf"/></linearGradient><linearGradient x1="229.22223" y1="180.00005" x2="266.33333" y2="180.00005" gradientUnits="userSpaceOnUse" id="color-3"><stop offset="0" stop-color="#bfffbf"/><stop offset="1" stop-color="#e3ffdd"/></linearGradient></defs><g transform="translate(-186.66665,-177.83338)"><g data-paper-data="{&quot;isPaintingLayer&quot;:true}" fill-rule="nonzero" stroke="none" stroke-width="0" stroke-linecap="round" stroke-linejoin="miter" stroke-miterlimit="10" stroke-dasharray="" stroke-dashoffset="0" style="mix-blend-mode: normal"><path d="M215.5897,179.65574l-2.93986,0.42211l-7.87206,-0.42211v-0.02222l7.87206,-0.42211l2.93986,0.42211z" data-paper-data="{&quot;index&quot;:null}" fill="#0c557d"/><path d="M212.25637,180.67954l-3.39304,0.48718l-9.08555,-0.48718v-0.02564l9.08555,-0.48718l3.39304,0.48718z" data-paper-data="{&quot;index&quot;:null}" fill="#0c557d"/><path d="M192.23711,179.37554l-1.51466,0.21748l-4.0558,-0.21748v-0.01145l4.0558,-0.21748l1.51466,0.21748z" data-paper-data="{&quot;index&quot;:null}" fill="#0c557d"/><path d="M266.33333,180.05561l-19.15448,2.11111l-51.28997,-2.11111v-0.11111l51.28997,-2.11111l19.15448,2.11111z" data-paper-data="{&quot;index&quot;:null}" fill="url(#color-1)"/><path d="M266.33333,180.05561l-17.44444,2.11111l-35.22223,-2.11111v-0.11111l35.22223,-2.11111l17.44444,2.11111z" data-paper-data="{&quot;index&quot;:null}" fill="url(#color-2)"/><path d="M266.33333,180.02712l-12.29208,1.02849l-24.81903,-1.02849v-0.05413l24.81903,-1.02849l12.29208,1.02849z" data-paper-data="{&quot;index&quot;:null}" fill="url(#color-3)"/></g></g></svg>