<svg version="1.1" xmlns="http://www.w3.org/2000/svg" xmlns:xlink="http://www.w3.org/1999/xlink" width="115.53944" height="248.34657" viewBox="0,0,115.53944,248.34657"><g transform="translate(-182.10168,5.75583)"><g data-paper-data="{&quot;isPaintingLayer&quot;:true}" fill-rule="nonzero" stroke-linejoin="miter" stroke-miterlimit="10" stroke-dasharray="" stroke-dashoffset="0" style="mix-blend-mode: normal"><path d="M234.65866,89.3308c0,0 2.00252,-1.66842 3.43368,-1.42773c1.43117,0.24069 1.63846,3.36734 3.12837,2.35176c1.17216,-0.79899 -0.78384,-2.37751 -0.78384,-2.37751c0,0 3.29089,-0.28681 1.90419,2.26576c-0.52451,0.9655 -3.98239,4.67251 -3.98239,4.67251c0,0 0.44569,-2.9849 -0.52744,-4.42743c-0.97313,-1.44253 -3.17258,-1.05735 -3.17258,-1.05735z" fill="#beffce" stroke="#009386" stroke-width="0.2" stroke-linecap="butt"/><path d="M240.48217,78.08317c0.8458,-1.3371 -0.69549,-5.78196 -0.69549,-5.78196c0,0 4.34231,3.86933 5.19925,8.98497" fill="#beffce" stroke="#009386" stroke-width="0.2" stroke-linecap="round"/><path d="M235.27133,82.05693c0,-2.69239 2.18261,-4.875 4.875,-4.875c2.69239,0 4.875,2.18261 4.875,4.875c0,2.69239 -0.68261,4.875 -4.875,4.875c-2.69239,0 -4.875,-2.18261 -4.875,-4.875z" fill="#beffce" stroke="#009386" stroke-width="0.2" stroke-linecap="butt"/><path d="M239.31922,86.89178c-5.87898,-1.37566 -9.09269,-8.36828 -9.09269,-8.36828c0,0 4.43516,1.8629 4.85788,0.01477c0.42272,-1.84813 -2.51141,-10.27345 -2.51141,-10.27345c0,0 6.99838,6.60519 10.60842,9.9766" fill="#beffce" stroke="#009386" stroke-width="0.2" stroke-linecap="round"/><path d="M236.05465,79.7425c0.5099,-1.75225 -1.97421,-9.40222 -1.97421,-9.40222c0,0 5.95467,7.02619 6.12434,7.04945c2.60543,0.35714 4.54383,2.36697 4.54383,4.75811c0,2.39114 -0.71113,4.32954 -4.32954,4.32954c-2.39114,0 -8.64123,-4.36048 -8.64123,-6.75162c0,0 3.76691,1.769 4.27682,0.01675z" fill="#eaffe8" stroke="none" stroke-width="0" stroke-linecap="butt"/><path d="M240.84058,82.02054c0,0.98749 0.11514,1.78806 -0.3537,1.78806c-0.46881,0 -0.3537,-0.80053 -0.3537,-1.78806c0,-0.98749 -0.11514,-1.78805 0.3537,-1.78805c0.46881,0 0.3537,0.80053 0.3537,1.78805z" fill="#009386" stroke="none" stroke-width="0" stroke-linecap="butt"/><path d="M243.11331,82.02054c0,0.98749 0.11514,1.78806 -0.3537,1.78806c-0.46881,0 -0.3537,-0.80053 -0.3537,-1.78806c0,-0.98749 -0.11514,-1.78805 0.3537,-1.78805c0.46881,0 0.3537,0.80053 0.3537,1.78805z" fill="#009386" stroke="none" stroke-width="0" stroke-linecap="butt"/><path d="M252.66835,119.34075c-0.05975,0 -0.11055,-0.01943 -0.15238,-0.05827c-0.03885,-0.03884 -0.05827,-0.08963 -0.05827,-0.15238v-3.7602c0,-0.05975 0.01943,-0.10905 0.05827,-0.1479c0.04183,-0.04183 0.09262,-0.06275 0.15238,-0.06275h2.50978c0.05677,0 0.10607,0.01942 0.1479,0.05826c0.04183,0.03885 0.06275,0.08814 0.06275,0.1479c0,0.05378 -0.02092,0.10009 -0.06275,0.13894c-0.04183,0.03885 -0.09113,0.05826 -0.1479,0.05826h-2.29914v1.47898h1.67169c0.06275,0 0.11354,0.01942 0.15238,0.05826c0.03885,0.03884 0.05826,0.08665 0.05826,0.14342c0,0.05676 -0.01942,0.10458 -0.05826,0.14342c-0.03885,0.03884 -0.08964,0.05826 -0.15238,0.05826h-1.67169v1.49243h2.29914c0.05677,0 0.10607,0.02092 0.1479,0.06275c0.04183,0.03884 0.06275,0.08515 0.06275,0.13894c0,0.05975 -0.02092,0.10905 -0.06275,0.14789c-0.04183,0.03586 -0.09113,0.05379 -0.1479,0.05379zM256.37139,119.34075c-0.05975,0 -0.11055,-0.01943 -0.15238,-0.05827c-0.03885,-0.03884 -0.05826,-0.08963 -0.05826,-0.15238v-3.7602c0,-0.05975 0.01942,-0.10905 0.05826,-0.1479c0.04183,-0.04183 0.09262,-0.06275 0.15238,-0.06275h0.99943c0.25994,0 0.4915,0.05528 0.69467,0.16583c0.20616,0.10756 0.36601,0.25845 0.47955,0.45266c0.11653,0.19421 0.17479,0.4183 0.17479,0.67226c0,0.24201 -0.05826,0.45864 -0.17479,0.64986c-0.11354,0.18824 -0.27339,0.33613 -0.47955,0.44369c-0.20317,0.10757 -0.43473,0.16134 -0.69467,0.16134h-0.78879v1.4252c0,0.06275 -0.02092,0.11354 -0.06275,0.15238c-0.03885,0.03884 -0.08814,0.05827 -0.1479,0.05827zM258.60779,119.34075c-0.04482,0 -0.08067,-0.00897 -0.10756,-0.02689c-0.02689,-0.01792 -0.05229,-0.04482 -0.07619,-0.08067l-1.02632,-1.63584l0.4168,-0.10757l0.95909,1.52828c0.05378,0.08664 0.06275,0.16284 0.02689,0.22857c-0.03286,0.06275 -0.09711,0.09411 -0.19272,0.09411zM256.58203,117.30155h0.78878c0.18226,0 0.3436,-0.03586 0.48403,-0.10757c0.14043,-0.0747 0.25098,-0.17629 0.33165,-0.30476c0.08366,-0.12847 0.12548,-0.27488 0.12548,-0.43921c0,-0.17329 -0.04182,-0.32717 -0.12548,-0.46162c-0.08068,-0.13445 -0.19122,-0.23902 -0.33165,-0.31373c-0.14043,-0.07469 -0.30177,-0.11204 -0.48403,-0.11204h-0.78878zM260.66891,119.34075c-0.05677,0 -0.10607,-0.01943 -0.1479,-0.05827c-0.04183,-0.04183 -0.06274,-0.09262 -0.06274,-0.15238v-1.33557l-1.45209,-2.3081c-0.03585,-0.05378 -0.0493,-0.10457 -0.04034,-0.15238c0.00896,-0.05079 0.02988,-0.09262 0.06275,-0.12549c0.03585,-0.03286 0.08067,-0.0493 0.13445,-0.0493c0.04482,0 0.08067,0.00897 0.10756,0.0269c0.02689,0.01792 0.05079,0.04332 0.07171,0.07618l1.44313,2.33052h-0.22409l1.43865,-2.31707c0.02689,-0.04183 0.05528,-0.07171 0.08516,-0.08963c0.02988,-0.01792 0.06573,-0.0269 0.10756,-0.0269c0.05079,0 0.09262,0.01793 0.12548,0.05379c0.03585,0.03286 0.05527,0.07469 0.05826,0.12548c0.00598,0.05079 -0.00746,0.10009 -0.04033,0.1479l-1.46106,2.30811v1.33556c0,0.05975 -0.02092,0.11055 -0.06275,0.15238c-0.03885,0.03884 -0.08665,0.05827 -0.14341,0.05827zM263.14604,119.34075c-0.05975,0 -0.11055,-0.01943 -0.15238,-0.05827c-0.03885,-0.03884 -0.05826,-0.08963 -0.05826,-0.15238v-3.7602c0,-0.05975 0.01942,-0.10905 0.05826,-0.1479c0.04183,-0.04183 0.09262,-0.06275 0.15238,-0.06275c0.06275,0 0.11653,0.02539 0.16135,0.07619l2.55908,3.36131v-3.22686c0,-0.05975 0.01942,-0.10905 0.05826,-0.1479c0.03885,-0.04183 0.08815,-0.06275 0.1479,-0.06275c0.05677,0 0.10607,0.02092 0.1479,0.06275c0.04183,0.03885 0.06275,0.08814 0.06275,0.1479v3.76019c0,0.06275 -0.02092,0.11354 -0.06275,0.15238c-0.04183,0.03884 -0.09113,0.05826 -0.1479,0.05826c-0.02689,0 -0.05528,-0.00448 -0.08516,-0.01344c-0.02988,-0.01196 -0.05379,-0.03137 -0.07171,-0.05826l-2.55908,-3.35684v3.2179c0,0.06275 -0.02092,0.11354 -0.06275,0.15238c-0.04183,0.03884 -0.09113,0.05826 -0.1479,0.05826z" fill="#ffffff" stroke="none" stroke-width="1" stroke-linecap="square"/><path d="M205.34592,65.40699c-0.05975,0 -0.11055,-0.01942 -0.15238,-0.05826c-0.03885,-0.03884 -0.05826,-0.08964 -0.05826,-0.15238v-3.76019c0,-0.05975 0.01942,-0.10906 0.05826,-0.1479c0.04183,-0.04183 0.09262,-0.06275 0.15238,-0.06275c0.05975,0 0.10905,0.02092 0.1479,0.06275c0.04183,0.03884 0.06275,0.08814 0.06275,0.1479v3.76019c0,0.06275 -0.02092,0.11354 -0.06275,0.15238c-0.03885,0.03884 -0.08814,0.05826 -0.1479,0.05826zM208.50076,65.46077c-0.28683,0 -0.55723,-0.05527 -0.8112,-0.16582c-0.25098,-0.11055 -0.47208,-0.26442 -0.6633,-0.46162c-0.18823,-0.20018 -0.33613,-0.42876 -0.4437,-0.68571c-0.10756,-0.25994 -0.16134,-0.53781 -0.16134,-0.8336c0,-0.2928 0.05229,-0.56769 0.15686,-0.82465c0.10458,-0.25994 0.25248,-0.48702 0.4437,-0.68122c0.19122,-0.1972 0.41232,-0.35107 0.6633,-0.46163c0.25397,-0.11354 0.52586,-0.1703 0.81568,-0.1703c0.25696,0 0.49,0.03735 0.69915,0.11205c0.21213,0.0747 0.41681,0.19421 0.614,0.35854c0.03286,0.0239 0.05079,0.05378 0.05379,0.08963c0.00598,0.03287 0.0015,0.06424 -0.01344,0.09412c-0.01196,0.02988 -0.03287,0.05228 -0.06275,0.06723c-0.00598,0.02689 -0.02391,0.0478 -0.05379,0.06275c-0.02689,0.01494 -0.05975,0.02092 -0.0986,0.01792c-0.03585,-0.00597 -0.0717,-0.0224 -0.10756,-0.04929c-0.14043,-0.1225 -0.29281,-0.21214 -0.45714,-0.26891c-0.16433,-0.05975 -0.35555,-0.08964 -0.57367,-0.08964c-0.23006,0 -0.44668,0.04631 -0.64986,0.13894c-0.20019,0.09262 -0.37797,0.21961 -0.53333,0.38095c-0.15238,0.15835 -0.27189,0.3436 -0.35854,0.55574c-0.08665,0.20915 -0.12998,0.43174 -0.12998,0.66778c0,0.24201 0.04333,0.46909 0.12998,0.68123c0.08665,0.20915 0.20616,0.39439 0.35854,0.55574c0.15536,0.16134 0.33315,0.28833 0.53333,0.38095c0.20317,0.08963 0.41979,0.13445 0.64986,0.13445c0.19719,0 0.38244,-0.03137 0.55573,-0.09411c0.17629,-0.06573 0.3436,-0.15985 0.50196,-0.28235c0.04183,-0.03586 0.08665,-0.0493 0.13445,-0.04034c0.04781,0.00597 0.08963,0.02689 0.12548,0.06275c0.03585,0.03586 0.05379,0.08217 0.05379,0.13894c0,0.02689 -0.00448,0.05229 -0.01345,0.07619c-0.00598,0.0239 -0.02092,0.0478 -0.04482,0.07171c-0.18226,0.16732 -0.38543,0.28683 -0.60952,0.35854c-0.22409,0.06872 -0.45863,0.10308 -0.70363,0.10308zM209.87217,64.85125l-0.40784,-0.08515v-1.07563h-0.8336c-0.05975,0 -0.10906,-0.01792 -0.1479,-0.05378c-0.03885,-0.03586 -0.05826,-0.08067 -0.05826,-0.13445c0,-0.05378 0.01942,-0.0971 0.05826,-0.12997c0.03885,-0.03586 0.08815,-0.05379 0.1479,-0.05379h1.03528c0.05975,0 0.10905,0.01942 0.1479,0.05826c0.03885,0.03586 0.05827,0.08515 0.05827,0.1479zM210.94328,65.40699c-0.05975,0 -0.11055,-0.01942 -0.15238,-0.05826c-0.03885,-0.03884 -0.05826,-0.08964 -0.05826,-0.15238v-3.76019c0,-0.05975 0.01942,-0.10906 0.05826,-0.1479c0.04183,-0.04183 0.09262,-0.06275 0.15238,-0.06275c0.06275,0 0.11652,0.0254 0.16134,0.07619l2.55909,3.36131v-3.22686c0,-0.05975 0.01942,-0.10905 0.05826,-0.1479c0.03885,-0.04183 0.08814,-0.06275 0.1479,-0.06275c0.05677,0 0.10607,0.02092 0.1479,0.06275c0.04183,0.03884 0.06275,0.08814 0.06275,0.1479v3.76019c0,0.06275 -0.02092,0.11354 -0.06275,0.15238c-0.04183,0.03884 -0.09113,0.05826 -0.1479,0.05826c-0.02689,0 -0.05528,-0.00448 -0.08515,-0.01344c-0.02988,-0.01196 -0.05379,-0.03138 -0.07171,-0.05827l-2.55908,-3.35683v3.2179c0,0.06275 -0.02092,0.11354 -0.06275,0.15238c-0.04183,0.03884 -0.09113,0.05826 -0.1479,0.05826zM215.35804,65.40699c-0.05975,0 -0.11055,-0.01942 -0.15238,-0.05826c-0.03885,-0.03884 -0.05826,-0.08964 -0.05826,-0.15238v-3.76019c0,-0.05975 0.01942,-0.10906 0.05826,-0.1479c0.04183,-0.04183 0.09262,-0.06275 0.15238,-0.06275c0.05975,0 0.10905,0.02092 0.1479,0.06275c0.04183,0.03884 0.06275,0.08814 0.06275,0.1479v3.76019c0,0.06275 -0.02092,0.11354 -0.06275,0.15238c-0.03885,0.03884 -0.08814,0.05826 -0.1479,0.05826zM217.92128,65.46077c-0.22708,0 -0.43921,-0.03286 -0.6364,-0.0986c-0.19421,-0.06573 -0.36302,-0.15836 -0.50644,-0.27787c-0.14043,-0.1225 -0.24798,-0.26443 -0.32269,-0.42577c-0.02988,-0.05676 -0.03137,-0.10905 -0.00448,-0.15686c0.02689,-0.05079 0.07321,-0.08366 0.13894,-0.0986c0.04781,-0.01494 0.09561,-0.01046 0.14342,0.01344c0.05079,0.0239 0.08814,0.06125 0.11204,0.11204c0.05378,0.10458 0.13147,0.19869 0.23305,0.28235c0.10458,0.08067 0.22857,0.14342 0.37199,0.18824c0.14342,0.04482 0.30027,0.06723 0.47058,0.06723c0.18823,0 0.35555,-0.03138 0.50195,-0.09412c0.1464,-0.06275 0.26144,-0.15387 0.3451,-0.27339c0.08366,-0.11951 0.12549,-0.26591 0.12549,-0.43921c0,-0.21513 -0.08067,-0.40037 -0.24201,-0.55574c-0.15836,-0.15835 -0.40933,-0.25994 -0.75294,-0.30476c-0.4183,-0.0478 -0.74547,-0.17629 -0.98151,-0.38543c-0.23305,-0.20915 -0.34957,-0.4661 -0.34957,-0.77086c0,-0.21513 0.05676,-0.40336 0.1703,-0.5647c0.11653,-0.16134 0.27638,-0.28535 0.47955,-0.37199c0.20616,-0.08664 0.4407,-0.12997 0.70363,-0.12997c0.19719,0 0.37498,0.03137 0.53333,0.09411c0.16134,0.05975 0.30176,0.14043 0.42128,0.24202c0.11952,0.10159 0.21662,0.21363 0.29131,0.33613c0.03585,0.05676 0.04781,0.11205 0.03585,0.16583c-0.01196,0.05378 -0.04332,0.09411 -0.09411,0.121c-0.05378,0.02689 -0.10906,0.03137 -0.16583,0.01344c-0.05378,-0.01792 -0.09411,-0.05228 -0.121,-0.10308c-0.05378,-0.08067 -0.121,-0.15686 -0.20168,-0.22857c-0.08068,-0.0747 -0.17926,-0.13296 -0.29579,-0.17479c-0.11354,-0.04482 -0.24949,-0.06872 -0.40785,-0.07171c-0.28385,0 -0.51092,0.05976 -0.68122,0.17927c-0.17031,0.11951 -0.25546,0.29281 -0.25546,0.51988c0,0.1225 0.03137,0.23454 0.09412,0.33613c0.06573,0.10159 0.1718,0.18973 0.3182,0.26442c0.14939,0.07171 0.34808,0.12548 0.59607,0.16134c0.44817,0.06275 0.77983,0.19869 0.99495,0.40785c0.21513,0.20915 0.32269,0.48104 0.32269,0.81568c0,0.19421 -0.03436,0.36601 -0.10308,0.5154c-0.06872,0.1494 -0.16732,0.27488 -0.2958,0.37646c-0.12548,0.10159 -0.27339,0.17927 -0.4437,0.23305c-0.17031,0.05378 -0.35107,0.08068 -0.54229,0.08068zM220.05652,65.82379c-0.07469,0 -0.13296,-0.02988 -0.17479,-0.08963c-0.04183,-0.05676 -0.04631,-0.12549 -0.01344,-0.20616l1.68066,-4.18596c0.01494,-0.04183 0.04033,-0.0732 0.07619,-0.09411c0.03585,-0.02092 0.07469,-0.03138 0.11653,-0.03138c0.07769,0 0.13445,0.03137 0.1703,0.09412c0.03585,0.06275 0.04183,0.12997 0.01793,0.20168l-1.68066,4.19492c-0.01792,0.04183 -0.04482,0.07171 -0.08067,0.08964c-0.03585,0.01792 -0.07321,0.02689 -0.11204,0.02689zM222.56624,65.40699c-0.05677,0 -0.10607,-0.01942 -0.1479,-0.05826c-0.04183,-0.04183 -0.06275,-0.09262 -0.06275,-0.15238v-3.76019c0,-0.05975 0.01943,-0.10906 0.05827,-0.1479c0.04183,-0.04183 0.09262,-0.06275 0.15237,-0.06275h2.50979c0.05975,0 0.10905,0.01943 0.1479,0.05827c0.03885,0.03884 0.05826,0.08814 0.05826,0.1479c0,0.05378 -0.01942,0.10009 -0.05826,0.13894c-0.03885,0.03884 -0.08814,0.05827 -0.1479,0.05827h-2.29914v1.47897h1.67169c0.06275,0 0.11354,0.01943 0.15238,0.05827c0.03885,0.03884 0.05826,0.08665 0.05826,0.14342c0,0.05676 -0.01942,0.10457 -0.05826,0.14341c-0.03885,0.03884 -0.08964,0.05827 -0.15238,0.05827h-1.67169v1.68514c0,0.05975 -0.02091,0.11054 -0.06274,0.15237c-0.03885,0.03884 -0.08815,0.05827 -0.1479,0.05827zM226.2424,65.40699c-0.05677,0 -0.10607,-0.01942 -0.1479,-0.05826c-0.04183,-0.03884 -0.06275,-0.08964 -0.06275,-0.15238v-3.76019c0,-0.05676 0.02092,-0.10607 0.06275,-0.1479c0.04183,-0.04183 0.09113,-0.06275 0.1479,-0.06275c0.05677,0 0.10607,0.02092 0.1479,0.06275c0.04183,0.04183 0.06275,0.09113 0.06275,0.1479v3.57645h2.0885c0.05677,0 0.10607,0.01942 0.1479,0.05826c0.04183,0.03586 0.06275,0.08217 0.06275,0.13894c0,0.05676 -0.02092,0.10458 -0.06275,0.14342c-0.04183,0.03586 -0.09113,0.05378 -0.1479,0.05378zM229.19052,65.40699c-0.08068,0 -0.13894,-0.03287 -0.17479,-0.0986c-0.03585,-0.06872 -0.04033,-0.13594 -0.01344,-0.20168l1.57309,-3.7333c0.03885,-0.0986 0.10756,-0.1479 0.20616,-0.1479c0.09262,0 0.15836,0.0493 0.1972,0.1479l1.57758,3.73779c0.03286,0.06872 0.02838,0.13594 -0.01345,0.20168c-0.04183,0.06275 -0.10009,0.09412 -0.17479,0.09412c-0.04183,0 -0.08067,-0.01046 -0.11653,-0.03137c-0.03286,-0.02092 -0.05975,-0.05378 -0.08067,-0.0986l-1.47002,-3.56748h0.16583l-1.48346,3.56748c-0.01792,0.04482 -0.04481,0.07768 -0.08067,0.0986c-0.03286,0.02092 -0.07022,0.03137 -0.11205,0.03137zM229.54458,64.41204l0.16134,-0.35854h2.16917l0.16134,0.35854zM233.649,65.40699c-0.05079,0 -0.09561,-0.01494 -0.13445,-0.04482c-0.03585,-0.03287 -0.06125,-0.0747 -0.07619,-0.12549l-1.09803,-3.71089c-0.0239,-0.08366 -0.01942,-0.15388 0.01345,-0.21064c0.03585,-0.05975 0.09112,-0.08964 0.16582,-0.08964c0.04183,0 0.08068,0.01195 0.11653,0.03585c0.03885,0.0239 0.06723,0.06574 0.08515,0.12549l0.99047,3.44647h-0.121l0.93668,-3.35235c0.00896,-0.04183 0.03137,-0.0747 0.06723,-0.0986c0.03885,-0.0239 0.08217,-0.03585 0.12997,-0.03585c0.04183,0 0.08217,0.01195 0.121,0.03585c0.03885,0.02092 0.06424,0.05528 0.07619,0.10308l0.94117,3.34787h-0.12101l0.99495,-3.4644c0.0239,-0.09561 0.09113,-0.14342 0.20168,-0.14342c0.07469,0 0.12549,0.02988 0.15238,0.08964c0.02988,0.05975 0.03436,0.12997 0.01344,0.21064l-1.08907,3.70641c-0.01792,0.05676 -0.04631,0.10009 -0.08515,0.12997c-0.03585,0.02988 -0.07918,0.04482 -0.12998,0.04482c-0.05079,0 -0.09561,-0.01494 -0.13445,-0.04482c-0.03585,-0.03287 -0.06125,-0.07469 -0.07619,-0.12548l-0.9322,-3.39717h0.12997l-0.92324,3.39269c-0.01792,0.05378 -0.04631,0.0971 -0.08515,0.12997c-0.03585,0.02988 -0.07918,0.04482 -0.12997,0.04482zM237.98274,65.40699c-0.05677,0 -0.10606,-0.01942 -0.14789,-0.05826c-0.04183,-0.03884 -0.06275,-0.08964 -0.06275,-0.15238v-3.76019c0,-0.05676 0.02092,-0.10607 0.06275,-0.1479c0.04183,-0.04183 0.09112,-0.06275 0.14789,-0.06275c0.05677,0 0.10607,0.02092 0.1479,0.06275c0.04183,0.04183 0.06274,0.09113 0.06274,0.1479v3.57645h2.0885c0.05677,0 0.10607,0.01942 0.1479,0.05826c0.04183,0.03586 0.06275,0.08217 0.06275,0.13894c0,0.05676 -0.02092,0.10458 -0.06275,0.14342c-0.04183,0.03586 -0.09113,0.05378 -0.1479,0.05378zM241.37005,65.40699c-0.05975,0 -0.11054,-0.01942 -0.15237,-0.05826c-0.03885,-0.03884 -0.05827,-0.08964 -0.05827,-0.15238v-3.76019c0,-0.05975 0.01943,-0.10906 0.05827,-0.1479c0.04183,-0.04183 0.09262,-0.06275 0.15237,-0.06275h2.50979c0.05677,0 0.10607,0.01943 0.1479,0.05827c0.04183,0.03884 0.06275,0.08814 0.06275,0.1479c0,0.05378 -0.02092,0.10009 -0.06275,0.13894c-0.04183,0.03884 -0.09113,0.05827 -0.1479,0.05827h-2.29914v1.47897h1.67169c0.06275,0 0.11354,0.01943 0.15238,0.05827c0.03885,0.03884 0.05826,0.08665 0.05826,0.14342c0,0.05676 -0.01942,0.10457 -0.05826,0.14341c-0.03885,0.03884 -0.08964,0.05827 -0.15238,0.05827h-1.67169v1.49242h2.29914c0.05677,0 0.10607,0.02092 0.1479,0.06275c0.04183,0.03884 0.06275,0.08515 0.06275,0.13894c0,0.05975 -0.02092,0.10906 -0.06275,0.1479c-0.04183,0.03586 -0.09113,0.05378 -0.1479,0.05378zM246.14872,65.46077c-0.22708,0 -0.43921,-0.03286 -0.6364,-0.0986c-0.19421,-0.06573 -0.36302,-0.15836 -0.50644,-0.27787c-0.14043,-0.1225 -0.24799,-0.26443 -0.32269,-0.42577c-0.02988,-0.05676 -0.03137,-0.10905 -0.00448,-0.15686c0.02689,-0.05079 0.07321,-0.08366 0.13894,-0.0986c0.04781,-0.01494 0.09561,-0.01046 0.14342,0.01344c0.05079,0.0239 0.08814,0.06125 0.11204,0.11204c0.05378,0.10458 0.13146,0.19869 0.23305,0.28235c0.10458,0.08067 0.22857,0.14342 0.37199,0.18824c0.14342,0.04482 0.30027,0.06723 0.47058,0.06723c0.18823,0 0.35556,-0.03138 0.50196,-0.09412c0.1464,-0.06275 0.26143,-0.15387 0.34509,-0.27339c0.08366,-0.11951 0.12548,-0.26591 0.12548,-0.43921c0,-0.21513 -0.08067,-0.40037 -0.24201,-0.55574c-0.15836,-0.15835 -0.40933,-0.25994 -0.75294,-0.30476c-0.4183,-0.0478 -0.74546,-0.17629 -0.9815,-0.38543c-0.23305,-0.20915 -0.34958,-0.4661 -0.34958,-0.77086c0,-0.21513 0.05676,-0.40336 0.1703,-0.5647c0.11653,-0.16134 0.27638,-0.28535 0.47955,-0.37199c0.20616,-0.08664 0.4407,-0.12997 0.70363,-0.12997c0.19719,0 0.37498,0.03137 0.53333,0.09411c0.16134,0.05975 0.30177,0.14043 0.42128,0.24202c0.11952,0.10159 0.21662,0.21363 0.29131,0.33613c0.03585,0.05676 0.04781,0.11205 0.03585,0.16583c-0.01196,0.05378 -0.04332,0.09411 -0.09411,0.121c-0.05378,0.02689 -0.10906,0.03137 -0.16583,0.01344c-0.05378,-0.01792 -0.09412,-0.05228 -0.12101,-0.10308c-0.05378,-0.08067 -0.121,-0.15686 -0.20168,-0.22857c-0.08068,-0.0747 -0.17926,-0.13296 -0.29579,-0.17479c-0.11354,-0.04482 -0.24948,-0.06872 -0.40784,-0.07171c-0.28385,0 -0.51092,0.05976 -0.68123,0.17927c-0.17031,0.11951 -0.25546,0.29281 -0.25546,0.51988c0,0.1225 0.03137,0.23454 0.09412,0.33613c0.06573,0.10159 0.1718,0.18973 0.3182,0.26442c0.14939,0.07171 0.34809,0.12548 0.59608,0.16134c0.44817,0.06275 0.77982,0.19869 0.99495,0.40785c0.21513,0.20915 0.32269,0.48104 0.32269,0.81568c0,0.19421 -0.03436,0.36601 -0.10308,0.5154c-0.06872,0.1494 -0.16732,0.27488 -0.29579,0.37646c-0.12548,0.10159 -0.27338,0.17927 -0.44369,0.23305c-0.17031,0.05378 -0.35107,0.08068 -0.54229,0.08068zM249.69122,65.46077c-0.22708,0 -0.43921,-0.03286 -0.6364,-0.0986c-0.19421,-0.06573 -0.36302,-0.15836 -0.50644,-0.27787c-0.14043,-0.1225 -0.24799,-0.26443 -0.32269,-0.42577c-0.02988,-0.05676 -0.03137,-0.10905 -0.00448,-0.15686c0.02689,-0.05079 0.07321,-0.08366 0.13894,-0.0986c0.04781,-0.01494 0.09561,-0.01046 0.14342,0.01344c0.05079,0.0239 0.08814,0.06125 0.11204,0.11204c0.05378,0.10458 0.13146,0.19869 0.23305,0.28235c0.10458,0.08067 0.22857,0.14342 0.37198,0.18824c0.14342,0.04482 0.30027,0.06723 0.47058,0.06723c0.18823,0 0.35556,-0.03138 0.50196,-0.09412c0.1464,-0.06275 0.26143,-0.15387 0.34509,-0.27339c0.08366,-0.11951 0.12548,-0.26591 0.12548,-0.43921c0,-0.21513 -0.08068,-0.40037 -0.24202,-0.55574c-0.15836,-0.15835 -0.40933,-0.25994 -0.75293,-0.30476c-0.4183,-0.0478 -0.74546,-0.17629 -0.9815,-0.38543c-0.23305,-0.20915 -0.34958,-0.4661 -0.34958,-0.77086c0,-0.21513 0.05676,-0.40336 0.1703,-0.5647c0.11653,-0.16134 0.27638,-0.28535 0.47955,-0.37199c0.20616,-0.08664 0.4407,-0.12997 0.70363,-0.12997c0.19719,0 0.37498,0.03137 0.53333,0.09411c0.16134,0.05975 0.30177,0.14043 0.42128,0.24202c0.11952,0.10159 0.21662,0.21363 0.29131,0.33613c0.03585,0.05676 0.04781,0.11205 0.03585,0.16583c-0.01196,0.05378 -0.04332,0.09411 -0.09411,0.121c-0.05378,0.02689 -0.10906,0.03137 -0.16583,0.01344c-0.05378,-0.01792 -0.09412,-0.05228 -0.12101,-0.10308c-0.05378,-0.08067 -0.121,-0.15686 -0.20168,-0.22857c-0.08068,-0.0747 -0.17926,-0.13296 -0.29579,-0.17479c-0.11354,-0.04482 -0.24948,-0.06872 -0.40784,-0.07171c-0.28385,0 -0.51092,0.05976 -0.68123,0.17927c-0.17031,0.11951 -0.25546,0.29281 -0.25546,0.51988c0,0.1225 0.03137,0.23454 0.09411,0.33613c0.06573,0.10159 0.1718,0.18973 0.31821,0.26442c0.14939,0.07171 0.34809,0.12548 0.59608,0.16134c0.44817,0.06275 0.77982,0.19869 0.99495,0.40785c0.21513,0.20915 0.32269,0.48104 0.32269,0.81568c0,0.19421 -0.03436,0.36601 -0.10308,0.5154c-0.06872,0.1494 -0.16732,0.27488 -0.29579,0.37646c-0.12548,0.10159 -0.27338,0.17927 -0.44369,0.23305c-0.17031,0.05378 -0.35107,0.08068 -0.54229,0.08068zM253.72601,65.40699c-0.05975,0 -0.11054,-0.01942 -0.15237,-0.05826c-0.03885,-0.03884 -0.05827,-0.08964 -0.05827,-0.15238v-3.76019c0,-0.05975 0.01943,-0.10906 0.05827,-0.1479c0.04183,-0.04183 0.09262,-0.06275 0.15237,-0.06275h0.96358c0.30775,0 0.58861,0.05229 0.84258,0.15686c0.25397,0.10159 0.47356,0.24649 0.65881,0.43473c0.18525,0.18525 0.32867,0.40485 0.43025,0.65882c0.10458,0.25098 0.15686,0.53034 0.15686,0.83808c0,0.30775 -0.05228,0.5901 -0.15686,0.84705c-0.10159,0.25397 -0.245,0.47506 -0.43025,0.6633c-0.18525,0.18525 -0.40484,0.32867 -0.65881,0.43025c-0.25397,0.10159 -0.53483,0.15238 -0.84258,0.15238zM253.93665,65.03052h0.75294c0.32866,0 0.61848,-0.0732 0.86946,-0.2196c0.25098,-0.1494 0.44818,-0.35257 0.5916,-0.60952c0.14342,-0.25994 0.21513,-0.55575 0.21513,-0.88739c0,-0.33165 -0.07171,-0.62595 -0.21513,-0.8829c-0.14342,-0.25994 -0.34062,-0.46311 -0.5916,-0.60952c-0.25098,-0.14641 -0.5408,-0.21961 -0.86946,-0.21961h-0.75294zM257.84644,65.40699c-0.05975,0 -0.11055,-0.01942 -0.15238,-0.05826c-0.03884,-0.03884 -0.05826,-0.08964 -0.05826,-0.15238v-3.76019c0,-0.05975 0.01942,-0.10906 0.05826,-0.1479c0.04183,-0.04183 0.09262,-0.06275 0.15238,-0.06275h2.50979c0.05676,0 0.10607,0.01943 0.1479,0.05827c0.04183,0.03884 0.06275,0.08814 0.06275,0.1479c0,0.05378 -0.02092,0.10009 -0.06275,0.13894c-0.04183,0.03884 -0.09113,0.05827 -0.1479,0.05827h-2.29914v1.47897h1.67169c0.06275,0 0.11354,0.01943 0.15238,0.05827c0.03884,0.03884 0.05826,0.08665 0.05826,0.14342c0,0.05676 -0.01942,0.10457 -0.05826,0.14341c-0.03884,0.03884 -0.08964,0.05827 -0.15238,0.05827h-1.67169v1.49242h2.29914c0.05676,0 0.10607,0.02092 0.1479,0.06275c0.04183,0.03884 0.06275,0.08515 0.06275,0.13894c0,0.05975 -0.02092,0.10906 -0.06275,0.1479c-0.04183,0.03586 -0.09113,0.05378 -0.1479,0.05378zM261.54949,65.40699c-0.05676,0 -0.10607,-0.01942 -0.1479,-0.05826c-0.04183,-0.04183 -0.06275,-0.09262 -0.06275,-0.15238v-3.76019c0,-0.05975 0.02092,-0.10906 0.06275,-0.1479c0.04183,-0.04183 0.09113,-0.06275 0.1479,-0.06275c0.08664,0 0.14939,0.03586 0.18823,0.10757l1.80167,3.5854h-0.17927l1.77029,-3.5854c0.04183,-0.07171 0.10458,-0.10757 0.18824,-0.10757c0.05676,0 0.10458,0.02092 0.14342,0.06275c0.03884,0.03884 0.05826,0.08814 0.05826,0.1479v3.76019c0,0.05975 -0.01942,0.11055 -0.05826,0.15238c-0.03884,0.03884 -0.08665,0.05826 -0.14342,0.05826c-0.06275,0 -0.11503,-0.01942 -0.15686,-0.05826c-0.03884,-0.04183 -0.05826,-0.09262 -0.05826,-0.15238v-3.2179l0.08963,0.00448l-1.57758,3.22687c-0.03884,0.06872 -0.10009,0.10308 -0.18375,0.10308c-0.08963,0 -0.15388,-0.04332 -0.19272,-0.12997l-1.58654,-3.17757l0.10757,-0.0269v3.2179c0,0.05975 -0.02092,0.11055 -0.06275,0.15238c-0.04183,0.03884 -0.09113,0.05826 -0.1479,0.05826zM268.52002,65.46077c-0.30775,0 -0.59309,-0.05379 -0.85602,-0.16134c-0.25994,-0.10757 -0.48552,-0.25696 -0.67674,-0.44817c-0.19122,-0.19421 -0.33912,-0.42129 -0.44369,-0.68122c-0.10458,-0.25994 -0.15686,-0.54528 -0.15686,-0.85602c0,-0.30775 0.05228,-0.5916 0.15686,-0.85154c0.10458,-0.25994 0.25248,-0.48552 0.44369,-0.67674c0.19122,-0.19421 0.41681,-0.3436 0.67674,-0.44817c0.26293,-0.10757 0.54827,-0.16134 0.85602,-0.16134c0.30775,0 0.5916,0.05378 0.85154,0.16134c0.25994,0.10458 0.48553,0.25397 0.67675,0.44817c0.19421,0.19122 0.3436,0.41681 0.44817,0.67674c0.10757,0.25994 0.16134,0.54379 0.16134,0.85154c0,0.31074 -0.05378,0.59608 -0.16134,0.85602c-0.10458,0.25994 -0.25397,0.48702 -0.44817,0.68122c-0.19122,0.19122 -0.41681,0.34062 -0.67675,0.44817c-0.25994,0.10757 -0.54379,0.16134 -0.85154,0.16134zM268.52002,65.06638c0.24799,0 0.47656,-0.04333 0.68571,-0.12997c0.21213,-0.08963 0.39589,-0.21363 0.55126,-0.37198c0.15537,-0.15835 0.27488,-0.3436 0.35854,-0.55574c0.08664,-0.21213 0.12997,-0.44369 0.12997,-0.69467c0,-0.245 -0.04333,-0.47357 -0.12997,-0.68571c-0.08366,-0.21213 -0.20318,-0.39738 -0.35854,-0.55573c-0.15537,-0.16134 -0.33912,-0.28534 -0.55126,-0.37198c-0.20915,-0.08664 -0.43771,-0.12998 -0.68571,-0.12998c-0.24799,0 -0.47805,0.04333 -0.69019,0.12998c-0.20915,0.08664 -0.39141,0.21064 -0.54678,0.37198c-0.15537,0.15835 -0.27638,0.34359 -0.36302,0.55573c-0.08366,0.21213 -0.12548,0.44071 -0.12548,0.68571c0,0.25098 0.04182,0.48253 0.12548,0.69467c0.08664,0.21213 0.20765,0.39739 0.36302,0.55574c0.15537,0.15835 0.33763,0.28235 0.54678,0.37198c0.21213,0.08664 0.4422,0.12997 0.69019,0.12997zM271.72749,65.40699c-0.05975,0 -0.11055,-0.01942 -0.15238,-0.05826c-0.03884,-0.03884 -0.05826,-0.08964 -0.05826,-0.15238v-3.76019c0,-0.05975 0.01942,-0.10906 0.05826,-0.1479c0.04183,-0.04183 0.09262,-0.06275 0.15238,-0.06275c0.06275,0 0.11652,0.0254 0.16134,0.07619l2.55908,3.36131v-3.22686c0,-0.05975 0.01942,-0.10905 0.05826,-0.1479c0.03884,-0.04183 0.08814,-0.06275 0.1479,-0.06275c0.05676,0 0.10607,0.02092 0.1479,0.06275c0.04183,0.03884 0.06275,0.08814 0.06275,0.1479v3.76019c0,0.06275 -0.02092,0.11354 -0.06275,0.15238c-0.04183,0.03884 -0.09113,0.05826 -0.1479,0.05826c-0.02689,0 -0.05528,-0.00448 -0.08515,-0.01344c-0.02988,-0.01196 -0.05379,-0.03138 -0.07171,-0.05827l-2.55908,-3.35683v3.2179c0,0.06275 -0.02091,0.11354 -0.06274,0.15238c-0.04183,0.03884 -0.09113,0.05826 -0.1479,0.05826z" fill="#ffffff" stroke="none" stroke-width="1" stroke-linecap="square"/><path d="M215.79625,119.39226c-0.28683,0 -0.55723,-0.05527 -0.81119,-0.16582c-0.25098,-0.11055 -0.47208,-0.26442 -0.6633,-0.46162c-0.18823,-0.20018 -0.33613,-0.42875 -0.4437,-0.68571c-0.10756,-0.25994 -0.16134,-0.53782 -0.16134,-0.83361c0,-0.2928 0.05229,-0.56769 0.15686,-0.82464c0.10458,-0.25994 0.25248,-0.48702 0.44369,-0.68122c0.19122,-0.1972 0.41232,-0.35107 0.6633,-0.46162c0.25397,-0.11354 0.52586,-0.1703 0.81568,-0.1703c0.25696,0 0.49,0.03735 0.69915,0.11205c0.21213,0.0747 0.41681,0.19421 0.614,0.35854c0.03286,0.0239 0.05079,0.05378 0.05378,0.08963c0.00598,0.03287 0.0015,0.06424 -0.01344,0.09412c-0.01196,0.02988 -0.03287,0.05228 -0.06275,0.06723c-0.00598,0.02689 -0.0239,0.0478 -0.05378,0.06275c-0.02689,0.01494 -0.05975,0.02092 -0.0986,0.01792c-0.03585,-0.00597 -0.07171,-0.0224 -0.10756,-0.04929c-0.14043,-0.1225 -0.29281,-0.21214 -0.45714,-0.26891c-0.16433,-0.05975 -0.35555,-0.08964 -0.57367,-0.08964c-0.23006,0 -0.44668,0.04631 -0.64986,0.13894c-0.20019,0.09262 -0.37796,0.21961 -0.53332,0.38095c-0.15238,0.15835 -0.2719,0.3436 -0.35854,0.55574c-0.08665,0.20915 -0.12997,0.43174 -0.12997,0.66778c0,0.24201 0.04333,0.46909 0.12997,0.68122c0.08665,0.20915 0.20616,0.3944 0.35854,0.55574c0.15536,0.16134 0.33314,0.28833 0.53332,0.38095c0.20317,0.08963 0.41979,0.13445 0.64986,0.13445c0.19719,0 0.38245,-0.03137 0.55574,-0.09412c0.17629,-0.06573 0.3436,-0.15985 0.50195,-0.28235c0.04183,-0.03586 0.08665,-0.0493 0.13445,-0.04034c0.04781,0.00597 0.08964,0.02689 0.12549,0.06275c0.03585,0.03586 0.05378,0.08217 0.05378,0.13894c0,0.02689 -0.00448,0.05229 -0.01344,0.07619c-0.00896,0.0239 -0.02391,0.0478 -0.04482,0.07171c-0.18226,0.16732 -0.38543,0.28683 -0.60952,0.35854c-0.22409,0.06872 -0.45863,0.10308 -0.70364,0.10308zM218.23878,119.33849c-0.05975,0 -0.11055,-0.01942 -0.15238,-0.05826c-0.03885,-0.03884 -0.05826,-0.08964 -0.05826,-0.15238v-3.76019c0,-0.05975 0.01942,-0.10906 0.05826,-0.1479c0.04183,-0.04183 0.09263,-0.06275 0.15238,-0.06275c0.05975,0 0.10905,0.02092 0.14789,0.06275c0.04183,0.03884 0.06275,0.08814 0.06275,0.1479v1.67169h2.60838v-1.67169c0,-0.05975 0.01943,-0.10906 0.05827,-0.1479c0.03885,-0.04183 0.08963,-0.06275 0.15237,-0.06275c0.05975,0 0.10906,0.02092 0.1479,0.06275c0.03885,0.03884 0.05826,0.08814 0.05826,0.1479v3.76019c0,0.06275 -0.01942,0.11354 -0.05826,0.15238c-0.03885,0.03884 -0.08815,0.05826 -0.1479,0.05826c-0.06275,0 -0.11353,-0.01942 -0.15237,-0.05826c-0.03885,-0.03884 -0.05827,-0.08964 -0.05827,-0.15238v-1.71652h-2.60838v1.71652c0,0.06275 -0.02092,0.11354 -0.06275,0.15238c-0.03885,0.03884 -0.08814,0.05826 -0.14789,0.05826zM222.75521,119.33849c-0.05975,0 -0.11055,-0.01942 -0.15238,-0.05826c-0.03885,-0.03884 -0.05827,-0.08964 -0.05827,-0.15238v-3.76019c0,-0.05975 0.01943,-0.10906 0.05827,-0.1479c0.04183,-0.04183 0.09262,-0.06275 0.15238,-0.06275c0.05975,0 0.10905,0.02092 0.1479,0.06275c0.04183,0.03884 0.06275,0.08814 0.06275,0.1479v3.76019c0,0.06275 -0.02092,0.11354 -0.06275,0.15238c-0.03885,0.03884 -0.08814,0.05826 -0.1479,0.05826zM224.24284,119.33849c-0.05975,0 -0.11055,-0.01942 -0.15238,-0.05826c-0.03885,-0.03884 -0.05826,-0.08964 -0.05826,-0.15238v-3.76019c0,-0.05975 0.01942,-0.10906 0.05826,-0.1479c0.04183,-0.04183 0.09262,-0.06275 0.15238,-0.06275h0.99943c0.25994,0 0.4915,0.05527 0.69467,0.16582c0.20616,0.10757 0.36601,0.25845 0.47955,0.45266c0.11653,0.19421 0.17479,0.4183 0.17479,0.67226c0,0.24201 -0.05826,0.45864 -0.17479,0.64986c-0.11354,0.18824 -0.27338,0.33613 -0.47955,0.44369c-0.20317,0.10757 -0.43473,0.16134 -0.69467,0.16134h-0.78879v1.4252c0,0.06275 -0.02092,0.11354 -0.06275,0.15238c-0.03885,0.03884 -0.08814,0.05826 -0.1479,0.05826zM226.47924,119.33849c-0.04482,0 -0.08067,-0.00896 -0.10756,-0.02689c-0.02689,-0.01792 -0.05229,-0.04482 -0.07619,-0.08067l-1.02632,-1.63584l0.4168,-0.10756l0.9591,1.52828c0.05378,0.08664 0.06274,0.16283 0.02689,0.22857c-0.03286,0.06275 -0.0971,0.09411 -0.19271,0.09411zM224.45348,117.29929h0.78879c0.18226,0 0.3436,-0.03585 0.48403,-0.10756c0.14043,-0.0747 0.25097,-0.17629 0.33165,-0.30476c0.08366,-0.12847 0.12549,-0.27488 0.12549,-0.43921c0,-0.17329 -0.04183,-0.32717 -0.12549,-0.46163c-0.08068,-0.13445 -0.19122,-0.23902 -0.33165,-0.31372c-0.14043,-0.0747 -0.30177,-0.11204 -0.48403,-0.11204h-0.78879zM227.5499,119.33849c-0.05975,0 -0.11055,-0.01942 -0.15238,-0.05826c-0.03885,-0.03884 -0.05826,-0.08964 -0.05826,-0.15238v-3.76019c0,-0.05975 0.01942,-0.10906 0.05826,-0.1479c0.04183,-0.04183 0.09262,-0.06275 0.15238,-0.06275h1.07113c0.26293,0 0.49599,0.05826 0.69916,0.17479c0.20317,0.11653 0.36153,0.27638 0.47507,0.47955c0.11653,0.20317 0.17479,0.43921 0.17479,0.70812c0,0.25994 -0.05826,0.4915 -0.17479,0.69467c-0.11354,0.20018 -0.2719,0.35854 -0.47507,0.47507c-0.20317,0.11354 -0.43623,0.1703 -0.69916,0.1703h-0.86049v1.26834c0,0.06275 -0.02092,0.11354 -0.06275,0.15238c-0.03885,0.03884 -0.08814,0.05826 -0.1479,0.05826zM227.76054,117.46064h0.8605c0.18226,0 0.3436,-0.04034 0.48403,-0.12101c0.14342,-0.08067 0.25545,-0.19122 0.33613,-0.33165c0.08068,-0.14342 0.12101,-0.30625 0.12101,-0.48851c0,-0.19122 -0.04033,-0.35705 -0.12101,-0.49748c-0.08068,-0.14342 -0.19271,-0.25546 -0.33613,-0.33613c-0.14043,-0.08366 -0.30177,-0.12549 -0.48403,-0.12549h-0.8605zM231.81531,119.33849c-0.05677,0 -0.10607,-0.01942 -0.1479,-0.05826c-0.04183,-0.04183 -0.06275,-0.09262 -0.06275,-0.15238v-1.33557l-1.45209,-2.3081c-0.03585,-0.05378 -0.0493,-0.10458 -0.04033,-0.15238c0.00896,-0.05079 0.02988,-0.09262 0.06275,-0.12549c0.03585,-0.03287 0.08067,-0.0493 0.13445,-0.0493c0.04482,0 0.08068,0.00897 0.10757,0.02689c0.02689,0.01792 0.05079,0.04332 0.07171,0.07619l1.44312,2.33051h-0.22409l1.43865,-2.31707c0.02689,-0.04183 0.05528,-0.07171 0.08515,-0.08963c0.02988,-0.01792 0.06573,-0.02689 0.10756,-0.02689c0.05079,0 0.09263,0.01792 0.12549,0.05378c0.03585,0.03287 0.05527,0.0747 0.05826,0.12549c0.00598,0.05079 -0.00747,0.10008 -0.04033,0.1479l-1.46105,2.3081v1.33557c0,0.05975 -0.02092,0.11055 -0.06275,0.15238c-0.03885,0.03884 -0.08665,0.05826 -0.14342,0.05826z" fill="#ffffff" stroke="none" stroke-width="1" stroke-linecap="square"/><path d="M210.86482,242.59072c-0.15181,0 -0.28364,-0.05193 -0.39549,-0.15579c-0.10389,-0.11186 -0.15579,-0.24767 -0.15579,-0.40747v-10.61819h1.11454v10.61819c0,0.15977 -0.05193,0.29562 -0.15579,0.40747c-0.10389,0.10386 -0.23967,0.15579 -0.40744,0.15579zM206.92195,232.42798c-0.15181,0 -0.27564,-0.04795 -0.37153,-0.14381c-0.09586,-0.09589 -0.14384,-0.21571 -0.14384,-0.35952c0,-0.15178 0.04795,-0.27564 0.14384,-0.37153c0.09586,-0.09589 0.21973,-0.14381 0.37153,-0.14381h7.90968c0.15181,0 0.27564,0.04792 0.37153,0.14381c0.09586,0.09589 0.14384,0.21973 0.14384,0.37153c0,0.14381 -0.04795,0.26366 -0.14384,0.35952c-0.09586,0.09589 -0.21973,0.14381 -0.37153,0.14381zM217.55294,242.59072c-0.15977,0 -0.29562,-0.05193 -0.40747,-0.15579c-0.10389,-0.10386 -0.15579,-0.2397 -0.15579,-0.40747v-10.0549c0,-0.15977 0.05193,-0.29163 0.15579,-0.39549c0.11186,-0.11186 0.24767,-0.1678 0.40747,-0.1678c0.15977,0 0.2916,0.05594 0.39549,0.1678c0.11186,0.10386 0.16777,0.23569 0.16777,0.39549v4.47017h6.97491v-4.47017c0,-0.15977 0.05196,-0.29163 0.15582,-0.39549c0.10389,-0.11186 0.2397,-0.1678 0.40747,-0.1678c0.15977,0 0.2916,0.05594 0.39549,0.1678c0.10389,0.10386 0.15579,0.23569 0.15579,0.39549v10.0549c0,0.1678 -0.05193,0.30361 -0.15579,0.40747c-0.10389,0.10386 -0.23569,0.15579 -0.39549,0.15579c-0.1678,0 -0.30361,-0.05193 -0.40747,-0.15579c-0.10389,-0.10386 -0.15582,-0.2397 -0.15582,-0.40747v-4.59004h-6.97491v4.59004c0,0.1678 -0.05591,0.30361 -0.16777,0.40747c-0.10389,0.10386 -0.23569,0.15579 -0.39549,0.15579zM229.63003,242.59072c-0.15977,0 -0.29562,-0.05193 -0.40747,-0.15579c-0.10389,-0.10386 -0.15579,-0.2397 -0.15579,-0.40747v-10.0549c0,-0.15977 0.05193,-0.29163 0.15579,-0.39549c0.11186,-0.11186 0.2477,-0.1678 0.40747,-0.1678h6.71125c0.15181,0 0.28364,0.05193 0.39549,0.15579c0.11186,0.10386 0.16777,0.23569 0.16777,0.39549c0,0.14381 -0.05591,0.26764 -0.16777,0.37153c-0.11186,0.10386 -0.24369,0.15579 -0.39549,0.15579h-6.14799v3.95485h4.47017c0.1678,0 0.30358,0.05193 0.40744,0.15579c0.10389,0.10386 0.15582,0.23171 0.15582,0.38351c0,0.15178 -0.05196,0.27965 -0.15582,0.38351c-0.10389,0.10386 -0.23967,0.15579 -0.40744,0.15579h-4.47017v3.99079h6.14799c0.15181,0 0.28364,0.05594 0.39549,0.1678c0.11186,0.10386 0.16777,0.22769 0.16777,0.37153c0,0.15977 -0.05591,0.29163 -0.16777,0.39549c-0.11186,0.09589 -0.24369,0.14381 -0.39549,0.14381zM243.72476,242.59072c-0.15977,0 -0.29562,-0.05193 -0.40747,-0.15579c-0.10389,-0.10386 -0.15579,-0.2397 -0.15579,-0.40747v-10.0549c0,-0.15977 0.05193,-0.29163 0.15579,-0.39549c0.11186,-0.11186 0.24767,-0.1678 0.40747,-0.1678h6.71125c0.15181,0 0.28364,0.05193 0.39549,0.15579c0.11186,0.10386 0.1678,0.23569 0.1678,0.39549c0,0.14381 -0.05594,0.26764 -0.1678,0.37153c-0.11186,0.10386 -0.24369,0.15579 -0.39549,0.15579h-6.14799v3.95485h4.47017c0.1678,0 0.30361,0.05193 0.40747,0.15579c0.10389,0.10386 0.15579,0.23171 0.15579,0.38351c0,0.15178 -0.05193,0.27965 -0.15579,0.38351c-0.10389,0.10386 -0.2397,0.15579 -0.40747,0.15579h-4.47017v3.99079h6.14799c0.15181,0 0.28364,0.05594 0.39549,0.1678c0.11186,0.10386 0.1678,0.22769 0.1678,0.37153c0,0.15977 -0.05594,0.29163 -0.1678,0.39549c-0.11186,0.09589 -0.24369,0.14381 -0.39549,0.14381zM253.62687,242.59072c-0.15977,0 -0.29562,-0.05193 -0.40747,-0.15579c-0.10389,-0.10386 -0.15579,-0.2397 -0.15579,-0.40747v-10.0549c0,-0.15977 0.05193,-0.29163 0.15579,-0.39549c0.11186,-0.11186 0.24767,-0.1678 0.40747,-0.1678c0.1678,0 0.31161,0.06792 0.43143,0.20374l6.84308,8.98828v-8.62875c0,-0.15977 0.05196,-0.29163 0.15582,-0.39549c0.10389,-0.11186 0.23569,-0.1678 0.39546,-0.1678c0.15181,0 0.28364,0.05594 0.39549,0.1678c0.11186,0.10386 0.16777,0.23569 0.16777,0.39549v10.0549c0,0.1678 -0.05591,0.30361 -0.16777,0.40747c-0.11186,0.10386 -0.24369,0.15579 -0.39549,0.15579c-0.0719,0 -0.14779,-0.01198 -0.22769,-0.03594c-0.0799,-0.03198 -0.14384,-0.08388 -0.19176,-0.15579l-6.84308,-8.97633v8.60479c0,0.1678 -0.05594,0.30361 -0.1678,0.40747c-0.11186,0.10386 -0.24369,0.15579 -0.39549,0.15579zM265.43204,242.59072c-0.15977,0 -0.29562,-0.05193 -0.40747,-0.15579c-0.10389,-0.10386 -0.15579,-0.2397 -0.15579,-0.40747v-10.0549c0,-0.15977 0.05193,-0.29163 0.15579,-0.39549c0.11186,-0.11186 0.24767,-0.1678 0.40747,-0.1678h2.57665c0.82294,0 1.57397,0.1398 2.25309,0.41945c0.67913,0.27166 1.26632,0.65915 1.76168,1.16249c0.49537,0.49537 0.87888,1.08259 1.15051,1.76171c0.27965,0.67113 0.41945,1.41818 0.41945,2.24109c0,0.82294 -0.13983,1.57795 -0.41945,2.26505c-0.27166,0.67913 -0.65514,1.27033 -1.15051,1.77369c-0.49537,0.49537 -1.08256,0.87885 -1.76168,1.15048c-0.67913,0.27166 -1.43016,0.40747 -2.25309,0.40747zM265.99532,241.58405h2.01339c0.87885,0 1.65384,-0.19577 2.32497,-0.58725c0.67113,-0.3995 1.19842,-0.94276 1.58194,-1.62988c0.38351,-0.69509 0.57524,-1.48607 0.57524,-2.37289c0,-0.88685 -0.19176,-1.67382 -0.57524,-2.36091c-0.38351,-0.69509 -0.9108,-1.23837 -1.58194,-1.62988c-0.67113,-0.39151 -1.44612,-0.58725 -2.32497,-0.58725h-2.01339z" fill="#ffffff" stroke="none" stroke-width="1" stroke-linecap="square"/><path d="M184.98221,39.19559c-0.09808,0 -0.18326,-0.03355 -0.25553,-0.10066c-0.06711,-0.07227 -0.10066,-0.16003 -0.10066,-0.26327v-6.86061h0.72013v6.86061c0,0.10324 -0.03355,0.191 -0.10066,0.26327c-0.06711,0.06711 -0.15488,0.10066 -0.26327,0.10066zM182.43465,32.62923c-0.09808,0 -0.17809,-0.03097 -0.24004,-0.09292c-0.06195,-0.06195 -0.09293,-0.13938 -0.09293,-0.2323c0,-0.09808 0.03098,-0.1781 0.09293,-0.24004c0.06195,-0.06195 0.14196,-0.09293 0.24004,-0.09293h5.11062c0.09808,0 0.1781,0.03098 0.24004,0.09293c0.06195,0.06195 0.09292,0.14197 0.09292,0.24004c0,0.09292 -0.03097,0.17036 -0.09292,0.2323c-0.06195,0.06195 -0.14197,0.09292 -0.24004,0.09292zM189.30354,39.19559c-0.10324,0 -0.19099,-0.03355 -0.26327,-0.10066c-0.06711,-0.06711 -0.10067,-0.15488 -0.10067,-0.26327v-6.49667c0,-0.10324 0.03356,-0.18842 0.10067,-0.25553c0.07227,-0.07227 0.16002,-0.10841 0.26327,-0.10841c0.10324,0 0.18842,0.03614 0.25553,0.10841c0.07227,0.06711 0.10841,0.15229 0.10841,0.25553v2.88827h4.50663v-2.88827c0,-0.10324 0.03355,-0.18842 0.10066,-0.25553c0.06711,-0.07227 0.15488,-0.10841 0.26327,-0.10841c0.10324,0 0.18842,0.03614 0.25553,0.10841c0.06711,0.06711 0.10066,0.15229 0.10066,0.25553v6.49667c0,0.10841 -0.03355,0.19617 -0.10066,0.26327c-0.06711,0.06711 -0.15229,0.10066 -0.25553,0.10066c-0.10841,0 -0.19617,-0.03355 -0.26327,-0.10066c-0.06711,-0.06711 -0.10066,-0.15488 -0.10066,-0.26327v-2.9657h-4.50663v2.9657c0,0.10841 -0.03614,0.19617 -0.10841,0.26327c-0.06711,0.06711 -0.15229,0.10066 -0.25553,0.10066zM197.10682,39.19559c-0.10324,0 -0.191,-0.03355 -0.26327,-0.10066c-0.06711,-0.06711 -0.10066,-0.15488 -0.10066,-0.26327v-6.49667c0,-0.10324 0.03355,-0.18842 0.10066,-0.25553c0.07227,-0.07227 0.16003,-0.10841 0.26327,-0.10841h4.33628c0.09808,0 0.18325,0.03356 0.25553,0.10067c0.07227,0.06711 0.10842,0.15228 0.10842,0.25553c0,0.09292 -0.03614,0.17293 -0.10842,0.24004c-0.07227,0.06711 -0.15744,0.10067 -0.25553,0.10067h-3.97234v2.5553h2.88827c0.10841,0 0.19617,0.03356 0.26327,0.10067c0.06711,0.06711 0.10066,0.14971 0.10066,0.24779c0,0.09808 -0.03355,0.18068 -0.10066,0.24779c-0.06711,0.06711 -0.15488,0.10066 -0.26327,0.10066h-2.88827v2.57853h3.97234c0.09808,0 0.18325,0.03614 0.25553,0.10842c0.07227,0.06711 0.10842,0.14712 0.10842,0.24004c0,0.10324 -0.03614,0.18842 -0.10842,0.25553c-0.07227,0.06195 -0.15744,0.09293 -0.25553,0.09293zM206.2137,39.19559c-0.09808,0 -0.18326,-0.03355 -0.25553,-0.10066c-0.07227,-0.07227 -0.10841,-0.16003 -0.10841,-0.26327v-6.49667c0,-0.10324 0.03614,-0.18842 0.10841,-0.25553c0.07227,-0.07227 0.15745,-0.10841 0.25553,-0.10841c0.1497,0 0.25812,0.06195 0.32522,0.18585l3.11283,6.19468h-0.30973l3.05863,-6.19468c0.07227,-0.1239 0.18067,-0.18585 0.32521,-0.18585c0.09808,0 0.18068,0.03614 0.24779,0.10841c0.06711,0.06711 0.10066,0.15229 0.10066,0.25553v6.49667c0,0.10324 -0.03355,0.191 -0.10066,0.26327c-0.06711,0.06711 -0.14971,0.10066 -0.24779,0.10066c-0.10841,0 -0.19874,-0.03355 -0.27101,-0.10066c-0.06711,-0.07227 -0.10067,-0.16003 -0.10067,-0.26327v-5.55973l0.15488,0.00774l-2.72566,5.57522c-0.06711,0.11873 -0.17294,0.1781 -0.31748,0.1781c-0.15487,0 -0.26585,-0.07485 -0.33296,-0.22456l-2.74115,-5.49004l0.18585,-0.04647v5.55974c0,0.10324 -0.03614,0.19099 -0.10841,0.26327c-0.07227,0.06711 -0.15745,0.10067 -0.25553,0.10067zM214.52473,39.19559c-0.13939,0 -0.24004,-0.05678 -0.30199,-0.17036c-0.06195,-0.11873 -0.06969,-0.23488 -0.02323,-0.34845l2.71791,-6.45021c0.06711,-0.17036 0.18585,-0.25553 0.35619,-0.25553c0.16002,0 0.27361,0.08518 0.34071,0.25553l2.72566,6.45796c0.05678,0.11873 0.04904,0.23488 -0.02323,0.34845c-0.07227,0.10841 -0.17293,0.16261 -0.30199,0.16261c-0.07227,0 -0.13938,-0.01807 -0.20133,-0.0542c-0.05678,-0.03614 -0.10325,-0.09292 -0.13939,-0.17036l-2.53982,-6.16371h0.2865l-2.56306,6.16371c-0.03097,0.07744 -0.07743,0.13422 -0.13938,0.17036c-0.05678,0.03614 -0.12131,0.0542 -0.19359,0.0542zM215.13646,37.47657l0.27876,-0.61947h3.74778l0.27876,0.61947zM221.78322,39.19559c-0.10324,0 -0.19099,-0.03355 -0.26327,-0.10066c-0.06711,-0.06711 -0.10067,-0.15488 -0.10067,-0.26327v-6.49667c0,-0.10324 0.03356,-0.18842 0.10067,-0.25553c0.07227,-0.07227 0.16002,-0.10841 0.26327,-0.10841c0.10324,0 0.18842,0.03614 0.25553,0.10841c0.07227,0.06711 0.10841,0.15229 0.10841,0.25553v6.49667c0,0.10841 -0.03614,0.19617 -0.10841,0.26327c-0.06711,0.06711 -0.15229,0.10066 -0.25553,0.10066zM224.35347,39.19559c-0.10324,0 -0.191,-0.03355 -0.26327,-0.10066c-0.06711,-0.06711 -0.10066,-0.15488 -0.10066,-0.26327v-6.49667c0,-0.10324 0.03355,-0.18842 0.10066,-0.25553c0.07227,-0.07227 0.16003,-0.10841 0.26327,-0.10841c0.10841,0 0.20133,0.04388 0.27876,0.13164l4.42146,5.80751v-5.57522c0,-0.10324 0.03355,-0.18841 0.10066,-0.25553c0.06711,-0.07227 0.15229,-0.10842 0.25553,-0.10842c0.09808,0 0.18325,0.03614 0.25553,0.10842c0.07227,0.06711 0.10841,0.15228 0.10841,0.25553v6.49668c0,0.10841 -0.03614,0.19616 -0.10841,0.26327c-0.07227,0.06711 -0.15744,0.10067 -0.25553,0.10067c-0.04646,0 -0.09551,-0.00774 -0.14713,-0.02323c-0.05163,-0.02066 -0.09293,-0.05421 -0.1239,-0.10067l-4.42145,-5.79977v5.55974c0,0.10841 -0.03614,0.19616 -0.10841,0.26327c-0.07227,0.06711 -0.15745,0.10067 -0.25553,0.10067zM237.57056,39.28852c-0.49558,0 -0.96276,-0.0955 -1.40155,-0.2865c-0.43363,-0.191 -0.81563,-0.45686 -1.14601,-0.79757c-0.32522,-0.34587 -0.58075,-0.74078 -0.76659,-1.18474c-0.18585,-0.44911 -0.27876,-0.9292 -0.27876,-1.44026c0,-0.50589 0.09034,-0.98083 0.27102,-1.42478c0.18068,-0.44911 0.43621,-0.84145 0.76659,-1.17699c0.33038,-0.3407 0.71238,-0.60656 1.14601,-0.79757c0.4388,-0.19617 0.90856,-0.29424 1.4093,-0.29424c0.44395,0 0.8466,0.06453 1.20796,0.19359c0.36652,0.12905 0.72013,0.33555 1.06084,0.61947c0.05678,0.04129 0.08776,0.09293 0.09293,0.15488c0.01032,0.05678 0.00258,0.11099 -0.02323,0.16261c-0.02066,0.05163 -0.05678,0.09034 -0.10841,0.11615c-0.01032,0.04646 -0.0413,0.0826 -0.09293,0.10841c-0.04646,0.02581 -0.10324,0.03614 -0.17036,0.03097c-0.06195,-0.01032 -0.12389,-0.03871 -0.18584,-0.08517c-0.24263,-0.21165 -0.5059,-0.36652 -0.78982,-0.4646c-0.28392,-0.10324 -0.6143,-0.15488 -0.99115,-0.15488c-0.39749,0 -0.77175,0.08002 -1.12279,0.24004c-0.34587,0.16002 -0.65303,0.37943 -0.92146,0.65819c-0.26327,0.2736 -0.46977,0.59365 -0.61947,0.96018c-0.1497,0.36136 -0.22456,0.74594 -0.22456,1.15376c0,0.41814 0.07485,0.81048 0.22456,1.177c0.1497,0.36136 0.35619,0.68141 0.61947,0.96017c0.26843,0.27876 0.57559,0.49816 0.92146,0.65819c0.35104,0.15487 0.72529,0.2323 1.12279,0.2323c0.3407,0 0.66076,-0.0542 0.96017,-0.16261c0.30458,-0.11357 0.59366,-0.27618 0.86726,-0.48783c0.07227,-0.06195 0.1497,-0.08518 0.2323,-0.06969c0.0826,0.01032 0.15487,0.04646 0.21681,0.10841c0.06195,0.06195 0.09293,0.14197 0.09293,0.24004c0,0.04646 -0.00774,0.09034 -0.02323,0.13164c-0.01549,0.04129 -0.0413,0.0826 -0.07744,0.1239c-0.3149,0.28909 -0.66593,0.49558 -1.0531,0.61948c-0.38716,0.11873 -0.7924,0.1781 -1.21571,0.1781zM241.79063,39.19559c-0.10324,0 -0.191,-0.03355 -0.26327,-0.10066c-0.06711,-0.06711 -0.10066,-0.15488 -0.10066,-0.26327v-6.49667c0,-0.10324 0.03355,-0.18842 0.10066,-0.25553c0.07227,-0.07227 0.16003,-0.10841 0.26327,-0.10841c0.10324,0 0.18842,0.03614 0.25553,0.10841c0.07227,0.06711 0.10841,0.15229 0.10841,0.25553v2.88827h4.50663v-2.88827c0,-0.10324 0.03355,-0.18842 0.10066,-0.25553c0.06711,-0.07227 0.15488,-0.10841 0.26327,-0.10841c0.10324,0 0.18841,0.03614 0.25553,0.10841c0.06711,0.06711 0.10067,0.15229 0.10067,0.25553v6.49667c0,0.10841 -0.03356,0.19617 -0.10067,0.26327c-0.06711,0.06711 -0.15228,0.10066 -0.25553,0.10066c-0.10841,0 -0.19617,-0.03355 -0.26327,-0.10066c-0.06711,-0.06711 -0.10066,-0.15488 -0.10066,-0.26327v-2.9657h-4.50663v2.9657c0,0.10841 -0.03614,0.19617 -0.10841,0.26327c-0.06711,0.06711 -0.15229,0.10066 -0.25553,0.10066zM248.83502,39.19559c-0.13939,0 -0.24004,-0.05678 -0.30199,-0.17036c-0.06195,-0.11873 -0.06968,-0.23488 -0.02322,-0.34845l2.71791,-6.45021c0.06711,-0.17036 0.18585,-0.25553 0.35619,-0.25553c0.16002,0 0.2736,0.08518 0.3407,0.25553l2.72566,6.45796c0.05678,0.11873 0.04904,0.23488 -0.02323,0.34845c-0.07227,0.10841 -0.17292,0.16261 -0.30198,0.16261c-0.07227,0 -0.13939,-0.01807 -0.20133,-0.0542c-0.05678,-0.03614 -0.10325,-0.09292 -0.13939,-0.17036l-2.53982,-6.16371h0.2865l-2.56305,6.16371c-0.03097,0.07744 -0.07744,0.13422 -0.13939,0.17036c-0.05678,0.03614 -0.12131,0.0542 -0.19358,0.0542zM249.44674,37.47657l0.27876,-0.61947h3.74778l0.27876,0.61947zM256.0935,39.19559c-0.10324,0 -0.191,-0.03355 -0.26327,-0.10066c-0.06711,-0.06711 -0.10066,-0.15488 -0.10066,-0.26327v-6.49667c0,-0.10324 0.03355,-0.18842 0.10066,-0.25553c0.07227,-0.07227 0.16003,-0.10841 0.26327,-0.10841h1.72677c0.44911,0 0.84918,0.0955 1.20022,0.2865c0.35619,0.18585 0.63237,0.44654 0.82854,0.78208c0.20133,0.33555 0.30199,0.72272 0.30199,1.16151c0,0.41814 -0.10066,0.79241 -0.30199,1.12279c-0.19617,0.32522 -0.47234,0.58075 -0.82854,0.76659c-0.35104,0.18585 -0.7511,0.27876 -1.20022,0.27876h-1.36283v2.46238c0,0.10841 -0.03614,0.19617 -0.10841,0.26327c-0.06711,0.06711 -0.15229,0.10066 -0.25553,0.10066zM259.95743,39.19559c-0.07744,0 -0.13938,-0.01549 -0.18584,-0.04646c-0.04646,-0.03097 -0.09034,-0.07743 -0.13164,-0.13938l-1.77322,-2.82633l0.72013,-0.18584l1.65708,2.64048c0.09292,0.1497 0.10841,0.28134 0.04646,0.39491c-0.05678,0.10841 -0.16778,0.16262 -0.33297,0.16262zM256.45743,35.67237h1.36283c0.3149,0 0.59365,-0.06195 0.83627,-0.18585c0.24263,-0.12905 0.43363,-0.30458 0.57302,-0.52655c0.14454,-0.22197 0.21681,-0.47492 0.21681,-0.75885c0,-0.29941 -0.07226,-0.56527 -0.21681,-0.79757c-0.13939,-0.2323 -0.33039,-0.41297 -0.57302,-0.54203c-0.24263,-0.12905 -0.52137,-0.19359 -0.83627,-0.19359h-1.36283zM261.04843,39.19559c-0.13939,0 -0.24004,-0.05678 -0.30199,-0.17036c-0.06195,-0.11873 -0.06968,-0.23488 -0.02322,-0.34845l2.71791,-6.45021c0.06711,-0.17036 0.18585,-0.25553 0.35619,-0.25553c0.16002,0 0.2736,0.08518 0.3407,0.25553l2.72566,6.45796c0.05678,0.11873 0.04904,0.23488 -0.02323,0.34845c-0.07227,0.10841 -0.17293,0.16261 -0.30199,0.16261c-0.07227,0 -0.13938,-0.01807 -0.20133,-0.0542c-0.05678,-0.03614 -0.10325,-0.09292 -0.13939,-0.17036l-2.53982,-6.16371h0.2865l-2.56305,6.16371c-0.03097,0.07744 -0.07744,0.13422 -0.13939,0.17036c-0.05678,0.03614 -0.12131,0.0542 -0.19359,0.0542zM261.66015,37.47657l0.27876,-0.61947h3.74778l0.27876,0.61947zM271.00242,39.28852c-0.49558,0 -0.96275,-0.0955 -1.40154,-0.2865c-0.43363,-0.191 -0.81564,-0.45686 -1.14602,-0.79757c-0.32522,-0.34587 -0.58075,-0.74078 -0.76659,-1.18474c-0.18585,-0.44911 -0.27876,-0.9292 -0.27876,-1.44026c0,-0.50589 0.09034,-0.98083 0.27101,-1.42478c0.18068,-0.44911 0.43621,-0.84145 0.76659,-1.17699c0.33038,-0.3407 0.71239,-0.60656 1.14602,-0.79757c0.4388,-0.19617 0.90855,-0.29424 1.40929,-0.29424c0.44395,0 0.8466,0.06453 1.20796,0.19359c0.36652,0.12905 0.72013,0.33555 1.06084,0.61947c0.05678,0.04129 0.08776,0.09293 0.09293,0.15488c0.01032,0.05678 0.00258,0.11099 -0.02323,0.16261c-0.02066,0.05163 -0.05678,0.09034 -0.10841,0.11615c-0.01032,0.04646 -0.04129,0.0826 -0.09292,0.10841c-0.04646,0.02581 -0.10324,0.03614 -0.17036,0.03097c-0.06195,-0.01032 -0.1239,-0.03871 -0.18585,-0.08517c-0.24263,-0.21165 -0.5059,-0.36652 -0.78982,-0.4646c-0.28392,-0.10324 -0.6143,-0.15488 -0.99115,-0.15488c-0.39749,0 -0.77175,0.08002 -1.12279,0.24004c-0.34587,0.16002 -0.65303,0.37943 -0.92146,0.65819c-0.26327,0.2736 -0.46977,0.59365 -0.61947,0.96018c-0.1497,0.36136 -0.22456,0.74594 -0.22456,1.15376c0,0.41814 0.07485,0.81048 0.22456,1.177c0.1497,0.36136 0.35619,0.68141 0.61947,0.96017c0.26843,0.27876 0.57559,0.49816 0.92146,0.65819c0.35104,0.15487 0.72529,0.2323 1.12279,0.2323c0.3407,0 0.66077,-0.0542 0.96018,-0.16261c0.30458,-0.11357 0.59365,-0.27618 0.86725,-0.48783c0.07227,-0.06195 0.1497,-0.08518 0.2323,-0.06969c0.0826,0.01032 0.15488,0.04646 0.21682,0.10841c0.06195,0.06195 0.09292,0.14197 0.09292,0.24004c0,0.04646 -0.00774,0.09034 -0.02323,0.13164c-0.01549,0.04129 -0.04129,0.0826 -0.07743,0.1239c-0.3149,0.28909 -0.66593,0.49558 -1.0531,0.61948c-0.38716,0.11873 -0.79241,0.1781 -1.21571,0.1781zM276.957,39.19559c-0.09808,0 -0.18326,-0.03355 -0.25553,-0.10066c-0.06711,-0.07227 -0.10066,-0.16003 -0.10066,-0.26327v-6.86061h0.72013v6.86061c0,0.10324 -0.03356,0.191 -0.10067,0.26327c-0.06711,0.06711 -0.15487,0.10066 -0.26327,0.10066zM274.40943,32.62923c-0.09808,0 -0.1781,-0.03097 -0.24004,-0.09292c-0.06195,-0.06195 -0.09292,-0.13938 -0.09292,-0.2323c0,-0.09808 0.03097,-0.1781 0.09292,-0.24004c0.06195,-0.06195 0.14197,-0.09293 0.24004,-0.09293h5.11061c0.09808,0 0.1781,0.03098 0.24004,0.09293c0.06195,0.06195 0.09293,0.14197 0.09293,0.24004c0,0.09292 -0.03098,0.17036 -0.09293,0.2323c-0.06195,0.06195 -0.14197,0.09292 -0.24004,0.09292zM281.27834,39.19559c-0.10324,0 -0.191,-0.03355 -0.26327,-0.10066c-0.06711,-0.06711 -0.10066,-0.15488 -0.10066,-0.26327v-6.49667c0,-0.10324 0.03355,-0.18842 0.10066,-0.25553c0.07227,-0.07227 0.16003,-0.10841 0.26327,-0.10841h4.33627c0.09808,0 0.18326,0.03356 0.25553,0.10067c0.07227,0.06711 0.10841,0.15228 0.10841,0.25553c0,0.09292 -0.03614,0.17293 -0.10841,0.24004c-0.07227,0.06711 -0.15745,0.10067 -0.25553,0.10067h-3.97233v2.5553h2.88827c0.10841,0 0.19616,0.03356 0.26327,0.10067c0.06711,0.06711 0.10067,0.14971 0.10067,0.24779c0,0.09808 -0.03356,0.18068 -0.10067,0.24779c-0.06711,0.06711 -0.15487,0.10066 -0.26327,0.10066h-2.88827v2.57853h3.97233c0.09808,0 0.18326,0.03614 0.25553,0.10842c0.07227,0.06711 0.10841,0.14712 0.10841,0.24004c0,0.10324 -0.03614,0.18842 -0.10841,0.25553c-0.07227,0.06195 -0.15745,0.09293 -0.25553,0.09293zM287.67625,39.19559c-0.10324,0 -0.19099,-0.03355 -0.26327,-0.10066c-0.06711,-0.06711 -0.10067,-0.15488 -0.10067,-0.26327v-6.49667c0,-0.10324 0.03356,-0.18842 0.10067,-0.25553c0.07227,-0.07227 0.16002,-0.10841 0.26327,-0.10841h1.72677c0.44911,0 0.84919,0.0955 1.20022,0.2865c0.35619,0.18585 0.63237,0.44654 0.82854,0.78208c0.20133,0.33555 0.30199,0.72272 0.30199,1.16151c0,0.41814 -0.10066,0.79241 -0.30199,1.12279c-0.19617,0.32522 -0.47234,0.58075 -0.82854,0.76659c-0.35104,0.18585 -0.75111,0.27876 -1.20022,0.27876h-1.36283v2.46238c0,0.10841 -0.03614,0.19617 -0.10841,0.26327c-0.06711,0.06711 -0.15229,0.10066 -0.25553,0.10066zM291.54019,39.19559c-0.07744,0 -0.13939,-0.01549 -0.18585,-0.04646c-0.04646,-0.03097 -0.09034,-0.07743 -0.13164,-0.13938l-1.77322,-2.82633l0.72013,-0.18584l1.65708,2.64048c0.09292,0.1497 0.10841,0.28134 0.04646,0.39491c-0.05678,0.10841 -0.16777,0.16262 -0.33296,0.16262zM288.04019,35.67237h1.36283c0.3149,0 0.59365,-0.06195 0.83628,-0.18585c0.24263,-0.12905 0.43362,-0.30458 0.57301,-0.52655c0.14454,-0.22197 0.21681,-0.47492 0.21681,-0.75885c0,-0.29941 -0.07226,-0.56527 -0.21681,-0.79757c-0.13939,-0.2323 -0.33038,-0.41297 -0.57301,-0.54203c-0.24263,-0.12905 -0.52138,-0.19359 -0.83628,-0.19359h-1.36283zM295.24843,39.28852c-0.39233,0 -0.75885,-0.05678 -1.09955,-0.17036c-0.33555,-0.11357 -0.62721,-0.2736 -0.87499,-0.48009c-0.24263,-0.21165 -0.42846,-0.45686 -0.55753,-0.73562c-0.05163,-0.09808 -0.0542,-0.18841 -0.00774,-0.27101c0.04646,-0.08776 0.12648,-0.14454 0.24004,-0.17036c0.0826,-0.02581 0.16519,-0.01806 0.24779,0.02323c0.08776,0.04129 0.15229,0.10582 0.19359,0.19358c0.09292,0.18068 0.22714,0.34329 0.40265,0.48783c0.18068,0.13939 0.39491,0.24779 0.6427,0.32522c0.24779,0.07744 0.5188,0.11615 0.81305,0.11615c0.32522,0 0.61431,-0.05421 0.86726,-0.16262c0.25295,-0.10841 0.45169,-0.26585 0.59623,-0.47234c0.14454,-0.20649 0.21682,-0.45943 0.21682,-0.75885c0,-0.37168 -0.13939,-0.69175 -0.41814,-0.96018c-0.2736,-0.2736 -0.70723,-0.44911 -1.30088,-0.52655c-0.72272,-0.0826 -1.28798,-0.30457 -1.6958,-0.66592c-0.40265,-0.36136 -0.60399,-0.80531 -0.60399,-1.33186c0,-0.37168 0.09808,-0.6969 0.29424,-0.97566c0.20133,-0.27876 0.47751,-0.493 0.82854,-0.64271c0.35619,-0.1497 0.76143,-0.22456 1.21571,-0.22456c0.3407,0 0.64786,0.05421 0.92146,0.16262c0.27876,0.10324 0.52138,0.24262 0.72788,0.41813c0.20649,0.17551 0.37426,0.36911 0.50331,0.58076c0.06195,0.09808 0.0826,0.19359 0.06195,0.2865c-0.02066,0.09292 -0.07485,0.16261 -0.16261,0.20907c-0.09292,0.04646 -0.18842,0.0542 -0.2865,0.02323c-0.09292,-0.03097 -0.16262,-0.09034 -0.20908,-0.1781c-0.09292,-0.13939 -0.20907,-0.27101 -0.34845,-0.39491c-0.13939,-0.12905 -0.30973,-0.22972 -0.51106,-0.30199c-0.19617,-0.07744 -0.43105,-0.11873 -0.70465,-0.1239c-0.49041,0 -0.88274,0.10324 -1.17699,0.30973c-0.29424,0.20649 -0.44137,0.5059 -0.44137,0.89823c0,0.21165 0.0542,0.40524 0.16261,0.58075c0.11357,0.17551 0.29683,0.3278 0.54978,0.45685c0.25812,0.1239 0.6014,0.21682 1.02987,0.27876c0.77433,0.10841 1.34734,0.34329 1.71902,0.70465c0.37168,0.36136 0.55752,0.83112 0.55752,1.40929c0,0.33555 -0.05937,0.63237 -0.1781,0.89048c-0.11873,0.25812 -0.28909,0.47492 -0.51106,0.65044c-0.21681,0.17551 -0.47234,0.30973 -0.76659,0.40265c-0.29424,0.09292 -0.60656,0.13939 -0.93694,0.13939z" fill="#ffffff" stroke="none" stroke-width="1" stroke-linecap="square"/><g><g data-paper-data="{&quot;index&quot;:null}" fill="#0b7d68" stroke="#074a52" stroke-width="0.2"><path d="M215.15151,91.69165c0,-1.02926 0.83437,-1.86363 1.86363,-1.86363c1.02926,0 3.04545,1.57471 2.18182,2.86363c-0.00902,0.01345 -0.47074,-0.86363 -1.77272,-1.36363c-0.96084,-0.36899 -2.27273,0.9838 -2.27273,0.36363z" stroke-linecap="butt"/><path d="M218.26356,91.53566c0.09358,0.91968 -1.49679,1.8359 -1.49679,1.8359c0,0 0.5445,-1.03705 -0.21476,-1.6313c-0.75926,-0.59425 -1.58326,0.55311 -1.58326,0.55311c0,0 0.13057,-1.83076 0.99894,-2.1478" data-paper-data="{&quot;index&quot;:null}" stroke-linecap="round"/></g><path d="M210.42424,88.50021c0,-1.07154 0.87728,-2.02656 0.87728,-2.02656c0,0 1.2257,1.79062 2.20491,1.99546c0.97921,0.20485 0.93045,-1.5918 0.93045,-1.5918c0,0 0.33986,0.85298 0.26133,1.6229c-0.31335,3.07238 -3.41096,4.45822 -3.41096,4.45822c0,0 0.38085,-0.99611 -0.02744,-2.42743c-0.09995,-0.35041 -0.83557,-1.46444 -0.83557,-2.03079z" fill="#0b7d68" stroke="#074a52" stroke-width="0.2" stroke-linecap="butt"/><path d="M213.83931,77.58316l-0.05263,-2.21053l2.84211,3.84211" fill="#0b7d68" stroke="#074a52" stroke-width="0.2" stroke-linecap="round"/><path d="M207.77133,82.05692c0,-2.69239 2.18261,-4.875 4.875,-4.875c2.69239,0 4.875,2.18261 4.875,4.875c0,2.69239 -0.68261,4.875 -4.875,4.875c-2.69239,0 -4.875,-2.18261 -4.875,-4.875z" fill="#0b7d68" stroke="#074a52" stroke-width="0.2" stroke-linecap="butt"/><path d="M211.81922,86.89177c-5.87898,-1.37566 -7.66412,-8.22542 -7.66412,-8.22542c0,0 1.95843,1.49599 3.28645,0.30048c0.94388,-0.84969 0.02237,-1.34512 -0.03433,-3.42835c-0.06714,-2.46657 2.16578,-4.20224 2.16578,-4.20224c0,0 2.06981,3.74805 6.10842,6.90517" fill="#0b7d68" stroke="#074a52" stroke-width="0.2" stroke-linecap="round"/><path d="M205.63496,80.01146c0,-0.00256 1.00092,0.18733 1.88412,0.07462c0.69733,-0.08899 1.32128,-0.48645 1.32128,-0.48645c0,0 -0.29437,-5.8859 0.88293,-6.61651c0.02676,-0.0166 0.53805,1.28455 1.30228,2.52027c0.73559,1.18943 1.72223,2.31489 1.89349,2.31489c2.39114,0 4.32954,1.9384 4.32954,4.32954c0,2.39114 -0.71113,4.32954 -4.32954,4.32954c-2.39114,0 -7.28409,-4.07477 -7.28409,-6.46591z" fill="#2bab68" stroke="none" stroke-width="0" stroke-linecap="butt"/><path d="M213.34058,82.02053c0,0.98749 0.11514,1.78806 -0.3537,1.78806c-0.46881,0 -0.3537,-0.80053 -0.3537,-1.78806c0,-0.98749 -0.11514,-1.78805 0.3537,-1.78805c0.46881,0 0.3537,0.80053 0.3537,1.78805z" fill="#aaf199" stroke="#054a52" stroke-width="0.2" stroke-linecap="butt"/><path d="M215.61331,82.02053c0,0.98749 0.11514,1.78806 -0.3537,1.78806c-0.46881,0 -0.3537,-0.80053 -0.3537,-1.78806c0,-0.98749 -0.11514,-1.78805 0.3537,-1.78805c0.46881,0 0.3537,0.80053 0.3537,1.78805z" fill="#aaf199" stroke="#054a52" stroke-width="0.2" stroke-linecap="butt"/><path d="M214.0606,85.50984l1.31818,-0.27273l0.27273,0.18182" fill="none" stroke="#054a52" stroke-width="0.2" stroke-linecap="round"/><g data-paper-data="{&quot;index&quot;:null}" fill="#0b7d68" stroke="#074a52" stroke-width="0.2"><path d="M206.86034,91.32802c-1.30199,0.5 -1.76371,1.37709 -1.77272,1.36363c-0.86363,-1.28893 1.15256,-2.86363 2.18182,-2.86363c1.02926,0 1.86363,0.83437 1.86363,1.86363c0,0.62016 -1.31189,-0.73262 -2.27273,-0.36363z" stroke-linecap="butt"/><path d="M208.3169,90.14558c0.86837,0.31704 0.99893,2.1478 0.99893,2.1478c0,0 -0.824,-1.14736 -1.58326,-0.55311c-0.75926,0.59425 -0.21476,1.6313 -0.21476,1.6313c0,0 -1.59037,-0.91622 -1.49678,-1.8359" data-paper-data="{&quot;index&quot;:null}" stroke-linecap="round"/></g></g><g data-paper-data="{&quot;index&quot;:null}"><path d="M254.53127,83.3309c0,-7.373 5.977,-13.35 13.35,-13.35c7.373,0 13.35,5.977 13.35,13.35c0,7.373 -5.977,13.35 -13.35,13.35c-7.373,0 -13.35,-5.977 -13.35,-13.35z" fill="#9b1b64" stroke="#4f004f" stroke-width="0.2" stroke-linecap="butt"/><path d="M255.78127,83.38474c0,-6.13886 4.97653,-11.11539 11.11539,-11.11539c6.13886,0 11.11539,4.97653 11.11539,11.11539c0,6.13886 -4.97653,11.11539 -11.11539,11.11539c-6.13886,0 -11.11539,-4.97653 -11.11539,-11.11539z" fill="#b0486f" stroke="none" stroke-width="0" stroke-linecap="butt"/><path d="M267.78127,84.11539c0,5.35291 -1.61539,9.69231 -1.61539,9.69231c0,0 -1.61539,-4.33939 -1.61539,-9.69231c0,-5.35291 1.61539,-9.69231 1.61539,-9.69231c0,0 1.61539,4.33939 1.61539,9.69231z" fill="#31c091" stroke="#00334f" stroke-width="0.2" stroke-linecap="butt"/><path d="M267.07614,84.00013c0,3.29247 -0.99359,5.96154 -0.99359,5.96154c0,0 -0.99359,-2.66907 -0.99359,-5.96154c0,-3.29247 0.99359,-5.96153 0.99359,-5.96153c0,0 0.99359,2.66906 0.99359,5.96153z" fill="#00334f" stroke="none" stroke-width="0" stroke-linecap="butt"/><path d="M280.62742,79.57696l-10.61538,2.84615l3.23077,-11.23077" fill="none" stroke="#4f004f" stroke-width="0.2" stroke-linecap="round"/><path d="M271.74721,96.04839l-2.65824,-9.24057l10.61539,2.84616" data-paper-data="{&quot;index&quot;:null}" fill="none" stroke="#4f004f" stroke-width="0.2" stroke-linecap="round"/><path d="M259.5145,73.12587l2.49755,8.68195l-6.88209,-1.8452" data-paper-data="{&quot;index&quot;:null}" fill="none" stroke="#4f004f" stroke-width="0.2" stroke-linecap="round"/><path d="M255.4212,88.20704l7.51392,-2.0146l-2.40991,8.37733" data-paper-data="{&quot;index&quot;:null}" fill="none" stroke="#4f004f" stroke-width="0.2" stroke-linecap="round"/></g><path d="M260.89371,151.75c-1.33243,0.78397 -4.17771,5.6 -4.17771,5.6c0,0 -0.51085,-2.66388 -0.47068,-3.93282c0.04017,-1.26894 0.36318,-2.53384 0.36318,-2.53384c0,0 -0.84649,0.14435 -1.78484,1.02514c-0.93836,0.88079 -2.28536,2.44153 -2.28536,2.44153c0,0 -1.36387,-15.88666 5.02454,-20.6h2.53088c7.54388,4.71334 10.73334,20.6 10.73334,20.6c0,0 -1.51191,-1.62741 -2.61999,-2.5082c-1.10808,-0.88079 -2.58002,-1.62514 -2.58002,-1.62514c0,0 0.53887,1.93157 0.58631,3.20051c0.04744,1.26894 -0.31964,3.93282 -0.31964,3.93282c0,0 -3.35991,-4.81603 -4.93333,-5.6z" data-paper-data="{&quot;index&quot;:null}" fill="#320467" stroke="#23004a" stroke-width="0.2" stroke-linecap="round"/><g data-paper-data="{&quot;index&quot;:null}" stroke-linecap="butt"><path d="M270.81057,151.84301c0,0 0.01778,0.42056 -0.17625,0.61459c-0.19402,0.19403 -0.66542,0.22708 -0.66542,0.22708l-17.55477,-17.91549l-0.1481,-0.63117l0.62905,0.15022l17.91549,17.55478z" fill="#541b94" stroke="#19105a" stroke-width="0.2"/><g><path d="M251.07743,132.95156l1.29468,5.81294l-5.72212,-10.24039l10.24039,5.72212z" fill="#c0f9ff" stroke="none" stroke-width="0"/><path d="M250.81602,132.69013l0.37778,2.47614l-2.15553,-4.25389l4.25388,2.15553z" fill="#7ad1ee" stroke="#649bd4" stroke-width="0.5"/><path d="M250.81602,132.69013l0.37778,2.47614l-2.15553,-4.25389l4.25388,2.15553z" fill="#1b3a94" stroke="none" stroke-width="0"/></g></g><path d="M258.11988,136.54268c-0.51113,1.50139 -1.24837,2.43152 -1.24837,2.43152c0,0 -0.09933,0.94447 -0.68288,2.3986c-0.36686,0.91416 -0.73463,1.68662 -0.73463,1.68662c0,0 -3.99952,0.48786 -3.76429,-0.02837c0.4809,-1.05536 2.57101,-4.69431 2.57101,-4.69431c0,0 1.29854,-3.46389 3.33572,-3.33131" data-paper-data="{&quot;index&quot;:null}" fill="#868ffc" stroke="#1c1161" stroke-width="0.2" stroke-linecap="round"/><path d="M253.67494,141.58682l-0.39444,0.51115l0.70128,0.30169l-0.55684,0.99965h-1.8125l0.8125,-1.8125" data-paper-data="{&quot;index&quot;:null}" fill="#868ffc" stroke="#1c1161" stroke-width="0.2" stroke-linecap="round"/><path d="M251.67798,143.56744l1.57148,-0.47358c0,0 0.31671,-1.26223 0.40407,-1.35876c0.87835,-0.13637 2.1227,0.33409 2.23286,0.78335c0.19474,0.7942 -0.53771,1.78002 -0.53771,1.78002c0,0 -1.22018,0.10003 -2.02827,-0.06226c-0.8081,-0.16228 -1.64243,-0.66878 -1.64243,-0.66878z" data-paper-data="{&quot;index&quot;:null}" fill="#868ffc" stroke="#1c1161" stroke-width="0.2" stroke-linecap="round"/><path d="M256.04501,144.23442v-2.1875h5.3125v2.1875z" data-paper-data="{&quot;index&quot;:null}" fill="#868ffc" stroke="none" stroke-width="0.2" stroke-linecap="butt"/><path d="M258.6925,143.77432c0,0 -0.03473,1.57589 -0.00649,3.75008c0.02823,2.17419 0.31899,5.56242 0.31899,5.56242h-6.375c0,0 1.78052,-6.11504 2.26492,-8.53507c0.22372,-1.11765 0.73508,-2.33993 0.73508,-2.33993" data-paper-data="{&quot;index&quot;:null}" fill="#868ffc" stroke="#1c1161" stroke-width="0.2" stroke-linecap="round"/><path d="M250.27375,156.11476c-0.04068,-0.63821 0.31154,-2.03868 0.31154,-2.03868l1.39415,0.16135l0.84301,-1.75301l2.6875,0.125l-0.25,-3.25l1.25878,0.39549l2.49122,-0.64549l0.25,8.5l-8.4375,0.1875c0,0 -0.51048,-1.0825 -0.5487,-1.68216z" data-paper-data="{&quot;index&quot;:null}" fill="#375fa4" stroke="#0d0061" stroke-width="0.2" stroke-linecap="round"/><g data-paper-data="{&quot;index&quot;:null}" fill="#c497fc" stroke="#461161" stroke-width="0.2" stroke-linecap="round"><path d="M257.17146,132.89522c-7.13476,3.04692 -6.73214,-5.10714 -6.73214,-5.10714c0,0 1.96561,0.8478 4.60258,1.01572c0.07609,0.03618 1.90206,-1.23158 2.68314,-1.06037" data-paper-data="{&quot;index&quot;:null}"/><path d="M258.59725,133.79548c-3.1738,4.50275 -7.72492,0.19553 -7.72492,0.19553c0,0 3.47493,0.57267 5.87688,-1.97656" data-paper-data="{&quot;index&quot;:null}"/></g><path d="M255.23394,128.47976c0.40187,-1.41093 1.23416,-2.79883 1.23416,-2.79883c0,0 1.55545,0.59889 2.36695,2.33877" data-paper-data="{&quot;index&quot;:null}" fill="#c497fc" stroke="#461161" stroke-width="0.2" stroke-linecap="round"/><path d="M256.01275,141.99725c0,0 0.21652,-1.22179 0.28698,-1.85402c0.07377,-0.66201 0.14619,-2.03284 0.14619,-2.03284l0.17397,-3.29171l4.41964,0.50893c0,0 -0.10523,2.17108 -0.19179,2.64771c-0.08656,0.47663 -0.30821,1.2005 -0.30821,1.2005l0.65179,2.71429z" data-paper-data="{&quot;index&quot;:null}" fill="#868ffc" stroke="#1c1161" stroke-width="0.2" stroke-linecap="butt"/><g data-paper-data="{&quot;index&quot;:null}" stroke-linecap="round"><path d="M260.76197,135.00543c2.03718,-0.13258 3.33572,3.33131 3.33572,3.33131l2.22145,3.90992l-3.41473,0.81275c0,0 -0.36777,-0.77246 -0.73463,-1.68662c-0.58355,-1.45413 -0.68288,-2.3986 -0.68288,-2.3986c0,0 -0.73724,-0.93013 -1.24837,-2.43152" fill="#868ffc" stroke="#1c1161" stroke-width="0.2"/><path d="M263.29844,143.12716c0,0 -0.46303,-1.90139 -0.74596,-2.70311c-0.28008,-0.79363 -0.94313,-2.0832 -0.94313,-2.0832c0,0 0.88028,0.42437 1.40625,0.13965c0.59613,-0.32269 0.35428,-1.28191 0.35428,-1.28191c0,0 0.67633,1.42854 1.11562,2.20951c0.5134,0.9127 1.77724,2.93334 1.77724,2.93334z" fill="#cfddfc" stroke="none" stroke-width="0"/><path d="M266.22703,142.02001c0.85832,0.6333 0.89285,2.10714 0.89285,2.10714c0,0 -1.12796,0.5541 -1.92857,0.75c-0.80061,0.1959 -2.25,-0.03572 -2.25,-0.03572l-0.54845,-1.00066l0.01273,-0.92791l0.57143,-0.5" fill="#cfddfc" stroke="#1c1161" stroke-width="0.2"/></g><path d="M259.84733,135.31447c0,0 0.15869,-0.16597 0.36466,1.52679c0.12701,1.04382 -1.42716,5.09821 -1.42716,5.09821l-1.96407,0.06525c0,0 -1.08204,-4.45301 -0.96261,-5.08122c0.31847,-1.67526 1.14661,-1.60903 1.14661,-1.60903z" data-paper-data="{&quot;index&quot;:null}" fill="#375fa4" stroke="#0d0061" stroke-width="0.2" stroke-linecap="round"/><path d="M256.91401,139.34314c0.11317,0.19574 0.1939,0.61404 0.1939,0.61404c0,0 0.3508,-0.37613 0.84558,-0.70201c0.53704,-0.35372 1.22144,-0.65936 1.21905,-0.65658c-0.90101,1.05027 -0.81421,2.80516 -0.81421,2.80516l-1.4906,0.17107c0,0 -0.2863,-2.21242 -0.49195,-2.88388c0,0 0.40939,0.42938 0.53823,0.6522z" data-paper-data="{&quot;index&quot;:null}" fill="#6b9ad0" stroke="none" stroke-width="0" stroke-linecap="round"/><path d="M262.29844,134.02915c0,0 -1.20716,0.83974 -2.36545,1.9025c-1.15829,1.06276 -2.83097,2.86535 -2.83097,2.86535c0,0 -0.74873,-2.05722 -0.65894,-3.11535c-0.17247,-1.07178 1.06966,-2.26857 1.06966,-2.26857z" data-paper-data="{&quot;index&quot;:null}" fill="#541b94" stroke="#23004a" stroke-width="0.2" stroke-linecap="round"/><path d="M257.74269,136.09801l-0.23596,-2.11071l1.82665,-0.03262l0.0031,1.55164z" data-paper-data="{&quot;index&quot;:null}" fill="#c497fc" stroke="#461161" stroke-width="0.2" stroke-linecap="butt"/><path d="M257.58417,136.80593l-0.17857,-0.85715c0,0 1.01743,-0.91552 1.35137,-1.17588c0.36557,-0.28502 1.25577,-0.75268 1.25577,-0.75268l0.25,0.92857" data-paper-data="{&quot;index&quot;:null}" fill="#541b94" stroke="none" stroke-width="0" stroke-linecap="round"/><path d="M257.04846,135.7345v-1.42857c0.57163,0.28942 0.96429,1.10714 0.96429,1.10714v0.53571" data-paper-data="{&quot;index&quot;:null}" fill="#541b94" stroke="none" stroke-width="0" stroke-linecap="round"/><path d="M257.4056,135.94878c0,0 1.01743,-0.91551 1.35137,-1.17588c0.36556,-0.28502 1.25577,-0.75268 1.25577,-0.75268" data-paper-data="{&quot;index&quot;:null}" fill="none" stroke="#23004a" stroke-width="0.2" stroke-linecap="round"/><path d="M257.04845,134.30593c0.57163,0.28942 0.96429,1.10714 0.96429,1.10714" data-paper-data="{&quot;index&quot;:null}" fill="none" stroke="#23004a" stroke-width="0.2" stroke-linecap="round"/><path d="M263.7181,143.89296l-0.7625,-0.59107l-0.22857,-0.56964" data-paper-data="{&quot;index&quot;:null}" fill="none" stroke="#1c1161" stroke-width="0.2" stroke-linecap="round"/><path d="M258.65938,126.92118c2.33842,-0.05274 3.65335,1.60379 3.65335,3.6703c0,2.0665 -2.30102,3.96352 -4.3187,3.96352c-1.21122,0 -2.2731,-0.19678 -3.27192,-1.33199c-0.02465,-0.02801 0.04202,-0.94266 0.04202,-0.94266c0,0 -0.24602,-0.85277 -0.24602,-1.15659c0,-2.06649 1.40907,-4.14097 4.14127,-4.20258z" data-paper-data="{&quot;index&quot;:null}" fill="#c497fc" stroke="#461161" stroke-width="0.2" stroke-linecap="butt"/><path d="M260.80738,127.74343c0.78108,-0.17121 2.60705,1.09655 2.68314,1.06037c2.63697,-0.16792 4.60258,-1.01572 4.60258,-1.01572c0,0 0.40262,8.15406 -6.73214,5.10714" data-paper-data="{&quot;index&quot;:null}" fill="#c497fc" stroke="#461161" stroke-width="0.2" stroke-linecap="round"/><path d="M261.78321,132.01445c2.40195,2.54923 5.87688,1.97656 5.87688,1.97656c0,0 -4.55112,4.30722 -7.72492,-0.19553" data-paper-data="{&quot;index&quot;:null}" fill="#c497fc" stroke="#461161" stroke-width="0.2" stroke-linecap="round"/><path d="M254.87524,131.34382c0,-1.74456 1.79277,-3.60818 3.49612,-3.60818c1.70336,0 3.08422,1.41425 3.08422,3.15883c0,1.74457 -1.94256,3.34606 -3.64591,3.34606c-1.70335,0 -2.93442,-1.15212 -2.93442,-2.8967z" data-paper-data="{&quot;index&quot;:null}" fill="#f6e3fc" stroke="none" stroke-width="0" stroke-linecap="butt"/><path d="M258.13401,133.66083l-0.93949,0.40796l-0.77607,-0.11999" data-paper-data="{&quot;index&quot;:null}" fill="none" stroke="#461161" stroke-width="0.2" stroke-linecap="round"/><g data-paper-data="{&quot;index&quot;:null}"><path d="M259.35265,129.32352c2.29309,-0.16907 1.89585,2.40293 1.23477,3.28386c-0.4865,0.64829 -2.27695,0.63906 -2.80738,0.0254c-0.52735,-0.61009 -0.93551,-3.10065 1.57261,-3.30926z" fill="#ffffff" stroke="#461161" stroke-width="0.2" stroke-linecap="round"/><path d="M259.42261,130.24741c0.29611,0 0.22339,0.50562 0.22339,1.1293c0,0.6237 0.0727,1.1293 -0.22339,1.1293c-0.29611,0 -0.22339,-0.50562 -0.22339,-1.1293c0,-0.6237 -0.0727,-1.1293 0.22339,-1.1293z" fill="#461161" stroke="#23006c" stroke-width="0" stroke-linecap="butt"/></g><path d="M256.31632,132.63278c-0.22485,0.26014 -0.8937,0.48932 -1.3728,0.16481c-0.05077,-0.03439 -0.35713,-0.61381 -0.4271,-1.55806c-0.06818,-0.92001 0.30377,-1.87607 0.28979,-1.91601c2.46499,0.01645 2.03746,2.69917 1.51011,3.30926z" data-paper-data="{&quot;index&quot;:null}" fill="#ffffff" stroke="#461161" stroke-width="0.2" stroke-linecap="round"/><path d="M256.39,131.37671c0,0.62368 0.07272,1.1293 -0.22339,1.1293c-0.29609,0 -0.22339,-0.5056 -0.22339,-1.1293c0,-0.62368 -0.07272,-1.1293 0.22339,-1.1293c0.29609,0 0.22339,0.5056 0.22339,1.1293z" data-paper-data="{&quot;index&quot;:null}" fill="#461161" stroke="#23006c" stroke-width="0" stroke-linecap="butt"/><path d="M257.85894,127.41726c0.40187,-1.03593 1.17166,-1.73633 1.17166,-1.73633c0,0 1.55545,0.59889 2.36695,2.33877" data-paper-data="{&quot;index&quot;:null}" fill="#c497fc" stroke="#461161" stroke-width="0.2" stroke-linecap="round"/><path d="M257.86277,142.4757c-0.81129,0.01803 -2.00031,-0.01388 -2.00031,-0.01388l0.1875,-0.8125c0,0 1.11218,0.10953 1.87396,0.10046c0.94742,-0.01128 3.18854,-0.22546 3.18854,-0.22546l0.25,0.75c0,0 -2.48281,0.17878 -3.49969,0.20138z" data-paper-data="{&quot;index&quot;:null}" fill="#541b94" stroke="#23004a" stroke-width="0.2" stroke-linecap="butt"/><path d="M261.36246,142.21182c0,0 0.51136,1.22228 0.73508,2.33993c0.4844,2.42003 2.26492,8.53507 2.26492,8.53507h-6.375c0,0 0.29076,-3.38823 0.31899,-5.56242c0.02824,-2.17419 -0.00649,-3.75008 -0.00649,-3.75008" data-paper-data="{&quot;index&quot;:null}" fill="#868ffc" stroke="#1c1161" stroke-width="0.2" stroke-linecap="round"/><path d="M260.30642,144.02432c0.82475,0.16884 1.35855,0.6695 1.5154,1.45314c0.33964,1.6968 1.20076,3.77372 -0.33436,3.67186c-1.82669,-0.01224 -2.34356,-0.06315 -2.32376,-1.58758c0.0198,-1.52443 -0.00455,-2.62937 -0.00455,-2.62937c0,0 0.32252,-1.07689 1.14727,-0.90805z" data-paper-data="{&quot;index&quot;:null}" fill="#cfddfc" stroke="none" stroke-width="0" stroke-linecap="round"/><path d="M265.48251,157.10942l-7.75,-0.1875l0.4375,-6.5l1.75,-1.125l-0.625,3.1875l1.5,0.1875h0.875l1.5,-0.1875l-0.625,-3.1875l1.25,1z" data-paper-data="{&quot;index&quot;:null}" fill="#375fa4" stroke="#0d0061" stroke-width="0.2" stroke-linecap="round"/><path d="M257.67001,157.73442c0,0 -0.26437,-1.17681 -0.20604,-1.76947c0.14868,-1.51065 0.70604,-1.91803 0.70604,-1.91803c0,0 2.20456,0.23068 3.31366,0.25181c1.07748,0.02052 3.24884,-0.12681 3.24884,-0.12681c0,0 0.47958,0.67814 0.86893,2.04985c0.1635,0.57604 -0.05643,1.57515 -0.05643,1.57515z" data-paper-data="{&quot;index&quot;:null}" fill="#6b9ad0" stroke="#0d0061" stroke-width="0.2" stroke-linecap="butt"/><path d="M254.10751,154.73442l-2.1875,-0.4375" data-paper-data="{&quot;index&quot;:null}" fill="none" stroke="#0d0061" stroke-width="0.2" stroke-linecap="round"/><path d="M256.96038,143.41666l1.26667,0.66667" data-paper-data="{&quot;index&quot;:null}" fill="none" stroke="#1c1161" stroke-width="0.2" stroke-linecap="round"/><g><path d="M228.67715,145.20987l-0.10764,-1.93756l3.48042,-0.68174l0.14352,1.93756z" fill="#3700ad" stroke="none" stroke-width="0" stroke-linecap="butt"/><path d="M232.41171,142.73409c0.62366,1.00937 0.19734,2.14088 0.19734,2.14088c0,0 -1.07393,0.07476 -1.60461,0.19407c-0.70491,0.15847 -2.25256,0.67304 -2.25256,0.67304c0,0 -0.52902,-0.3075 -0.66403,-0.52042c-0.12301,-0.19396 -0.11339,-0.70551 -0.11339,-0.70551c0,0 0.13717,-0.14305 0.21644,-0.17388c0.09666,-0.03758 0.38157,-0.15503 0.38157,-0.15503c0,0 -0.03422,0.31273 0.01344,0.50338c0.04766,0.19064 0.22576,0.45344 0.22576,0.45344" fill="#3700ad" stroke="#23006c" stroke-width="0.2" stroke-linecap="round"/><path d="M226.14306,134.68069c4.41695,3.2832 6.84723,7.83395 6.84723,7.83395c0,0 -1.25771,0.70303 -2.87261,1.21857c-1.32766,0.42384 -2.8384,0.45586 -2.8384,0.45586c0,0 -1.72001,-2.19156 -1.79404,-6.96683" fill="#1093ab" stroke="#001a61" stroke-width="0.2" stroke-linecap="round"/><path d="M221.24234,156.71986c0,0 -0.22966,0.0677 -0.1363,-0.89891c0.03352,-0.34706 0.28581,-0.93997 0.28581,-0.93997l8.10305,-0.08971l2.28904,0.46706c0,0 0.47639,0.34714 0.43584,0.60643c-0.06184,0.39529 -0.45106,0.5153 -0.45106,0.5153z" fill="#ca3713" stroke="#57002a" stroke-width="0.2" stroke-linecap="butt"/><path d="M227.65568,142.09483c0,0 0.75556,4.29974 1.05712,6.33864c0.28116,1.90092 0.69531,5.5098 0.69531,5.5098c0,0 0.68115,0.42687 0.92683,0.66407c0.19483,0.18812 0.43039,0.64635 0.43039,0.64635c0,0 -3.2456,-0.13522 -4.96477,-0.0829c-1.85809,0.05654 -5.79943,0.41051 -5.79943,0.41051c0,0 0.35289,-0.74496 0.59343,-1.07673c0.20672,-0.28513 0.7638,-0.7953 0.7638,-0.7953c0,0 3.64038,-8.43846 2.57405,-11.64043" fill="#291767" stroke="#140040" stroke-width="0.2" stroke-linecap="round"/><path d="M217.41506,157.25807c0,0 -0.11005,-0.47052 -0.0167,-1.43712c0.03352,-0.34706 0.28581,-0.93997 0.28581,-0.93997l8.88048,-0.0897c0,0 0.38075,0.42051 0.39894,1.22589c0.0177,0.7841 0.00473,1.33062 0.00473,1.33062c0,0 -3.28925,0.31843 -4.0814,0.32213c-1.67802,0.00783 -5.47185,-0.41183 -5.47185,-0.41183z" fill="#ca3713" stroke="#57002a" stroke-width="0.2" stroke-linecap="butt"/><path d="M225.12621,142.57911v-0.87138h2.2041v0.87138z" fill="#291767" stroke="none" stroke-width="0" stroke-linecap="butt"/><path d="M227.23449,142.43026l-0.65521,0.56162c0,0 -0.02283,4.49417 -0.07315,6.45673c-0.04161,1.62303 -0.20765,4.49469 -0.20765,4.49469c0,0 0.68114,0.42688 0.92682,0.66408c0.19483,0.18811 0.4304,0.64634 0.4304,0.64634c0,0 -3.2456,-0.13523 -4.96477,-0.08291c-1.85809,0.05654 -5.79943,0.41051 -5.79943,0.41051c0,0 0.3529,-0.74496 0.59343,-1.07673c0.20672,-0.28514 0.7638,-0.79531 0.7638,-0.79531c0,0 3.28157,-8.61787 4.72689,-11.70023" fill="#291767" stroke="#140040" stroke-width="0.2" stroke-linecap="round"/><path d="M217.06074,144.52814l0.14352,-1.93756l3.48042,0.68173l-0.10764,1.93756z" fill="#5d00ff" stroke="none" stroke-width="0" stroke-linecap="butt"/><path d="M220.44253,145.14406c0,0 0.17809,-0.2628 0.22576,-0.45344c0.04766,-0.19065 0.01344,-0.50338 0.01344,-0.50338c0,0 0.28491,0.11745 0.38157,0.15503c0.07927,0.03083 0.21644,0.17388 0.21644,0.17388c0,0 0.00961,0.51154 -0.11339,0.70551c-0.13502,0.21292 -0.66403,0.52042 -0.66403,0.52042c0,0 -1.54766,-0.51457 -2.25256,-0.67304c-0.53069,-0.1193 -1.60461,-0.19407 -1.60461,-0.19407c0,0 -0.42633,-1.13151 0.19734,-2.14089" fill="#5d00ff" stroke="#23006c" stroke-width="0.2" stroke-linecap="round"/><path d="M222.95007,142.11052c0,0 0.65271,-3.00621 0.5864,-4.60132c-0.00021,-0.00489 -0.51151,-0.78075 -0.72242,-1.33394c-0.21091,-0.55319 0.01821,-0.51305 0.01821,-0.51305c0,0 -0.86055,-0.14049 -0.95846,-0.56247c-0.14789,-0.6373 1.08695,-0.84639 1.69603,-0.88296c2.65531,-0.15948 3.84902,0.42404 3.84902,0.42404c0,0 0.7356,0.16009 0.72335,0.67387c-0.01187,0.49843 -0.56024,0.43517 -0.56024,0.43517c0,0 0.06547,0.82161 0.03538,1.20195c-0.02719,0.34365 -0.17549,0.98122 -0.17549,0.98122c0,0 0.21541,1.44658 0.28877,2.15324c0.07113,0.68516 0.11229,2.02425 0.11229,2.02425h-4.89282z" fill="#1093ab" stroke="#001a61" stroke-width="0.2" stroke-linecap="round"/><path d="M224.58102,135.75632l-0.03262,-1.33736l1.82665,0.03262l0.22833,1.46785z" fill="#3700ad" stroke="#23006c" stroke-width="0.2" stroke-linecap="butt"/><path d="M221.02663,130.79886c0,0 -0.10025,0.32719 -0.94616,0.33574c-0.84592,0.00855 -2.07547,-0.30521 -2.07547,-0.30521c0,0 0.81369,-0.90024 1.17791,-1.02121c0.31323,-0.10404 0.59233,-0.16913 0.59233,-0.16913c0,0 -0.37859,-0.22726 -0.64095,-0.73251c-0.17506,-0.33712 -0.12209,-0.48834 -0.12209,-0.48834l1.86181,-0.09156" fill="#3700ad" stroke="#23006c" stroke-width="0.2" stroke-linecap="round"/><path d="M227.26799,130.42009c0.9241,-0.04859 3.19365,0.48792 3.19365,0.48792c0,0 -0.17776,0.87433 -0.35744,1.28469c-0.30525,0.69709 -1.10631,1.02183 -1.10631,1.02183c0,0 0.3562,0.03458 0.54236,0.09902c0.19757,0.0684 0.6109,0.30019 0.6109,0.30019c0,0 -1.63632,0.99837 -3.50414,0.75406" data-paper-data="{&quot;index&quot;:null}" fill="#3700ad" stroke="#23006c" stroke-width="0.2" stroke-linecap="round"/><path d="M228.2689,130.28702c0,0 0.67971,1.78627 0.82008,2.70241c0.14055,0.91725 -0.06603,2.66469 -0.06603,2.66469c0,0 -1.25825,-1.46344 -1.58509,-2.32773c-0.33813,-0.89416 -0.203,-3.06177 -0.203,-3.06177" fill="#3700ad" stroke="#23006c" stroke-width="0.2" stroke-linecap="round"/><path d="M228.79225,131.37376c0,2.06651 -1.45824,3.43124 -3.47592,3.43124c-2.01768,0 -4.3187,-1.89702 -4.3187,-3.96352c0,-2.06651 1.63567,-3.74173 3.65335,-3.74173c2.01768,0 4.14127,2.20752 4.14127,4.27401z" fill="#5d00ff" stroke="#23006c" stroke-width="0.2" stroke-linecap="butt"/><path d="M220.74764,130.33138c0,0 0.35448,-1.66148 -0.04436,-1.64117c-0.70882,0.03609 -2.57266,1.55247 -2.57266,1.55247c0,0 0.25244,-7.23389 6.69778,-7.31877c9.45705,-0.12453 5.01225,7.05264 5.01225,7.05264c0,0 0.33173,0.0248 0.53663,-0.0191c0.20491,-0.04391 0.70535,-0.24703 0.70535,-0.24703c0,0 -0.33604,2.3752 -2.30411,2.09857" fill="#5d00ff" stroke="#23006c" stroke-width="0.2" stroke-linecap="round"/><path d="M221.54606,134.36779c-1.8678,0.24432 -3.50414,-0.75406 -3.50414,-0.75406c0,0 0.41333,-0.23178 0.61091,-0.30019c0.18617,-0.06444 0.54236,-0.09902 0.54236,-0.09902c0,0 -0.80109,-0.32473 -1.10633,-1.02182c-0.17968,-0.41036 -0.35744,-1.28469 -0.35744,-1.28469c0,0 2.26955,-0.53651 3.19364,-0.48792" fill="#3700ad" stroke="#23006c" stroke-width="0.2" stroke-linecap="round"/><path d="M225.75082,130.51522c0.02094,0.6144 0.41399,1.86461 -0.11336,2.4747c-0.53043,0.61366 -1.98269,0.58437 -2.45024,0.2246c-1.13045,-0.86981 -1.82339,-3.39644 0.97584,-3.32672c0,0 1.54854,0.61651 1.58776,0.6274z" fill="#ffffff" stroke="#23006c" stroke-width="0.2" stroke-linecap="round"/><path d="M223.94209,131.88385c0,0.62368 0.07272,1.1293 -0.22339,1.1293c-0.29609,0 -0.22339,-0.5056 -0.22339,-1.1293c0,-0.62368 -0.07272,-1.1293 0.22339,-1.1293c0.29609,0 0.22339,0.5056 0.22339,1.1293z" fill="#140040" stroke="#23006c" stroke-width="0" stroke-linecap="butt"/><path d="M228.42879,129.88781c0.02684,0.01121 0.36083,0.89494 0.28044,1.80994c-0.07623,0.86759 -0.56506,1.76947 -0.61156,1.76233c-0.44903,-0.06888 -0.89716,-0.18543 -1.14329,-0.47016c-0.52734,-0.6101 -0.1343,-1.8603 -0.11336,-2.4747c-0.02183,-0.0109 1.42873,-0.61661 1.58777,-0.6274z" data-paper-data="{&quot;index&quot;:null}" fill="#ffffff" stroke="#23006c" stroke-width="0.2" stroke-linecap="round"/><path d="M227.09002,130.75455c0.29609,0 0.22339,0.50559 0.22339,1.1293c0,0.6237 0.07271,1.1293 -0.22339,1.1293c-0.29609,0 -0.22339,-0.5056 -0.22339,-1.1293c0,-0.6237 -0.07272,-1.1293 0.22339,-1.1293z" data-paper-data="{&quot;index&quot;:null}" fill="#140040" stroke="#23006c" stroke-width="0" stroke-linecap="butt"/><path d="M227.75591,133.12583c0.66787,0.53848 0,1.59683 0,1.59683c0,0 -1.40061,0.51392 -2.41604,-0.00449c-0.18826,-0.09611 -0.13632,-1.3596 0.22778,-1.44573c0.83322,-0.19708 2.04207,-0.26447 2.18826,-0.14661z" fill="#ca3713" stroke="#57002a" stroke-width="0.2" stroke-linecap="round"/><path d="M227.6585,133.28293c0.53834,0.43405 0,1.28714 0,1.28714c0,0 -1.12896,0.41425 -1.94745,-0.00362c-0.15175,-0.07747 -0.1099,-1.09592 0.1836,-1.16533c0.67163,-0.15886 1.64602,-0.21319 1.76385,-0.11817z" fill="#ff9600" stroke="none" stroke-width="0" stroke-linecap="round"/><path d="M227.49164,134.54497c0,0 -0.78913,0.04766 -1.07741,-0.01312c-0.21556,-0.04545 -0.49843,-0.31916 -0.49843,-0.31916" fill="none" stroke="#57002a" stroke-width="0.2" stroke-linecap="round"/><path d="M225.18022,123.67577c0,0 1.47654,-0.42443 2.6206,0.03719c1.38092,0.55719 1.92581,1.75555 1.92581,1.75555c0,0 -0.84789,-0.68201 -2.10661,-1.24447c-1.09892,-0.49105 -2.43981,-0.54826 -2.43981,-0.54826z" fill="#8c38ff" stroke="none" stroke-width="0.5" stroke-linecap="butt"/><path d="M223.83078,136.21299l0.01766,-1.23327c0,0 0.66416,0.19299 1.19148,0.39669c0.50227,0.19402 0.84176,0.64983 0.84176,0.64983l-0.02855,0.67603" fill="#1093ab" stroke="none" stroke-width="0" stroke-linecap="round"/><path d="M225.62481,136.57178l0.16989,-0.78476c0,0 0.31341,-0.29561 0.69664,-0.46152c0.3042,-0.13169 0.73859,-0.2262 0.73859,-0.2262l-0.0068,1.60297" fill="#1093ab" stroke="none" stroke-width="0" stroke-linecap="round"/><path d="M223.84846,134.9797c0,0 0.66416,0.19299 1.19148,0.39669c0.50227,0.19402 0.84176,0.64983 0.84176,0.64983" fill="none" stroke="#001a61" stroke-width="0.2" stroke-linecap="round"/><path d="M225.79471,135.78701c0,0 0.31341,-0.29561 0.69664,-0.46152c0.3042,-0.13169 0.73859,-0.2262 0.73859,-0.2262" fill="none" stroke="#001a61" stroke-width="0.2" stroke-linecap="round"/><path d="M223.11674,134.82748c0,0 0.50549,2.15695 1.14016,2.62252c0.64267,0.47145 2.77979,0.28426 2.77979,0.33986c0,0.02742 0.13489,0.4234 0.15949,0.80775c0.02025,0.31639 -0.06894,0.63648 -0.06894,0.63648c0,0 -0.64832,-0.19668 -1.12879,-0.19632c-0.56358,0.00043 -1.92669,0.30862 -1.92669,0.30862c0,0 -0.33602,-0.35023 -0.39735,-0.64046c-0.15575,-0.73694 -0.55768,-3.87848 -0.55768,-3.87848z" fill="#54debe" stroke="none" stroke-width="0.5" stroke-linecap="butt"/><path d="M224.93983,136.04341c0.34214,1.12945 0.22833,1.95713 0.22833,1.95713" fill="none" stroke="#001a61" stroke-width="0.2" stroke-linecap="round"/><path d="M226.76648,136.04342c0.34215,1.12944 0.22833,1.95713 0.22833,1.95713" fill="none" stroke="#001a61" stroke-width="0.2" stroke-linecap="round"/><path d="M223.76896,137.22225c-0.07403,4.77527 -1.79404,6.96683 -1.79404,6.96683c0,0 -1.51075,-0.03203 -2.8384,-0.45586c-1.61491,-0.51554 -2.87261,-1.21857 -2.87261,-1.21857c0,0 2.43028,-4.55075 6.84723,-7.83395" fill="#54debe" stroke="#001a61" stroke-width="0.2" stroke-linecap="round"/><path d="M221.76783,130.28702c0,0 0.67971,1.78627 0.82008,2.70241c0.14055,0.91725 -0.06603,2.66469 -0.06603,2.66469c0,0 -1.25825,-1.46344 -1.58509,-2.32773c-0.33813,-0.89416 -0.20301,-3.06177 -0.20301,-3.06177" fill="#5d00ff" stroke="#23006c" stroke-width="0.2" stroke-linecap="round"/><path d="M224.22679,141.72331c0,0 0.30274,-0.57511 0.30274,-1.04278c0,-0.51812 -0.20183,-0.97551 -0.20183,-0.97551c0,0 0.86068,-0.32923 1.91737,-0.26911c0.70083,0.03988 1.07642,0.26911 1.07642,0.26911c0,0 0.15479,0.38913 0.16819,0.87459c0.01289,0.46696 -0.06727,1.21097 -0.06727,1.21097c0,0 -0.5544,-0.17938 -1.24462,-0.20183c-0.70616,-0.02295 -1.95101,0.13456 -1.95101,0.13456z" fill="#54debe" stroke="none" stroke-width="0" stroke-linecap="butt"/><path d="M224.47324,142.63686c1.60427,0.21689 1.64935,3.54453 1.2498,6.45121c-0.31796,2.3132 -0.8286,4.3598 -0.8286,4.3598c0,0 0.6711,0.44891 0.90478,0.68966c0.29952,0.3086 0.8848,0.77545 0.8848,0.77545c0,0 -2.6609,-0.15901 -4.03625,-0.19222c-1.40461,-0.03393 -4.58626,0.31835 -4.58626,0.31835c0,0 0.54183,-0.95317 0.91952,-1.32657c0.3144,-0.31082 1.19177,-0.76075 1.19177,-0.76075c0,0 0.19617,-2.21261 0.84602,-4.58904c0.77567,-2.83655 2.11821,-5.90653 3.45441,-5.72588z" fill="#574080" stroke="none" stroke-width="0" stroke-linecap="round"/><path d="M222.74159,150.72956l-1.21682,-1.02962c0,0 0.89933,0.1733 1.40441,0.16587c0.55164,-0.00811 1.77807,-0.21267 1.77807,-0.21267z" fill="#291767" stroke="none" stroke-width="0" stroke-linecap="butt"/><path d="M216.69291,156.86408c0.01815,-0.52686 0.30247,-0.74277 0.30247,-0.74277c0,0 3.90124,-0.60869 6.56104,-0.65995c1.29692,-0.02499 3.178,0.30754 3.178,0.30754c0,0 0.20654,0.32387 0.2189,0.71636c0.01793,0.56951 -0.06512,0.97516 -0.06512,0.97516c0,0 -2.2395,0.26092 -4.04939,0.35881c-2.30174,0.12449 -6.04847,-0.15378 -6.04847,-0.15378c0,0 -0.11395,-0.32244 -0.09745,-0.80136z" fill="#ff9600" stroke="#57002a" stroke-width="0.2" stroke-linecap="butt"/><path d="M224.32471,139.7931c0,0 0.12271,-0.09494 0.1989,-0.12425c0.07311,-0.02812 0.28386,-0.08265 0.28386,-0.08265" fill="none" stroke="#001a61" stroke-width="0.2" stroke-linecap="round"/><path d="M225.52689,139.44329c0,0 0.31695,-0.06502 0.52231,-0.06389c0.20535,0.00113 0.40365,0.06897 0.40365,0.06897" fill="none" stroke="#001a61" stroke-width="0.2" stroke-linecap="round"/><path d="M226.93561,139.62077c0,0 0.18825,0.05361 0.29782,0.11205c0.10957,0.05844 0.21942,0.16381 0.21942,0.16381" fill="none" stroke="#001a61" stroke-width="0.2" stroke-linecap="round"/></g><path d="M223.25,2.74417v-8.5h33.5v8.5z" fill="none" stroke="none" stroke-width="0" stroke-linecap="butt"/></g></g></svg>