<svg version="1.1" xmlns="http://www.w3.org/2000/svg" xmlns:xlink="http://www.w3.org/1999/xlink" width="149.69226" height="149.69226" viewBox="0,0,149.69226,149.69226"><defs><radialGradient cx="239.53766" cy="180.43306" r="63.24806" gradientUnits="userSpaceOnUse" id="color-1"><stop offset="0" stop-color="#1d3944"/><stop offset="1" stop-color="#1d3944" stop-opacity="0"/></radialGradient><radialGradient cx="239.93098" cy="180.48265" r="53.263" gradientUnits="userSpaceOnUse" id="color-2"><stop offset="0" stop-color="#22944e"/><stop offset="1" stop-color="#22944e" stop-opacity="0"/></radialGradient></defs><g transform="translate(-165.17045,-105.17045)"><g data-paper-data="{&quot;isPaintingLayer&quot;:true}" fill-rule="nonzero" stroke-width="0" stroke-linejoin="miter" stroke-miterlimit="10" stroke-dasharray="" stroke-dashoffset="0" style="mix-blend-mode: normal"><g><path d="M165.17045,180.01658c0,-41.33638 33.50975,-74.84613 74.84613,-74.84613c41.33638,0 74.84613,33.50975 74.84613,74.84613c0,41.33638 -33.50975,74.84613 -74.84613,74.84613c-41.33638,0 -74.84613,-33.50975 -74.84613,-74.84613z" fill="#4f5268" stroke="none" stroke-linecap="butt"/><path d="M172.1182,180.64806c0,-37.49924 30.39913,-67.89838 67.89838,-67.89838c37.49924,0 67.89841,30.39913 67.89841,67.89838c0,37.49924 -30.39916,67.89841 -67.89838,67.89841c-37.49924,0 -67.89838,-30.39913 -67.89838,-67.89838z" fill="#00050a" stroke="none" stroke-linecap="butt"/><path d="M176.2896,180.43306c0,-34.93094 28.31712,-63.24806 63.24806,-63.24806c34.93094,0 63.24806,28.31712 63.24806,63.24806c0,34.93094 -28.31712,63.24806 -63.24806,63.24806c-34.93094,0 -63.24806,-28.31712 -63.24806,-63.24806z" fill="url(#color-1)" stroke="none" stroke-linecap="butt"/><g fill="#1d3944" stroke="none" stroke-linecap="butt"><path d="M201.27648,219.21463v-76.00177h76.00177v76.00177z"/><path d="M185.536,181.21379l53.74136,-53.74136l53.74136,53.74136l-53.74136,53.74136z"/><path d="M190.59036,203.96707l25.9338,-71.44024l71.44024,25.9338l-25.93377,71.44024z"/><path d="M188.76149,162.87578l68.85385,-32.17791l32.17791,68.85385l-68.85385,32.17791z"/></g><path d="M247.22629,193.58262l-65.85719,19.64163l50.06688,-44.67506l58.50391,-15.61545z" fill="url(#color-2)" stroke="#000000" stroke-linecap="round"/><path d="M198.69438,205.02013l50.43815,-35.78382h12.60956l-6.13436,10.22396z" fill="#013a2e" stroke="#000000" stroke-linecap="round"/><path d="M221.86867,190.70661l33.05744,-22.83349l27.26389,-10.56473l-22.83349,18.40309z" fill="#85ef92" stroke="#000000" stroke-linecap="round"/></g><path d="M299.00913,188.00193h-28.25489v-16.48202h28.25489z" fill="#b3b3b3" stroke="none" stroke-linecap="butt"/><path d="M305.04179,188.00192h-28.25489v-16.48202h28.25489z" fill="#ffffff" stroke="none" stroke-linecap="butt"/><path d="M182.25297,171.51991h28.25489v16.48202h-28.25489z" fill="#b3b3b3" stroke="none" stroke-linecap="butt"/><path d="M176.22031,171.5199h28.25489v16.48202h-28.25489z" fill="#ffffff" stroke="none" stroke-linecap="butt"/><path d="M232.39003,238.139l0,-28.25489h16.48202l0,28.25489z" fill="#b3b3b3" stroke="none" stroke-linecap="butt"/><path d="M232.39004,244.17166l0,-28.25489l16.48202,0l0,28.25489z" fill="#ffffff" stroke="none" stroke-linecap="butt"/><path d="M248.87205,121.38283v28.25489h-16.48202l0,-28.25489z" fill="#b3b3b3" stroke="none" stroke-linecap="butt"/><path d="M248.87206,115.35017v28.25489l-16.48202,0l0,-28.25489z" fill="#ffffff" stroke="none" stroke-linecap="butt"/></g></g></svg>