<svg version="1.1" xmlns="http://www.w3.org/2000/svg" xmlns:xlink="http://www.w3.org/1999/xlink" width="24.72222" height="30.55556" viewBox="0,0,24.72222,30.55556"><g transform="translate(-227.63889,-163.72222)"><g data-paper-data="{&quot;isPaintingLayer&quot;:true}" fill-rule="nonzero" stroke-linejoin="miter" stroke-miterlimit="10" stroke-dasharray="" stroke-dashoffset="0" style="mix-blend-mode: normal"><path d="M239.82895,185.72979c0,0 -2.80262,1.35793 -2.78672,1.4145c0.35861,1.27639 2.62937,2.37255 2.62937,2.37255c0,0 -0.80622,0.19729 -1.57869,0.20352c-0.75266,0.00607 -2.26746,-0.24045 -2.26746,-0.24045c0,0 -2.17113,-1.66541 -1.63985,-2.73383c0.53128,-1.06842 4.02796,-2.06875 4.02796,-2.06875" fill="#291767" stroke="#140040" stroke-width="0.2" stroke-linecap="round"/><path d="M241.78644,184.67735c0,0 3.49668,1.00033 4.02796,2.06875c0.53128,1.06842 -1.63985,2.73383 -1.63985,2.73383c0,0 -1.5148,0.24652 -2.26746,0.24045c-0.77247,-0.00623 -1.57869,-0.20352 -1.57869,-0.20352c0,0 2.27076,-1.09616 2.62937,-2.37255c0.0159,-0.05657 -2.78672,-1.4145 -2.78672,-1.4145" data-paper-data="{&quot;index&quot;:null}" fill="#291767" stroke="#140040" stroke-width="0.2" stroke-linecap="round"/><path d="M236.91412,190.36986c-0.80623,0.03827 -2.09134,0.04368 -2.09134,0.04368c0,0 -0.16642,-0.24326 -0.16642,-0.42711c0,-0.18384 0.16642,-0.46635 0.16642,-0.46635c0,0 1.16112,-0.21486 2.32434,-0.25274h0.17198c1.1632,0.03788 2.32434,0.25274 2.32434,0.25274c0,0 0.16642,0.28252 0.16642,0.46635c0,0.18384 -0.16642,0.42711 -0.16642,0.42711c0,0 -1.28511,-0.00541 -2.09135,-0.04368z" data-paper-data="{&quot;index&quot;:null}" fill="#ff9600" stroke="#57002a" stroke-width="0.2" stroke-linecap="round"/><path d="M242.44791,190.36986c-0.80624,0.03828 -2.09135,0.04368 -2.09135,0.04368c0,0 -0.16642,-0.24326 -0.16642,-0.42711c0,-0.18384 0.16642,-0.46635 0.16642,-0.46635c0,0 1.16114,-0.21486 2.32434,-0.25274h0.17198c1.16322,0.03788 2.32434,0.25274 2.32434,0.25274c0,0 0.16642,0.28252 0.16642,0.46635c0,0.18384 -0.16642,0.42711 -0.16642,0.42711c0,0 -1.28511,-0.00542 -2.09134,-0.04368z" data-paper-data="{&quot;index&quot;:null}" fill="#ff9600" stroke="#57002a" stroke-width="0.2" stroke-linecap="round"/><path d="M241.78825,180.80148c0,0 1.29278,0.36317 1.30769,1.03846c0.02578,1.1676 -1.07693,1.23077 -1.07693,1.23077l0.42308,2.59091h-4.88417l0.42308,-2.59091c0,0 -1.10272,-0.06317 -1.07693,-1.23077c0.01491,-0.67529 1.30769,-1.03846 1.30769,-1.03846" fill="#54debe" stroke="#001a61" stroke-width="0.2" stroke-linecap="round"/><path d="M242.62981,181.20292c0,1.20945 -1.1774,2.18991 -2.62981,2.18991c-1.4524,0 -2.62981,-0.98046 -2.62981,-2.18991c0,-1.20945 1.1774,-2.1899 2.62981,-2.1899c1.4524,0 2.62981,0.98045 2.62981,2.1899z" fill="#1093ab" stroke="none" stroke-width="0" stroke-linecap="butt"/><g stroke-width="0.2"><path d="M234.16663,171.15239c0.89149,-0.43916 1.47928,-0.24106 1.95639,0.65936c0.47712,0.90041 0.33864,1.34807 -0.55285,1.78723c-0.89149,0.43916 -1.47929,0.24106 -1.95641,-0.65936c-0.47712,-0.90041 -0.33864,-1.34808 0.55287,-1.78722z" fill="#5d00ff" stroke="#23006c" stroke-linecap="butt"/><path d="M236.10922,176.69598c0,0 -1.72323,-2.26929 -1.82911,-2.32661c-1.17064,-0.6339 -0.86294,-1.09765 -0.86294,-1.09765l3.11925,-1.17576c0,0 1.21606,0.54111 0.31457,1.41041c-0.0523,0.05043 0.71416,3.20198 0.71416,3.20198" fill="#54debe" stroke="#001a61" stroke-linecap="round"/></g><g data-paper-data="{&quot;index&quot;:null}" stroke-width="0.2"><path d="M245.83337,171.1524c0.89151,0.43914 1.02999,0.88681 0.55287,1.78722c-0.47712,0.90041 -1.06492,1.09851 -1.95641,0.65936c-0.89149,-0.43916 -1.02997,-0.88681 -0.55285,-1.78723c0.47711,-0.90042 1.06489,-1.09852 1.95639,-0.65936z" fill="#5d00ff" stroke="#23006c" stroke-linecap="butt"/><path d="M242.43485,176.70835c0,0 0.76645,-3.15155 0.71416,-3.20198c-0.90149,-0.8693 0.31457,-1.41041 0.31457,-1.41041l3.11925,1.17576c0,0 0.30771,0.46375 -0.86294,1.09765c-0.10588,0.05732 -1.82911,2.32661 -1.82911,2.32661" fill="#54debe" stroke="#001a61" stroke-linecap="round"/></g><path d="M237.38463,181.35392c-2.28531,-0.17413 -3.03846,-1.53846 -3.03846,-1.53846l1.15384,-0.23077c0,0 -0.64697,-0.41777 -0.92534,-0.8552c-0.27837,-0.43744 -0.42082,-1.26018 -0.42082,-1.26018l2.46154,-0.03846" fill="#3700ad" stroke="#23006c" stroke-width="0.2" stroke-linecap="round"/><path d="M243.38462,177.43085l2.46154,0.03846c0,0 -0.14245,0.82274 -0.42082,1.26018c-0.27837,0.43743 -0.92534,0.8552 -0.92534,0.8552l1.15384,0.23077c0,0 -0.75315,1.36433 -3.03846,1.53846" data-paper-data="{&quot;index&quot;:null}" fill="#3700ad" stroke="#23006c" stroke-width="0.2" stroke-linecap="round"/><path d="M240.11619,172.79546c0,0 2.26276,0.53934 3.15245,2.08c0.78994,1.36791 0.23986,3.4 0.23986,3.4c0,0 0.63627,2.07264 0.10279,3.12c-0.53348,1.04736 -2.56993,1.44 -2.56993,1.44h-2.0827c0,0 -2.03645,-0.39264 -2.56993,-1.44c-0.53348,-1.04736 0.10279,-3.12 0.10279,-3.12c0,0 -0.55008,-2.03209 0.23986,-3.4c0.8897,-1.54067 3.15245,-2.08 3.15245,-2.08z" fill="#5d00ff" stroke="#23006c" stroke-width="0.2" stroke-linecap="round"/><path d="M238.53986,179.3419c0,0 -0.50015,-1.14963 -0.24254,-1.84c0.25761,-0.69037 1.60077,-1.8 1.60077,-1.8h0.07179c0,0 1.34316,1.10963 1.60077,1.8c0.25761,0.69037 -0.24254,1.84 -0.24254,1.84" data-paper-data="{&quot;index&quot;:null}" fill="none" stroke="#23006c" stroke-width="0.2" stroke-linecap="round"/><path d="M238.25681,180.16129c0.16618,-0.16037 0.43559,-0.16037 0.60177,0c0.16618,0.16037 0.16618,2.26686 0,2.42723c-0.16618,0.16037 -0.43559,0.16037 -0.60177,0c-0.16618,-0.16037 -0.16618,-2.26686 0,-2.42723z" fill="#140040" stroke="none" stroke-width="0" stroke-linecap="butt"/><path d="M241.14143,180.16129c0.16618,-0.16037 0.43559,-0.16037 0.60177,0c0.16618,0.16037 0.16618,2.26686 0,2.42723c-0.16618,0.16037 -0.43559,0.16037 -0.60177,0c-0.16618,-0.16037 -0.16618,-2.26686 0,-2.42723z" fill="#140040" stroke="none" stroke-width="0" stroke-linecap="butt"/><path d="M239.80265,183.75556c-0.49881,0.05758 -1.29391,-0.34686 -1.29391,-0.34686c0,0 -0.10297,-0.36595 -0.10297,-0.64252c0,-0.27657 0.10297,-0.70155 0.10297,-0.70155c0,0 0.71839,-0.32322 1.43806,-0.38021h0.1064c0.71967,0.05699 1.43806,0.38021 1.43806,0.38021c0,0 0.10297,0.42499 0.10297,0.70155c0,0.27657 -0.10297,0.64252 -0.10297,0.64252c0,0 -0.79509,0.40444 -1.29391,0.34686z" data-paper-data="{&quot;index&quot;:null}" fill="#ff9600" stroke="#57002a" stroke-width="0.2" stroke-linecap="round"/><path d="M243.422,179.10742c1.32672,1.36918 -0.07693,4.88462 -0.07693,4.88462c0,0 -1.20986,-2.59237 -0.84615,-4.11539" fill="#5d00ff" stroke="#23006c" stroke-width="0.2" stroke-linecap="round"/><path d="M237.50109,179.87665c0.36371,1.52302 -0.84615,4.11539 -0.84615,4.11539c0,0 -1.40365,-3.51544 -0.07693,-4.88462" data-paper-data="{&quot;index&quot;:null}" fill="#5d00ff" stroke="#23006c" stroke-width="0.2" stroke-linecap="round"/><path d="M227.63889,194.27778v-30.55556h24.72222v30.55556z" fill="none" stroke="none" stroke-width="0" stroke-linecap="butt"/></g></g></svg>