<svg version="1.1" xmlns="http://www.w3.org/2000/svg" xmlns:xlink="http://www.w3.org/1999/xlink" width="69.00001" height="4.33333" viewBox="0,0,69.00001,4.33333"><defs><linearGradient x1="199.11111" y1="180.00001" x2="266.33333" y2="180.00001" gradientUnits="userSpaceOnUse" id="color-1"><stop offset="0" stop-color="#0c557d"/><stop offset="1" stop-color="#3abf84"/></linearGradient><linearGradient x1="213.66667" y1="180.00001" x2="266.33333" y2="180.00001" gradientUnits="userSpaceOnUse" id="color-2"><stop offset="0" stop-color="#2bb87d"/><stop offset="1" stop-color="#bfffbf"/></linearGradient><linearGradient x1="225" y1="180.00001" x2="266.33333" y2="180.00001" gradientUnits="userSpaceOnUse" id="color-3"><stop offset="0" stop-color="#bfffbf"/><stop offset="1" stop-color="#e3ffdd"/></linearGradient></defs><g transform="translate(-197.33332,-177.83334)"><g data-paper-data="{&quot;isPaintingLayer&quot;:true}" fill-rule="nonzero" stroke="none" stroke-width="0" stroke-linecap="round" stroke-linejoin="miter" stroke-miterlimit="10" stroke-dasharray="" stroke-dashoffset="0" style="mix-blend-mode: normal"><path d="M266.33333,180.05557l-19.15448,2.11111l-48.06775,-2.11111v-0.11111l48.06775,-2.11111l19.15448,2.11111z" data-paper-data="{&quot;index&quot;:null}" fill="url(#color-1)"/><path d="M266.33333,180.05557l-17.44444,2.11111l-35.22223,-2.11111v-0.11111l35.22223,-2.11111l17.44444,2.11111z" data-paper-data="{&quot;index&quot;:null}" fill="url(#color-2)"/><path d="M266.33333,180.02708l-13.69058,1.02849l-27.64275,-1.02849v-0.05413l27.64275,-1.02849l13.69058,1.02849z" data-paper-data="{&quot;index&quot;:null}" fill="url(#color-3)"/><path d="M213.25636,179.56842l-3.39304,0.48718l-9.08555,-0.48718v-0.02564l9.08555,-0.48718l3.39304,0.48718z" data-paper-data="{&quot;index&quot;:null}" fill="#0c557d"/><path d="M207.79267,180.62448l-2.84399,0.40835l-7.61536,-0.40835v-0.02149l7.61536,-0.40835l2.84399,0.40835z" data-paper-data="{&quot;index&quot;:null}" fill="#0c557d"/></g></g></svg>