<svg version="1.1" xmlns="http://www.w3.org/2000/svg" xmlns:xlink="http://www.w3.org/1999/xlink" width="171.2" height="171.2" viewBox="0,0,171.2,171.2"><g transform="translate(-154.4,-94.4)"><g data-paper-data="{&quot;isPaintingLayer&quot;:true}" fill-rule="nonzero" stroke="none" stroke-width="0" stroke-linecap="butt" stroke-linejoin="miter" stroke-miterlimit="10" stroke-dasharray="" stroke-dashoffset="0" style="mix-blend-mode: normal"><path d="M154.4,265.6v-171.2h171.2v171.2z" fill="none"/><path d="M231.55556,180c0,-4.66374 3.7807,-8.44444 8.44444,-8.44444c4.66374,0 8.44444,3.7807 8.44444,8.44444c0,4.66374 -3.7807,8.44444 -8.44444,8.44444c-4.66374,0 -8.44444,-3.7807 -8.44444,-8.44444z" fill="#0e0066"/><path d="M233.0171,180c0,-3.85655 3.12635,-6.9829 6.9829,-6.9829c3.85655,0 6.9829,3.12635 6.9829,6.9829c0,3.85655 -3.12635,6.9829 -6.9829,6.9829c-3.85655,0 -6.9829,-3.12635 -6.9829,-6.9829z" fill="#00168e"/><path d="M235.32479,180c0,-2.58205 2.09316,-4.67521 4.67521,-4.67521c2.58205,0 4.67521,2.09316 4.67521,4.67521c0,2.58205 -2.09316,4.67521 -4.67521,4.67521c-2.58205,0 -4.67521,-2.09316 -4.67521,-4.67521z" fill="#0c3f9e"/></g></g></svg>