<svg version="1.1" xmlns="http://www.w3.org/2000/svg" xmlns:xlink="http://www.w3.org/1999/xlink" width="24.72222" height="30.55556" viewBox="0,0,24.72222,30.55556"><g transform="translate(-227.63889,-163.72222)"><g data-paper-data="{&quot;isPaintingLayer&quot;:true}" fill-rule="nonzero" stroke-linejoin="miter" stroke-miterlimit="10" stroke-dasharray="" stroke-dashoffset="0" style="mix-blend-mode: normal"><path d="M241.78825,180.39239c0,0 1.29278,0.36317 1.30769,1.03846c0.02578,1.1676 -1.07693,1.23077 -1.07693,1.23077l0.42308,2.59091h-4.88417l0.42308,-2.59091c0,0 -1.10272,-0.06317 -1.07693,-1.23077c0.01491,-0.67529 1.30769,-1.03846 1.30769,-1.03846" fill="#54debe" stroke="#001a61" stroke-width="0.2" stroke-linecap="round"/><path d="M242.62981,180.79383c0,1.20945 -1.1774,2.18991 -2.62981,2.18991c-1.4524,0 -2.62981,-0.98046 -2.62981,-2.18991c0,-1.20945 1.1774,-2.1899 2.62981,-2.1899c1.4524,0 2.62981,0.98045 2.62981,2.1899z" fill="#1093ab" stroke="none" stroke-width="0" stroke-linecap="butt"/><path d="M237.38463,180.35392c-2.28531,-0.17413 -3.03846,-1.53846 -3.03846,-1.53846l1.15384,-0.23077c0,0 -0.64697,-0.41777 -0.92534,-0.8552c-0.27837,-0.43744 -0.42082,-1.26018 -0.42082,-1.26018l2.46154,-0.03846" fill="#3700ad" stroke="#23006c" stroke-width="0.2" stroke-linecap="round"/><path d="M243.38462,176.43085l2.46154,0.03846c0,0 -0.14245,0.82274 -0.42082,1.26018c-0.27837,0.43743 -0.92534,0.8552 -0.92534,0.8552l1.15384,0.23077c0,0 -0.75315,1.36433 -3.03846,1.53846" data-paper-data="{&quot;index&quot;:null}" fill="#3700ad" stroke="#23006c" stroke-width="0.2" stroke-linecap="round"/><path d="M240.11619,171.79546c0,0 2.26276,0.53934 3.15245,2.08c0.78994,1.36791 0.23986,3.4 0.23986,3.4c0,0 0.63627,2.07264 0.10279,3.12c-0.53348,1.04736 -2.56993,1.44 -2.56993,1.44h-2.0827c0,0 -2.03645,-0.39264 -2.56993,-1.44c-0.53348,-1.04736 0.10279,-3.12 0.10279,-3.12c0,0 -0.55008,-2.03209 0.23986,-3.4c0.8897,-1.54067 3.15245,-2.08 3.15245,-2.08z" fill="#5d00ff" stroke="#23006c" stroke-width="0.2" stroke-linecap="round"/><path d="M238.53986,177.93281c0,0 -0.50015,-1.14963 -0.24254,-1.84c0.25761,-0.69037 1.60077,-1.8 1.60077,-1.8h0.07179c0,0 1.34316,1.10963 1.60077,1.8c0.25761,0.69037 -0.24254,1.84 -0.24254,1.84" data-paper-data="{&quot;index&quot;:null}" fill="none" stroke="#23006c" stroke-width="0.2" stroke-linecap="round"/><path d="M238.25681,178.79765c0.16618,-0.16037 0.43559,-0.16037 0.60177,0c0.16618,0.16037 0.16618,2.26686 0,2.42723c-0.16618,0.16037 -0.43559,0.16037 -0.60177,0c-0.16618,-0.16037 -0.16618,-2.26686 0,-2.42723z" fill="#140040" stroke="none" stroke-width="0" stroke-linecap="butt"/><path d="M241.14143,178.79765c0.16618,-0.16037 0.43559,-0.16037 0.60177,0c0.16618,0.16037 0.16618,2.26686 0,2.42723c-0.16618,0.16037 -0.43559,0.16037 -0.60177,0c-0.16618,-0.16037 -0.16618,-2.26686 0,-2.42723z" fill="#140040" stroke="none" stroke-width="0" stroke-linecap="butt"/><path d="M239.80265,182.70925c-0.49881,0.0664 -1.29391,-0.4 -1.29391,-0.4c0,0 -0.10297,-0.42202 -0.10297,-0.74096c0,-0.31894 0.10297,-0.80904 0.10297,-0.80904c0,0 0.71839,-0.37274 1.43806,-0.43846h0.1064c0.71967,0.06572 1.43806,0.43846 1.43806,0.43846c0,0 0.10297,0.4901 0.10297,0.80904c0,0.31894 -0.10297,0.74096 -0.10297,0.74096c0,0 -0.79509,0.4664 -1.29391,0.4z" data-paper-data="{&quot;index&quot;:null}" fill="#ff9600" stroke="#57002a" stroke-width="0.2" stroke-linecap="round"/><path d="M243.422,178.10742c1.32672,1.36918 -0.07693,4.88462 -0.07693,4.88462c0,0 -1.20986,-2.59237 -0.84615,-4.11539" fill="#5d00ff" stroke="#23006c" stroke-width="0.2" stroke-linecap="round"/><path d="M237.50109,178.87665c0.36371,1.52302 -0.84615,4.11539 -0.84615,4.11539c0,0 -1.40365,-3.51544 -0.07693,-4.88462" data-paper-data="{&quot;index&quot;:null}" fill="#5d00ff" stroke="#23006c" stroke-width="0.2" stroke-linecap="round"/><g stroke-width="0.2"><path d="M236.97652,180.42174c0.99376,0.00717 1.43034,0.44778 1.45309,1.46654c0.02276,1.01876 -0.30173,1.35681 -1.29549,1.34964c-0.99376,-0.00717 -1.43035,-0.44778 -1.45311,-1.46654c-0.02276,-1.01876 0.30173,-1.35682 1.29551,-1.34963z" fill="#5d00ff" stroke="#23006c" stroke-linecap="butt"/><path d="M236.22739,186.24787c0,0 -0.52286,-2.80104 -0.5918,-2.89974c-0.76217,-1.09148 -0.2792,-1.36805 -0.2792,-1.36805l3.31532,0.34758c0,0 0.84436,1.0289 -0.35119,1.40174c-0.06936,0.02163 -0.79728,3.1823 -0.79728,3.1823" fill="#54debe" stroke="#001a61" stroke-linecap="round"/></g><g data-paper-data="{&quot;index&quot;:null}" stroke-width="0.2"><path d="M243.02349,180.42174c0.99377,-0.00719 1.31827,0.33087 1.29551,1.34963c-0.02276,1.01876 -0.45935,1.45937 -1.45311,1.46654c-0.99376,0.00717 -1.31825,-0.33089 -1.29549,-1.34964c0.02275,-1.01876 0.45933,-1.45937 1.45309,-1.46654z" fill="#5d00ff" stroke="#23006c" stroke-linecap="butt"/><path d="M242.47676,186.9117c0,0 -0.72793,-3.16067 -0.79728,-3.1823c-1.19556,-0.37284 -0.35119,-1.40174 -0.35119,-1.40174l3.31532,-0.34758c0,0 0.48297,0.27656 -0.2792,1.36805c-0.06894,0.09871 -0.5918,2.89974 -0.5918,2.89974" fill="#54debe" stroke="#001a61" stroke-linecap="round"/></g><path d="M227.63889,194.27778v-30.55556h24.72222v30.55556z" fill="none" stroke="none" stroke-width="0" stroke-linecap="butt"/><g stroke-width="0.2" stroke-linecap="round"><path d="M238.62278,183.90172c0.35861,1.3298 0.99301,3.0979 0.99301,3.0979c0,0 -0.80622,0.20555 -1.57869,0.21204c-0.75266,0.00633 -2.26746,-0.2505 -2.26746,-0.2505c0,0 -0.92113,-2.92083 -0.45803,-3.42308c0.03591,-0.03895 2.04342,-0.84934 2.84615,-0.08042" fill="#291767" stroke="#140040"/><path d="M237.24704,188.05394c-0.68534,0.04293 -1.77776,0.04901 -1.77776,0.04901c0,0 -0.14147,-0.27292 -0.14147,-0.47917c0,-0.20625 0.14147,-0.5232 0.14147,-0.5232c0,0 0.98702,-0.24105 1.97582,-0.28355h0.14619c0.98879,0.0425 1.97582,0.28355 1.97582,0.28355c0,0 0.14147,0.31695 0.14147,0.5232c0,0.20625 -0.14147,0.47917 -0.14147,0.47917c0,0 -1.09242,-0.00607 -1.77777,-0.04901z" data-paper-data="{&quot;index&quot;:null}" fill="#ff9600" stroke="#57002a"/></g><g data-paper-data="{&quot;index&quot;:null}" stroke-width="0.2" stroke-linecap="round"><path d="M241.84224,183.45766c0.80273,-0.76892 2.81024,0.04147 2.84615,0.08042c0.4631,0.50225 -0.45803,3.42308 -0.45803,3.42308c0,0 -1.5148,0.25683 -2.26746,0.2505c-0.77247,-0.00649 -1.57869,-0.21204 -1.57869,-0.21204c0,0 0.6344,-1.7681 0.99301,-3.0979" fill="#291767" stroke="#140040"/><path d="M242.21066,188.05394c-0.68535,0.04294 -1.77777,0.04901 -1.77777,0.04901c0,0 -0.14147,-0.27292 -0.14147,-0.47917c0,-0.20625 0.14147,-0.5232 0.14147,-0.5232c0,0 0.98703,-0.24105 1.97582,-0.28355h0.14619c0.9888,0.0425 1.97582,0.28355 1.97582,0.28355c0,0 0.14147,0.31695 0.14147,0.5232c0,0.20625 -0.14147,0.47917 -0.14147,0.47917c0,0 -1.09242,-0.00608 -1.77776,-0.04901z" data-paper-data="{&quot;index&quot;:null}" fill="#ff9600" stroke="#57002a"/></g><path d="M240,192.52282l-2.54564,-2.54564h5.09129z" fill="#ffffff" stroke="none" stroke-width="0.2" stroke-linecap="butt"/></g></g></svg>