<svg version="1.1" xmlns="http://www.w3.org/2000/svg" xmlns:xlink="http://www.w3.org/1999/xlink" width="28.37656" height="6.335" viewBox="0,0,28.37656,6.335"><g transform="translate(-229.5883,-176.8325)"><g data-paper-data="{&quot;isPaintingLayer&quot;:true}" fill-rule="nonzero" stroke-linecap="butt" stroke-linejoin="miter" stroke-miterlimit="10" stroke-dasharray="" stroke-dashoffset="0" style="mix-blend-mode: normal"><path d="M229.89384,179.47934l24.86702,0.17478l0.54736,0.33396l-0.54524,0.34037l-24.86542,0.33096c0,0 -0.30842,-0.35267 -0.30926,-0.6247c-0.00086,-0.27206 0.30555,-0.55538 0.30555,-0.55538z" fill="#541b94" stroke="#19105a" stroke-width="0.2"/><g><path d="M251.98054,176.8325l5.66873,1.58535c-0.03625,0.91475 0.03633,1.83784 0.08149,2.75266c0.00467,0.09462 0.01167,0.21195 0.0209,0.34955l-5.75123,1.64744l4.97281,-3.18315z" fill="#c0f9ff" stroke="none" stroke-width="0"/><path d="M255.33444,178.51846l2.30835,0.7477c0.00919,0.47097 0.03595,0.94278 0.06191,1.4132l-2.36102,0.78119l1.9961,-1.47733z" fill="#7ad1ee" stroke="#649bd4" stroke-width="0.5"/><path d="M255.33444,178.51846l2.30835,0.7477c0.00919,0.47097 0.03595,0.94278 0.06191,1.4132l-2.36102,0.78119l1.9961,-1.47733z" fill="#1b3a94" stroke="none" stroke-width="0"/></g></g></g></svg>