<svg version="1.1" xmlns="http://www.w3.org/2000/svg" xmlns:xlink="http://www.w3.org/1999/xlink" width="93.4" height="93.4" viewBox="0,0,93.4,93.4"><g transform="translate(-193.3,-133.3)"><g data-paper-data="{&quot;isPaintingLayer&quot;:true}" fill-rule="nonzero" stroke-linejoin="miter" stroke-miterlimit="10" stroke-dasharray="" stroke-dashoffset="0" style="mix-blend-mode: normal"><g data-paper-data="{&quot;index&quot;:null}" fill="#e2ffee" stroke="#00134a" stroke-width="2" stroke-linecap="butt"><path d="M226.36864,176.90636c0,-7.52839 6.10296,-13.63136 13.63136,-13.63136c7.52839,0 13.63136,6.10296 13.63136,13.63136c0,7.52839 -6.10296,13.63136 -13.63136,13.63136c-7.52839,0 -13.63136,-6.10296 -13.63136,-13.63136z"/><path d="M240,195.57954l-7.57336,-7.57336l7.57336,-7.57336l7.57336,7.57336z"/></g><g data-paper-data="{&quot;index&quot;:null}" fill="#e2ffee" stroke="none" stroke-width="0" stroke-linecap="butt"><path d="M226.36864,176.90636c0,-7.52839 6.10296,-13.63136 13.63136,-13.63136c7.52839,0 13.63136,6.10296 13.63136,13.63136c0,7.52839 -6.10296,13.63136 -13.63136,13.63136c-7.52839,0 -13.63136,-6.10296 -13.63136,-13.63136z"/><path d="M240,195.57954l-7.57336,-7.57336l7.57336,-7.57336l7.57336,7.57336z"/></g><g data-paper-data="{&quot;index&quot;:null}" stroke-width="0.2"><path d="M242.9438,181.09487c-0.3451,-0.9588 -0.09618,-1.52693 0.82855,-1.89097c0.92471,-0.36404 1.34906,-0.16529 1.69416,0.79351c0.3451,0.9588 0.09618,1.52692 -0.82853,1.89096c-0.92471,0.36404 -1.34906,0.1653 -1.69417,-0.7935z" data-paper-data="{&quot;index&quot;:null}" fill="#3700ad" stroke="#23006c" stroke-linecap="butt"/><path d="M242.81437,175.63592c0,0 1.8158,2.68749 1.8883,2.68273c1.24966,-0.08202 0.83176,1.18169 0.83176,1.18169l-2.96856,1.5165c0,0 -0.55012,-0.08438 -0.23143,-1.37694c0.02883,-0.11689 -0.49053,-2.91858 -0.49053,-2.91858" data-paper-data="{&quot;index&quot;:null}" fill="#1093ab" stroke="#001a61" stroke-linecap="round"/></g><path d="M237.50146,181.78659v-1.65384h4.51049l0.68182,1.65384z" data-paper-data="{&quot;index&quot;:null}" fill="#291767" stroke="#140040" stroke-width="0.2" stroke-linecap="butt"/><g data-paper-data="{&quot;index&quot;:null}" stroke-width="0.2" stroke-linecap="round"><path d="M242.2522,180.24107c0,0 0.90115,3.22329 0.93706,3.26224c0.4631,0.50225 0.76924,1.92308 0.76924,1.92308c0,0 -0.92389,0.84774 -1.67655,0.84141c-0.77247,-0.00649 -2.1696,-0.80295 -2.1696,-0.80295c0,0 -0.32015,-0.63174 0.03846,-1.96154c0.0159,-0.05894 0.07692,-1.64335 0.07692,-1.64335" data-paper-data="{&quot;index&quot;:null}" fill="#291767" stroke="#140040"/><path d="M240.16103,186.56818c0,0 -0.14147,-0.27292 -0.14147,-0.47917c0,-0.20625 0.14147,-0.5232 0.14147,-0.5232c0,0 1.52105,0.44372 2.44019,0.44372c0.91914,0 1.43037,-0.62554 1.43037,-0.62554c0,0 0.36874,0.49877 0.36874,0.70502c0,0.20625 -0.14147,0.47917 -0.14147,0.47917c0,0 -0.94871,0.45099 -1.59594,0.45099c-0.64723,0 -2.50189,-0.45099 -2.50189,-0.45099z" data-paper-data="{&quot;index&quot;:null}" fill="#ca3713" stroke="#57002a"/></g><g data-paper-data="{&quot;index&quot;:null}" stroke-width="0.2" stroke-linecap="round"><path d="M239.63591,181.7236c0,0 0.06102,2.85713 0.07692,2.91608c0.35861,1.3298 0.03846,1.96154 0.03846,1.96154c0,0 -0.80622,0.34191 -1.57869,0.3484c-0.75266,0.00633 -2.26746,-0.34141 -2.26746,-0.34141c0,0 0.30614,-1.46628 0.76924,-1.96854c0.03591,-0.03895 0.84615,-3.30769 0.84615,-3.30769" fill="#291767" stroke="#140040"/><path d="M237.38254,188.06462c-0.68534,0.04293 -1.77776,-0.36008 -1.77776,-0.36008c0,0 -0.14147,-0.27292 -0.14147,-0.47917c0,-0.20625 0.14147,-0.5232 0.14147,-0.5232c0,0 0.98702,0.25895 1.97582,0.21645h0.14619c0.98879,0.0425 1.97582,-0.21645 1.97582,-0.21645c0,0 0.14147,0.31695 0.14147,0.5232c0,0.20625 -0.14147,0.47917 -0.14147,0.47917c0,0 -1.09242,0.40302 -1.77777,0.36008z" data-paper-data="{&quot;index&quot;:null}" fill="#ff9600" stroke="#57002a"/></g><path d="M241.48177,175.1327c0,0 1.3233,0.22815 1.40765,0.89831c0.14585,1.15874 -0.9445,1.3351 -0.9445,1.3351l0.78117,3.43784l-4.85822,0.50284l0.0605,-3.52496c0,0 -1.10336,0.05069 -1.19792,-1.11336c-0.05469,-0.67324 1.19383,-1.16757 1.19383,-1.16757" data-paper-data="{&quot;index&quot;:null}" fill="#54debe" stroke="#001a61" stroke-width="0.2" stroke-linecap="round"/><path d="M242.62981,175.70292c0,1.20945 -1.1774,2.18991 -2.62981,2.18991c-1.4524,0 -2.62981,-0.98046 -2.62981,-2.18991c0,-1.20945 1.1774,-2.1899 2.62981,-2.1899c1.4524,0 2.62981,0.98045 2.62981,2.1899z" data-paper-data="{&quot;index&quot;:null}" fill="#1093ab" stroke="none" stroke-width="0" stroke-linecap="butt"/><g data-paper-data="{&quot;index&quot;:null}" stroke-width="0.2"><path d="M236.07315,183.14346c-0.95592,-0.27175 -1.25928,-0.81278 -1.00969,-1.80076c0.24957,-0.98798 0.65241,-1.22731 1.60833,-0.95556c0.95592,0.27175 1.25929,0.81278 1.00971,1.80076c-0.24957,0.98798 -0.65242,1.22732 -1.60834,0.95556z" fill="#5d00ff" stroke="#23006c" stroke-linecap="butt"/><path d="M238.34789,177.72768c0,0 -0.24254,2.83908 -0.20241,2.95258c0.44372,1.25513 -0.09551,1.39298 -0.09551,1.39298l-3.10278,-1.21857c0,0 -0.53962,-1.2167 0.71206,-1.25744c0.07262,-0.00236 1.61656,-2.85473 1.61656,-2.85473" fill="#54debe" stroke="#001a61" stroke-linecap="round"/></g><g data-paper-data="{&quot;index&quot;:null}"><path d="M237.28827,175.34861c-2.27761,-0.25585 -2.98142,-1.64627 -2.98142,-1.64627l1.16136,-0.18931c0,0 -0.6316,-0.44067 -0.89412,-0.88779c-0.26253,-0.44713 -0.37543,-1.27444 -0.37543,-1.27444l2.46134,0.04971" fill="#3700ad" stroke="#23006c" stroke-width="0.2" stroke-linecap="round"/><path d="M243.42488,171.6429l2.45858,0.12658c0,0 -0.17182,0.81711 -0.46567,1.2443c-0.29385,0.42718 -0.95537,0.82152 -0.95537,0.82152l1.14484,0.27194c0,0 -0.80152,1.33649 -3.0916,1.42867" data-paper-data="{&quot;index&quot;:null}" fill="#3700ad" stroke="#23006c" stroke-width="0.2" stroke-linecap="round"/><path d="M240.34244,166.39377c0,0 2.242,0.62002 3.07595,2.19155c0.74045,1.39532 0.11796,3.40641 0.11796,3.40641c0,0 0.56165,2.09409 -0.009,3.12168c-0.57064,1.02759 -2.61985,1.34705 -2.61985,1.34705l-2.08136,-0.07458c0,0 -2.02108,-0.46531 -2.51672,-1.5311c-0.49563,-1.06579 0.21444,-3.11432 0.21444,-3.11432c0,0 -0.47696,-2.05048 0.36145,-3.38923c0.9443,-1.50782 3.22491,-1.96578 3.22491,-1.96578z" fill="#5d00ff" stroke="#23006c" stroke-width="0.2" stroke-linecap="round"/><path d="M238.59293,171.19882c0,0 -0.45866,-1.1668 -0.1765,-1.8475c0.28217,-0.6807 1.6642,-1.74153 1.6642,-1.74153l0.07174,0.00257c0,0 1.30257,1.15701 1.53529,1.85617c0.23272,0.69915 -0.30827,1.83014 -0.30827,1.83014" data-paper-data="{&quot;index&quot;:null}" fill="none" stroke="#23006c" stroke-width="0.2" stroke-linecap="round"/><path d="M238.27909,172.05297c0.17182,-0.15432 0.44105,-0.14467 0.60138,0.02155c0.16033,0.16622 0.0849,2.27136 -0.08691,2.42567c-0.17182,0.15432 -0.44105,0.14467 -0.60138,-0.02155c-0.16033,-0.16622 -0.0849,-2.27136 0.08691,-2.42567z" fill="#140040" stroke="none" stroke-width="0" stroke-linecap="butt"/><path d="M241.16186,172.15626c0.17182,-0.15432 0.44105,-0.14467 0.60138,0.02155c0.16033,0.16622 0.0849,2.27136 -0.08691,2.42567c-0.17182,0.15432 -0.44105,0.14467 -0.60138,-0.02155c-0.16033,-0.16622 -0.0849,-2.27136 0.08691,-2.42567z" fill="#140040" stroke="none" stroke-width="0" stroke-linecap="butt"/><path d="M239.6676,176.47168c-0.50087,0.0485 -1.27876,-0.44608 -1.27876,-0.44608c0,0 -0.08779,-0.42544 -0.07637,-0.74417c0.01142,-0.31874 0.13187,-0.80483 0.13187,-0.80483c0,0 0.73128,-0.34678 1.45284,-0.38669l0.10633,0.00381c0.71686,0.09145 1.42144,0.48967 1.42144,0.48967c0,0 0.08535,0.49347 0.07393,0.81221c-0.01142,0.31874 -0.12944,0.7368 -0.12944,0.7368c0,0 -0.81128,0.43763 -1.3074,0.35341z" data-paper-data="{&quot;index&quot;:null}" fill="#ff9600" stroke="#57002a" stroke-width="0.2" stroke-linecap="round"/><path d="M243.46568,171.54814c1.27684,1.41581 -0.25179,4.87873 -0.25179,4.87873c0,0 -1.11626,-2.63403 -0.69824,-4.14305" fill="#5d00ff" stroke="#23006c" stroke-width="0.2" stroke-linecap="round"/><path d="M237.52103,172.10486c0.30894,1.53507 -0.99297,4.08245 -0.99297,4.08245c0,0 -1.27687,-3.56345 0.09803,-4.88424" data-paper-data="{&quot;index&quot;:null}" fill="#5d00ff" stroke="#23006c" stroke-width="0.2" stroke-linecap="round"/></g><path d="M193.3,226.7v-93.4h93.4v93.4z" fill="none" stroke="none" stroke-width="0" stroke-linecap="butt"/></g></g></svg>