<svg version="1.1" xmlns="http://www.w3.org/2000/svg" xmlns:xlink="http://www.w3.org/1999/xlink" width="7.66153" height="16.247" viewBox="0,0,7.66153,16.247"><g transform="translate(-236.16923,-168.43205)"><g data-paper-data="{&quot;isPaintingLayer&quot;:true}" fill-rule="nonzero" stroke-linecap="butt" stroke-linejoin="miter" stroke-miterlimit="10" stroke-dasharray="" stroke-dashoffset="0" style="mix-blend-mode: normal"><path d="M236.26923,183.24572v-13.76923c0,0 2.25144,-0.94444 3.76709,-0.94444c1.51566,0 3.69444,0.94444 3.69444,0.94444v13.76923c0,0 -2.16162,1.33333 -3.69444,1.33333c-1.53283,0 -3.76709,-1.33333 -3.76709,-1.33333z" fill="#3700ad" stroke="#23006c" stroke-width="0.2"/><path d="M241.46408,169.42252c0.00922,-0.00283 0.01817,-0.00631 0.02684,-0.01048zM241.30038,169.42117c0.01964,-0.07398 0.07628,-0.18064 0.23957,-0.18064c0.25,0 0.25,0.25 0.25,0.25l-0.20097,0.41181c-0.26626,0.02813 -0.64232,-0.6069 -0.72229,-0.35138c-0.08996,0.28744 -0.04153,0.7203 -0.3148,0.84695c-0.17022,0.07889 -0.45908,-0.1549 -0.63725,-0.38747c-0.02241,0.05207 -0.04884,0.1065 -0.07741,0.1615l-0.05001,0.30008c-0.0179,0.1205 -0.12179,0.21295 -0.24727,0.21295c-0.12289,0 -0.22507,-0.08867 -0.24605,-0.20551l-0.05465,-0.27324l0.00269,-0.00054l-0.00396,-0.00628c-0.14845,-1.03767 -0.16219,-0.75175 -0.47053,-0.1444l0.06214,0.0233l-0.16462,0.43898c-0.03403,0.09763 -0.1269,0.16768 -0.23613,0.16768c-0.13807,0 -0.25,-0.11193 -0.25,-0.25v-0.27778l0.02076,0l-0.01639,-0.0465c0.12838,-0.33744 0.22003,-0.64551 0.21786,-1.00905c0,0 0,-0.25 0.25,-0.25c0.2173,0 0.24572,0.18888 0.24944,0.23829c0.19258,-0.03077 0.40625,0.05348 0.57279,0.28975c0.04375,-0.118 0.11024,-0.2083 0.19954,-0.23375c0.34338,-0.09786 0.77368,1.12638 0.74407,0.77055c-0.09365,-1.12519 0.48805,-0.58319 0.88349,-0.49531z" fill="#54debe" stroke="none" stroke-width="0.5"/><path d="M241.44821,182.98285c0.06397,0.07358 0.06397,0.17434 0.06397,0.17434v0.5c0,0.13807 -0.11193,0.25 -0.25,0.25c-0.12289,0 -0.22507,-0.08867 -0.24605,-0.20551l-0.05465,-0.27324l0.01092,-0.00218l-0.01456,-0.02221c-0.00018,-0.04497 -0.00122,-0.08792 -0.00263,-0.12913c-0.11233,-0.00273 -0.2063,-0.07956 -0.23488,-0.18347l-0.14206,-0.47353l0.00477,-0.00143l-0.00092,-0.00174c-0.01368,0.00232 -0.02775,0.00353 -0.04209,0.00353c-0.09106,0 -0.17075,-0.04869 -0.21446,-0.12145c-0.05154,0.37071 -0.12126,0.73671 -0.23129,1.09466l0.06666,0.01333l-0.09715,0.48575c-0.02099,0.11685 -0.12317,0.20551 -0.24605,0.20551c-0.12548,0 -0.22937,-0.09245 -0.24727,-0.21295l-0.05488,-0.32928l0.00784,-0.00131l-0.01042,-0.0195c-0.00009,-0.33906 -0.04518,-0.9342 -0.07243,-1.58508c-0.03635,0.02061 -0.07836,0.03237 -0.12313,0.03237c-0.13354,0 -0.24262,-0.1047 -0.24964,-0.23648l-0.03052,-0.49726c-0.00763,-0.12431 -0.02298,-0.26749 -0.04268,-0.42401c-0.10094,0.30599 -0.21436,0.59151 -0.34182,0.84748l0.09647,0.04288l-0.20075,0.45169c-0.01723,0.04123 -0.04518,0.07686 -0.08038,0.1034c-0.08927,0.40451 -0.22357,0.79262 -0.43602,1.15112c0,0 -0.12862,0.21437 -0.343,0.08575c-0.21437,-0.12862 -0.08575,-0.343 -0.08575,-0.343c0.75878,-1.2459 0.45969,-3.01753 0.77476,-4.40916l0.00099,-0.00156l-0.00059,-0.00014l0.08387,-0.3475c0.02336,-0.10681 0.11501,-0.18808 0.22688,-0.19575c0.01763,-0.0669 0.03538,-0.13373 0.05315,-0.20045c-0.00173,-0.02237 -0.0035,-0.04482 -0.00531,-0.06736l-0.09491,-0.47453c-0.00384,-0.01742 -0.00587,-0.03552 -0.00587,-0.05409c0,-0.13807 0.11193,-0.25 0.25,-0.25c0.02667,0 0.05236,0.00418 0.07646,0.01191c0.17008,-0.66441 0.3078,-1.29354 0.32715,-1.83067l0,-0.32984c0,0 0,0 0,0c0,-0.13807 0.11193,-0.25 0.25,-0.25c0.10731,0 0.19883,0.06761 0.23428,0.16256l0.02594,0.06484c0.04743,-0.32835 0.08951,-0.62137 0.10246,-0.83866l0.00676,-0.01235l-0.00492,-0.00082l0.05488,-0.32928c0.0179,-0.1205 0.12179,-0.21295 0.24727,-0.21295c0.12548,0 0.22937,0.09245 0.24727,0.21295l0.05488,0.32928l-0.0508,0.00847c0.6416,1.72697 0.20564,3.87821 0.2608,5.75149l0.03887,0.23324l-0.02902,0.00484c0.00504,0.09333 0.01151,0.18588 0.0196,0.27755c0.00246,0.01494 0.00482,0.02988 0.00708,0.04482c0.07708,0.03518 0.13317,0.10836 0.1443,0.1956l0.05446,0.37836l-0.02253,0.00324l0.01063,0.12794l-0.01665,0.00138l0.0175,0.01642c-0.00206,0.03403 -0.00513,0.06797 -0.00912,0.10181c0.03087,0.15389 0.05104,0.30888 0.0693,0.47282c0.04535,-0.06337 0.11957,-0.10466 0.20344,-0.10466c0.13807,0 0.25,0.11193 0.25,0.25l0,0.5h-0.04875c0.02053,0.12291 0.03326,0.24554 0.04034,0.38121zM240.19325,177.45357c-0.00493,0.03153 -0.01002,0.06302 -0.01528,0.09445c0.00067,0.09253 0.00079,0.18459 0.00087,0.27583l0,0.08486c0.00266,0.00029 0.00532,0.00063 0.00796,0.00101c0.00245,-0.15217 0.00478,-0.30427 0.00645,-0.45615zM239.6547,177.52729c-0.05389,0.54187 -0.12596,1.11075 -0.22255,1.66974c0.00518,0.04507 0.00994,0.09026 0.01433,0.13555c0.0218,-0.05138 0.04366,-0.10239 0.06569,-0.15308v-0.13342c0,0 0,0 0,0c0,-0.10921 0.07003,-0.20207 0.16763,-0.23611c0.03877,-0.08132 0.07876,-0.16213 0.12048,-0.24266l-0.0445,-0.01483l0.01237,-0.0371c-0.0546,-0.04586 -0.0893,-0.11464 -0.0893,-0.19152v-0.5c0.00007,-0.07404 -0.00931,-0.1761 -0.02414,-0.29657z" fill="#54debe" stroke="none" stroke-width="0.5"/><path d="M237.28953,180.65374c-0.00283,0.0264 -0.00557,0.05262 -0.0082,0.07867l0.00675,0.06078l-0.01285,0.00143c-0.00473,0.0498 -0.00903,0.09904 -0.01283,0.14786c0.06171,0.19496 0.05884,0.41118 0.05744,0.63582c0.06334,0.06203 0.07782,0.14891 0.07782,0.14891l0.05836,0.35713c-0.00252,0.00791 -0.00504,0.01583 -0.00757,0.02374l0.00808,0.00022l-0.01303,0.48947c-0.0031,0.13538 -0.11381,0.24417 -0.24993,0.24417c-0.12289,0 -0.22507,-0.08867 -0.24605,-0.20551l-0.0809,-0.40449c-0.06172,-0.06347 -0.07415,-0.15049 -0.07415,-0.15049c-0.06494,-0.45958 -0.06001,-0.87451 -0.0121,-1.33004l-0.04404,-0.39632c-0.00127,-0.01023 -0.00193,-0.02065 -0.00193,-0.03122c0,-0.13807 0.11193,-0.25 0.25,-0.25c0.12568,0 0.2297,0.09274 0.24736,0.21352l0.05456,0.33238l-0.01527,0.00251z" fill="#ff9600" stroke="none" stroke-width="0.5"/><path d="M237.01467,170.07186c0.00909,-0.06629 0.05133,-0.22022 0.2475,-0.22022c0.25,0 0.25,0.25 0.25,0.25l-0.00251,0.20202c-0.05979,0.41135 -0.09526,0.60686 -0.26076,0.80191l0.0466,0.03495l-0.16492,0.21989c-0.04549,0.06204 -0.11891,0.10233 -0.20175,0.10233c-0.13807,0 -0.25,-0.11193 -0.25,-0.25v-0.44444h0.00912l-0.00725,-0.03055c0.0389,-0.15818 0.0778,-0.31636 0.1167,-0.47453c0,0 0.04584,-0.18337 0.21725,-0.19136z" fill="#ff9600" stroke="none" stroke-width="0.5"/><path d="M237.20662,176.57386c-0.25,0 -0.25,-0.25 -0.25,-0.25l0.00193,-0.0801c-0.10146,-0.81174 -0.06392,-1.56652 -0.00119,-2.38352c0,0 0.01917,-0.24926 0.26844,-0.23009c0.24926,0.01917 0.23009,0.26844 0.23009,0.26844c-0.06046,0.78441 -0.09848,1.50494 -0.00119,2.28315l0.00193,0.14212c0,0 0,0.25 -0.25,0.25z" fill="#ff9600" stroke="none" stroke-width="0.5"/><path d="M239.10562,171.75819c0.16852,0.16852 0.01575,0.33703 0.0011,0.35241c-0.07476,0.49118 -0.01337,0.95885 -0.00509,1.43642c0.00434,0.01607 0.00899,0.0323 0.01398,0.04869l-0.00516,0.00878l0.00689,-0.00153l0.02993,0.13469l0.02915,-0.00409l0.05232,0.37277c0.00199,0.01269 0.00302,0.02571 0.00302,0.03896c0,0.13807 -0.11193,0.25 -0.25,0.25c-0.12115,0 -0.22217,-0.08618 -0.24511,-0.20057l-0.10631,-0.47838c-0.11377,-0.42114 -0.05192,-0.71378 -0.11564,-1.13489c0,0 -0.0173,-0.12107 0.05698,-0.20595c0.01504,-0.16593 0.03594,-0.31517 0.05541,-0.42834l0.12499,-0.18896c0,0 0.17678,-0.17678 0.35355,0zM239.11687,172.04861l0.00262,-0.01472c-0.00089,0.00491 -0.00176,0.00981 -0.00262,0.01472z" fill="#ff9600" stroke="none" stroke-width="0.5"/><path d="M241.98715,179.54571c0.21845,0.10978 0.11117,0.33148 0.11117,0.33148l-0.03255,0.03379c-0.06607,0.60633 0.00736,1.03499 -0.11375,1.50681l0.10608,0.03031l-0.10959,0.38357c-0.02805,0.10739 -0.12572,0.18663 -0.2419,0.18663c-0.12548,0 -0.22937,-0.09245 -0.24727,-0.21295l-0.05488,-0.32928l0.0074,-0.00123l-0.00995,-0.01925c-0.00116,-0.91639 0.11026,-1.82421 0.11026,-2.74284c0,0 0,-0.25 0.25,-0.25c0.25,0 0.25,0.25 0.25,0.25c0,0.27848 -0.01048,0.55596 -0.02502,0.83297z" fill="#ff9600" stroke="none" stroke-width="0.5"/><path d="M239.31773,176.68497c0.25,0 0.25,0.25 0.25,0.25l-0.00485,0.06208c0.1453,0.7483 0.06155,1.58091 -0.21905,2.30062c0.00009,0.00094 0.00019,0.00187 0.00028,0.00281l0.05355,0.00893l-0.05488,0.32928c-0.0179,0.1205 -0.12179,0.21295 -0.24727,0.21295c-0.13807,0 -0.25,-0.11193 -0.25,-0.25v-0.26832c-0.05975,-0.586 -0.12971,-1.16689 -0.21932,-1.74922c0,0 -0.03801,-0.24709 0.20908,-0.28511c0.14451,-0.02223 0.2175,0.05305 0.25321,0.11939c0.00573,-0.1245 0.00239,-0.23501 -0.01589,-0.32327l-0.00485,-0.16014c0,0 0,-0.25 0.25,-0.25z" fill="#ff9600" stroke="none" stroke-width="0.5"/><path d="M242.35115,172.99479c-0.01052,-0.60609 -0.00565,-1.21658 -0.00565,-1.83761c0,0 0,-0.25 0.25,-0.25c0.25,0 0.25,0.25 0.25,0.25c0,0.94713 -0.0138,1.86947 0.03648,2.78963c0.17606,0.75417 0.36365,1.58424 0.31252,2.32148h0.09544v0.38889c0,0.13807 -0.11193,0.25 -0.25,0.25c-0.11487,0 -0.21164,-0.07747 -0.24092,-0.18301l-0.07205,-0.23822l0.00324,-0.00098l-0.00538,-0.00651c-0.06783,-0.28784 -0.12366,-0.57406 -0.16957,-0.85927c-0.19525,-0.74357 -0.21563,-1.77322 -0.31548,-2.24375l-0.00538,-0.1627c0,0 0,-0.15049 0.11676,-0.21795z" fill="#ff9600" stroke="none" stroke-width="0.5"/><path d="M243.17456,180.47557c0.23717,0.07906 0.15811,0.31623 0.15811,0.31623l-0.04293,0.09779c-0.0273,0.66101 -0.08944,1.17588 -0.28569,1.71039l0.05507,0.01224l-0.1074,0.48329c-0.02294,0.1144 -0.12396,0.20057 -0.24511,0.20057c-0.13807,0 -0.25,-0.11193 -0.25,-0.25v-0.33333h0.01021l-0.009,-0.02463c0.12048,-0.60242 0.18189,-1.19894 -0.04085,-1.77647c0,0 -0.08778,-0.23408 0.1463,-0.32186c0.14922,-0.05596 0.23899,0.01888 0.28447,0.0805l0.01059,-0.03658c0,0 0.07906,-0.23717 0.31623,-0.15811z" fill="#ff9600" stroke="none" stroke-width="0.5"/></g></g></svg>