<svg version="1.1" xmlns="http://www.w3.org/2000/svg" xmlns:xlink="http://www.w3.org/1999/xlink" width="149.69226" height="149.69226" viewBox="0,0,149.69226,149.69226"><defs><radialGradient cx="319.53766" cy="180.43306" r="63.24806" gradientUnits="userSpaceOnUse" id="color-1"><stop offset="0" stop-color="#1d3944"/><stop offset="1" stop-color="#1d3944" stop-opacity="0"/></radialGradient></defs><g transform="translate(-245.17045,-105.17045)"><g stroke="none" stroke-miterlimit="10"><path d="M245.17045,180.01658c0,-41.33638 33.50975,-74.84613 74.84613,-74.84613c41.33638,0 74.84613,33.50975 74.84613,74.84613c0,41.33638 -33.50975,74.84613 -74.84613,74.84613c-41.33638,0 -74.84613,-33.50975 -74.84613,-74.84613z" fill="#4f5268" stroke-width="0"/><path d="M252.1182,180.64806c0,-37.49924 30.39913,-67.89838 67.89838,-67.89838c37.49924,0 67.89841,30.39913 67.89841,67.89838c0,37.49924 -30.39916,67.89841 -67.89838,67.89841c-37.49924,0 -67.89838,-30.39913 -67.89838,-67.89838z" fill="#00050a" stroke-width="0"/><path d="M256.2896,180.43306c0,-34.93094 28.31712,-63.24806 63.24806,-63.24806c34.93094,0 63.24806,28.31712 63.24806,63.24806c0,34.93094 -28.31712,63.24806 -63.24806,63.24806c-34.93094,0 -63.24806,-28.31712 -63.24806,-63.24806z" fill="url(#color-1)" stroke-width="0"/><path d="M336.91844,205.09676h-32.55445c-0.60527,0 -1.08083,-0.08647 -1.42669,-0.2594c-0.34586,-0.2594 -0.60527,-0.60527 -0.77819,-1.03759c-0.17293,-0.43234 -0.17293,-0.90789 0,-1.42669c0.08647,-0.5188 0.34586,-1.08083 0.77819,-1.68609l30.73866,-43.83826v1.94549h-29.70107c-0.69174,0 -1.21052,-0.1297 -1.55639,-0.3891c-0.43234,-0.43234 -0.6485,-0.95112 -0.6485,-1.55639c0,-0.60527 0.21616,-1.08083 0.6485,-1.42669c0.34586,-0.34586 0.86465,-0.5188 1.55639,-0.5188h31.51686c0.60525,0 1.08083,0.1297 1.42669,0.3891c0.34586,0.2594 0.60525,0.60527 0.77819,1.03759c0.17293,0.34586 0.17293,0.82142 0,1.42669c-0.08646,0.5188 -0.34586,1.03759 -0.77819,1.55639l-30.73866,43.83826v-1.94549h30.73866c0.69172,0 1.21052,0.17294 1.55639,0.5188c0.43234,0.34586 0.6485,0.82142 0.6485,1.42669c0,0.60527 -0.21616,1.08083 -0.6485,1.42669c-0.34586,0.34586 -0.86465,0.5188 -1.55639,0.5188z" fill="#ffffff" stroke-width="1"/></g></g></svg>