<svg version="1.1" xmlns="http://www.w3.org/2000/svg" xmlns:xlink="http://www.w3.org/1999/xlink" width="149.69226" height="149.69226" viewBox="0,0,149.69226,149.69226"><defs><radialGradient cx="239.53766" cy="180.43306" r="63.24806" gradientUnits="userSpaceOnUse" id="color-1"><stop offset="0" stop-color="#1d3944"/><stop offset="1" stop-color="#1d3944" stop-opacity="0"/></radialGradient></defs><g transform="translate(-165.17045,-105.17045)"><g data-paper-data="{&quot;isPaintingLayer&quot;:true}" fill-rule="nonzero" stroke="none" stroke-width="0" stroke-linecap="butt" stroke-linejoin="miter" stroke-miterlimit="10" stroke-dasharray="" stroke-dashoffset="0" style="mix-blend-mode: normal"><path d="M165.17045,180.01658c0,-41.33638 33.50975,-74.84613 74.84613,-74.84613c41.33638,0 74.84613,33.50975 74.84613,74.84613c0,41.33638 -33.50975,74.84613 -74.84613,74.84613c-41.33638,0 -74.84613,-33.50975 -74.84613,-74.84613z" fill="#4f5268"/><path d="M172.1182,180.64806c0,-37.49924 30.39913,-67.89838 67.89838,-67.89838c37.49924,0 67.89841,30.39913 67.89841,67.89838c0,37.49924 -30.39916,67.89841 -67.89838,67.89841c-37.49924,0 -67.89838,-30.39913 -67.89838,-67.89838z" fill="#00050a"/><path d="M176.2896,180.43306c0,-34.93094 28.31712,-63.24806 63.24806,-63.24806c34.93094,0 63.24806,28.31712 63.24806,63.24806c0,34.93094 -28.31712,63.24806 -63.24806,63.24806c-34.93094,0 -63.24806,-28.31712 -63.24806,-63.24806z" fill="url(#color-1)"/></g></g></svg>