<svg version="1.1" xmlns="http://www.w3.org/2000/svg" xmlns:xlink="http://www.w3.org/1999/xlink" width="7.66153" height="16.247" viewBox="0,0,7.66153,16.247"><g transform="translate(-236.16923,-168.43205)"><g data-paper-data="{&quot;isPaintingLayer&quot;:true}" fill-rule="nonzero" stroke-linecap="butt" stroke-linejoin="miter" stroke-miterlimit="10" stroke-dasharray="" stroke-dashoffset="0" style="mix-blend-mode: normal"><path d="M236.26923,183.24572v-13.76923c0,0 2.25144,-0.94444 3.76709,-0.94444c1.51566,0 3.69444,0.94444 3.69444,0.94444v13.76923c0,0 -2.16162,1.33333 -3.69444,1.33333c-1.53283,0 -3.76709,-1.33333 -3.76709,-1.33333z" fill="#3700ad" stroke="#23006c" stroke-width="0.2"/><path d="M237.8968,170.61947c-0.01752,-0.28343 -0.03128,-0.52998 -0.05299,-0.70207c0,0 -0.03101,-0.24807 0.21706,-0.27908c0.24807,-0.03101 0.27908,0.21706 0.27908,0.21706c0.03816,0.30785 0.59423,3.13546 0.6627,3.07525c0.55631,-0.48914 0.95228,-2.05284 0.95097,-2.78419c0.03447,-0.24131 0.05572,-0.48537 0.05614,-0.72913l0.01345,-0.02243l-0.00981,-0.00196l0.05465,-0.27324c0.02099,-0.11685 0.12317,-0.20551 0.24605,-0.20551c0.12115,0 0.22217,0.08618 0.24511,0.20057l0.1074,0.48329l-0.10758,0.02391c0.26378,1.19059 -0.05008,2.61968 -0.05048,3.82001c-0.0001,0.29209 0.27718,2.19102 0.35818,1.89135c0.3402,-0.91304 0.67948,-1.77993 0.87441,-2.74036l0.01603,-0.01821l-0.00851,-0.00341l0.10895,-0.27237c0.03545,-0.09495 0.12697,-0.16256 0.23428,-0.16256c0.13807,0 0.25,0.11193 0.25,0.25v0.27778h-0.05327c0.37724,1.85694 -0.32908,4.94862 -0.61425,6.63173c-0.00176,0.22038 -0.04944,0.44098 -0.11735,0.6507l-0.05241,0.26205c-0.02099,0.11685 -0.12317,0.20551 -0.24605,0.20551c-0.10731,0 -0.19883,-0.06761 -0.23428,-0.16256l-0.10895,-0.27237l0.04516,-0.01806c-0.90888,-1.51298 -0.37856,-3.04005 -0.90562,0.04813l-0.0178,0.02182l0.00916,0.00367l-0.10895,0.27237c-0.03545,0.09495 -0.12697,0.16256 -0.23428,0.16256c-0.12289,0 -0.22507,-0.08867 -0.24605,-0.20551l-0.05465,-0.27324l0.09719,-0.01944c-0.16793,-0.76275 0.01666,-1.68902 -0.15221,-2.47796c-0.07486,-0.34971 -0.40746,-0.7112 -0.60504,-1.04904c-0.06789,0.33439 -0.16457,0.6948 -0.24183,0.89622l-0.05136,0.25678c-0.02099,0.11685 -0.12317,0.20551 -0.24605,0.20551c-0.12733,0 -0.23242,-0.09519 -0.24801,-0.21828l-0.05504,-0.38525l0.04775,-0.00682c-0.66722,-2.02363 -0.07511,-4.49792 -0.0509,-6.57323z" fill="#54debe" stroke="none" stroke-width="0.5"/><path d="M236.57255,181.53771c-0.16145,-0.08954 -0.10631,-0.28253 -0.10631,-0.28253c0.04763,-0.16549 0.09072,-0.33549 0.1297,-0.5091c-0.11886,-1.11504 0.03731,-3.08683 0.3595,-4.03393c0.00068,-0.09645 0.00105,-0.19199 0.00117,-0.28648l0,-0.43514c0,-0.13807 0.11193,-0.25 0.25,-0.25c0.13807,0 0.25,0.11193 0.25,0.25l0,0.5h-0.00066c-0.00218,0.44851 -0.00988,0.91696 -0.02955,1.3922c0.03066,1.0945 0.00617,2.27348 -0.01143,2.85428l0.01005,-0.0201c0.04009,-0.08456 0.12623,-0.14304 0.22603,-0.14304c0.13807,0 0.25,0.11193 0.25,0.25l0,0.27778c-0.00386,0.27793 -0.09056,0.50006 -0.22123,0.63605c-0.05768,0.42236 -0.22622,0.90818 -0.27877,1.21292v0.26214c0,0.13807 -0.11193,0.25 -0.25,0.25c-0.12548,0 -0.22937,-0.09245 -0.24727,-0.21295l-0.05488,-0.32928l0.05346,-0.00891c0.00034,-0.00205 0.00067,-0.00411 0.00101,-0.00616c-0.16285,-0.43427 -0.23207,-0.8723 -0.33079,-1.36589z" fill="#ff9600" stroke="none" stroke-width="0.5"/><path d="M242.24361,174.42652c-0.07214,-0.04385 -0.12032,-0.12319 -0.12032,-0.21378v-0.27778l0.03714,0l0.00941,-0.0659c-0.05305,-0.32601 -0.01284,-0.62735 0.06845,-1.03374l0.05438,-0.3263c0.01565,-0.10538 0.09707,-0.18931 0.20119,-0.20871c0.06984,-0.68274 0.03424,-1.36059 -0.0894,-2.10203c0,0 -0.0411,-0.2466 0.2055,-0.2877c0.2466,-0.0411 0.2877,0.2055 0.2877,0.2055c0.16992,1.02012 0.18628,1.94037 -0.00271,2.89984c0.03285,-0.003 0.07035,0.001 0.11295,0.0152c0.23717,0.07906 0.15811,0.31623 0.15811,0.31623l-0.04613,0.04651c0.22084,1.34473 0.40313,2.95394 0.05563,4.33646c0.00076,0.05024 0.00155,0.09995 0.00239,0.14909h0.00094l0,0.33333c0,0.13807 -0.11193,0.25 -0.25,0.25c-0.13807,0 -0.25,-0.11193 -0.25,-0.25v-0.27669c-0.00778,-0.83075 -0.37679,-2.29195 -0.43523,-3.50953z" fill="#ff9600" stroke="none" stroke-width="0.5"/><path d="M239.93744,180.02152c0.0446,-0.34054 0.07473,-0.68324 0.07473,-1.03099c0,0 0,-0.25 0.25,-0.25c0.25,0 0.25,0.25 0.25,0.25c0,0.77136 -0.14724,1.51621 -0.27245,2.26742c0.00772,0.55807 0.00511,1.09149 -0.17199,1.59872v0.06164l0.0507,0.01014l-0.05465,0.27324c-0.02099,0.11685 -0.12317,0.20551 -0.24605,0.20551c-0.13807,0 -0.25,-0.11193 -0.25,-0.25v-0.33333h0.00094l-0.00093,-0.00242c0.00764,-0.39591 0.05142,-0.78442 0.10874,-1.16973c0.02278,-0.36557 0.05792,-0.71214 0.05792,-0.88341v-0.5c0,0 0,-0.21763 0.20305,-0.24678z" fill="#ff9600" stroke="none" stroke-width="0.5"/><path d="M239.99298,171.74063c0.24214,0.00589 0.24142,0.25064 0.24142,0.25064l-0.00187,0.14103c-0.04837,0.4322 -0.03534,0.80702 -0.0991,1.1863l0.01412,0.1179l0.03129,0.00022l-0.00183,0.26224c-0.00082,0.13737 -0.11243,0.24847 -0.25,0.24847c-0.12911,0 -0.23535,-0.09786 -0.24861,-0.22346l-0.05907,-0.49327l0.00136,-0.00016l-0.00183,-0.0041c-0.07332,-0.86074 -0.19138,-1.67482 -0.10544,-2.53857c0,0 0.02488,-0.24876 0.27364,-0.22388c0.24876,0.02488 0.22388,0.27364 0.22388,0.27364c-0.03418,0.34005 -0.03442,0.6723 -0.01795,1.00301z" fill="#ff9600" stroke="none" stroke-width="0.5"/><path d="M241.82281,174.78861c-0.24254,0.06063 -0.30317,-0.1819 -0.30317,-0.1819l-0.1167,-0.47453c-0.00058,-0.25637 -0.0112,-0.51445 -0.05403,-0.76722c0,0 -0.0411,-0.2466 0.2055,-0.2877c0.2466,-0.0411 0.2877,0.2055 0.2877,0.2055c0.0427,0.25998 0.0577,0.52487 0.05708,0.78833l0.10552,0.41436c0,0 0.06063,0.24254 -0.1819,0.30317z" fill="#ff9600" stroke="none" stroke-width="0.5"/><path d="M242.28708,180.38888c0.03484,-0.02242 0.08089,-0.03724 0.14176,-0.03724c0.25,0 0.25,0.25 0.25,0.25l0,0.05696c-0.0054,0.71842 -0.00919,1.7168 -0.27949,2.44235l0.09494,0.03798l-0.10895,0.27237c-0.03545,0.09495 -0.12697,0.16256 -0.23428,0.16256c-0.10731,0 -0.19883,-0.06761 -0.23428,-0.16256l-0.10895,-0.27237l0.00871,-0.00349l-0.01767,-0.02316c-0.13706,-0.85497 -0.125,-1.74021 0.11181,-2.57933c0,0 0.06868,-0.24038 0.30906,-0.1717c0.02587,0.00739 0.04816,0.01677 0.06734,0.02763z" fill="#54debe" stroke="none" stroke-width="0.5"/><path d="M238.28884,180.61079c0.03941,0.05045 0.12537,0.19237 -0.01655,0.33429c-0.01158,0.01158 -0.02316,0.02164 -0.03469,0.03034l0.04489,0.1767c0,0 0.06063,0.24254 -0.1819,0.30317c-0.24254,0.06063 -0.30317,-0.1819 -0.30317,-0.1819l-0.05962,-0.24176c-0.07959,-0.48462 -0.0782,-0.97915 -0.05808,-1.47485c-0.03238,-0.19283 -0.06931,-0.38426 -0.10714,-0.57278c0,0 -0.04236,-0.21181 0.14855,-0.28104c0.00779,-0.1826 0.01326,-0.36467 0.01326,-0.54577c0,0 0,-0.25 0.25,-0.25c0.25,0 0.25,0.25 0.25,0.25c0,0.44391 -0.03655,0.8968 -0.05722,1.34871c0.06012,0.36663 0.1042,0.73735 0.11166,1.10488z" fill="#54debe" stroke="none" stroke-width="0.5"/></g></g></svg>