<svg version="1.1" xmlns="http://www.w3.org/2000/svg" xmlns:xlink="http://www.w3.org/1999/xlink" width="19.25727" height="37.375" viewBox="0,0,19.25727,37.375"><defs><linearGradient x1="240" y1="148.6875" x2="240" y2="186.06252" gradientUnits="userSpaceOnUse" id="color-1"><stop offset="0" stop-color="#5d00ff" stop-opacity="0"/><stop offset="1" stop-color="#5d00ff"/></linearGradient></defs><g transform="translate(-230.37136,-148.68751)"><g data-paper-data="{&quot;isPaintingLayer&quot;:true}" fill-rule="nonzero" stroke-linejoin="miter" stroke-miterlimit="10" stroke-dasharray="" stroke-dashoffset="0" style="mix-blend-mode: normal"><g data-paper-data="{&quot;index&quot;:null}" stroke-width="0.2" stroke-linecap="round"><path d="M238.22962,173.19999c0,0 -0.7622,-3.28027 -0.79753,-3.31975c-0.45568,-0.50899 -0.74095,-1.93416 -0.74095,-1.93416c0,0 1.5184,-0.23458 2.27089,-0.21721c0.77229,0.01782 1.57541,0.23518 1.57541,0.23518c0,0 0.31085,0.63637 -0.06723,1.96076c-0.01676,0.0587 -0.11302,2.46014 -0.11302,2.46014" fill="#291767" stroke="#140040"/><path d="M238.72665,166.88305c0.68591,-0.03288 1.7783,-0.02292 1.7783,-0.02292c0,0 0.13745,0.27497 0.13443,0.48119c-0.00303,0.20623 -0.14913,0.52107 -0.14913,0.52107c0,0 -0.99046,0.22654 -1.97977,0.25453l-0.14617,-0.00214c-0.98807,-0.057 -1.97145,-0.31251 -1.97145,-0.31251c0,0 -0.13681,-0.31899 -0.13378,-0.52522c0.00303,-0.20623 0.14848,-0.47704 0.14848,-0.47704c0,0 1.09221,0.02211 1.77685,0.07509z" data-paper-data="{&quot;index&quot;:null}" fill="#ff9600" stroke="#57002a"/></g><g data-paper-data="{&quot;index&quot;:null}" stroke-width="0.2" stroke-linecap="round"><path d="M239.64282,172.38495c0,0 -0.09626,-2.40144 -0.11302,-2.46014c-0.37808,-1.3244 -0.06723,-1.96076 -0.06723,-1.96076c0,0 0.80312,-0.21736 1.57541,-0.23518c0.75249,-0.01737 2.27089,0.21721 2.27089,0.21721c0,0 -0.28526,1.42517 -0.74095,1.93416c-0.03533,0.03947 -0.79753,3.31975 -0.79753,3.31975" fill="#291767" stroke="#140040"/><path d="M241.81559,166.8751c0.68464,-0.05298 1.77685,-0.07509 1.77685,-0.07509c0,0 0.14546,0.27082 0.14848,0.47704c0.00303,0.20623 -0.13378,0.52522 -0.13378,0.52522c0,0 -0.98338,0.2555 -1.97145,0.31251l-0.14617,0.00214c-0.98931,-0.02799 -1.97977,-0.25453 -1.97977,-0.25453c0,0 -0.1461,-0.31484 -0.14913,-0.52107c-0.00303,-0.20623 0.13443,-0.48119 0.13443,-0.48119c0,0 1.09239,-0.00996 1.7783,0.02292z" data-paper-data="{&quot;index&quot;:null}" fill="#ff9600" stroke="#57002a"/></g><path d="M238.21176,176.75254c0,0 -1.29278,-0.36317 -1.30769,-1.03846c-0.02579,-1.1676 1.07693,-1.23077 1.07693,-1.23077l-0.42308,-2.59091h4.88417l-0.42308,2.59091c0,0 1.10271,0.06317 1.07693,1.23077c-0.01491,0.67529 -1.30769,1.03846 -1.30769,1.03846" data-paper-data="{&quot;index&quot;:null}" fill="#1093ab" stroke="#001a61" stroke-width="0.2" stroke-linecap="round"/><g stroke-width="0.2"><path d="M233.39254,171.98192c0.80465,-0.58323 1.41743,-0.48711 2.03957,0.31994c0.62215,0.80704 0.56116,1.27164 -0.24349,1.85487c-0.80465,0.58323 -1.41744,0.48711 -2.03959,-0.31993c-0.62215,-0.80704 -0.56116,-1.27165 0.24351,-1.85487z" fill="#5d00ff" stroke="#23006c" stroke-linecap="butt"/><path d="M236.24231,177.11843c0,0 -2.08129,-1.94613 -2.19532,-1.98477c-1.26079,-0.42737 -1.03571,-0.93638 -1.03571,-0.93638l2.87625,-1.68503c0,0 1.2899,0.32825 0.54795,1.33715c-0.04304,0.05853 1.24399,3.03565 1.24399,3.03565" fill="#54debe" stroke="#001a61" stroke-linecap="round"/></g><g data-paper-data="{&quot;index&quot;:null}" stroke-width="0.2"><path d="M246.60747,171.98193c0.80466,0.58323 0.86565,1.04783 0.24351,1.85487c-0.62215,0.80704 -1.23494,0.90316 -2.03959,0.31993c-0.80465,-0.58323 -0.86564,-1.04783 -0.24349,-1.85487c0.62214,-0.80705 1.23492,-0.90318 2.03957,-0.31994z" fill="#5d00ff" stroke="#23006c" stroke-linecap="butt"/><path d="M242.32053,176.88506c0,0 1.28703,-2.97712 1.24399,-3.03565c-0.74195,-1.0089 0.54795,-1.33715 0.54795,-1.33715l2.87625,1.68503c0,0 0.22508,0.50901 -1.03571,0.93638c-0.11403,0.03865 -2.19532,1.98477 -2.19532,1.98477" fill="#54debe" stroke="#001a61" stroke-linecap="round"/></g><path d="M237.38463,182.47892c-2.28531,-0.17413 -3.03846,-1.53846 -3.03846,-1.53846l1.15384,-0.23077c0,0 -0.64697,-0.41777 -0.92534,-0.8552c-0.27837,-0.43744 -0.42082,-1.26018 -0.42082,-1.26018l2.46154,-0.03846" fill="#3700ad" stroke="#23006c" stroke-width="0.2" stroke-linecap="round"/><path d="M243.38462,178.55585l2.46154,0.03846c0,0 -0.14245,0.82274 -0.42082,1.26018c-0.27837,0.43743 -0.92534,0.8552 -0.92534,0.8552l1.15384,0.23077c0,0 -0.75315,1.36433 -3.03846,1.53846" data-paper-data="{&quot;index&quot;:null}" fill="#3700ad" stroke="#23006c" stroke-width="0.2" stroke-linecap="round"/><path d="M240.11619,173.92046c0,0 2.26276,0.53934 3.15245,2.08c0.78994,1.36791 0.23986,3.4 0.23986,3.4c0,0 0.63627,2.07264 0.10279,3.12c-0.53348,1.04736 -2.56993,1.44 -2.56993,1.44h-2.0827c0,0 -2.03645,-0.39264 -2.56993,-1.44c-0.53348,-1.04736 0.10279,-3.12 0.10279,-3.12c0,0 -0.55008,-2.03209 0.23986,-3.4c0.8897,-1.54067 3.15245,-2.08 3.15245,-2.08z" fill="#5d00ff" stroke="#23006c" stroke-width="0.2" stroke-linecap="round"/><path d="M238.53986,180.05781c0,0 -0.50015,-1.14963 -0.24254,-1.84c0.25761,-0.69037 1.60077,-1.8 1.60077,-1.8h0.07179c0,0 1.34316,1.10963 1.60077,1.8c0.25761,0.69037 -0.24254,1.84 -0.24254,1.84" data-paper-data="{&quot;index&quot;:null}" fill="none" stroke="#23006c" stroke-width="0.2" stroke-linecap="round"/><path d="M238.25681,180.92266c0.16618,-0.16037 0.43559,-0.16037 0.60177,0c0.16618,0.16037 0.16618,2.26686 0,2.42723c-0.16618,0.16037 -0.43559,0.16037 -0.60177,0c-0.16618,-0.16037 -0.16618,-2.26686 0,-2.42723z" fill="#140040" stroke="none" stroke-width="0" stroke-linecap="butt"/><path d="M241.14143,180.92266c0.16618,-0.16037 0.43559,-0.16037 0.60177,0c0.16618,0.16037 0.16618,2.26686 0,2.42723c-0.16618,0.16037 -0.43559,0.16037 -0.60177,0c-0.16618,-0.16037 -0.16618,-2.26686 0,-2.42723z" fill="#140040" stroke="none" stroke-width="0" stroke-linecap="butt"/><path d="M239.80265,184.83426c-0.49881,0.0664 -1.29391,-0.4 -1.29391,-0.4c0,0 -0.10297,-0.42202 -0.10297,-0.74096c0,-0.31894 0.10297,-0.80904 0.10297,-0.80904c0,0 0.71839,-0.37274 1.43806,-0.43846h0.1064c0.71967,0.06572 1.43806,0.43846 1.43806,0.43846c0,0 0.10297,0.4901 0.10297,0.80904c0,0.31894 -0.10297,0.74096 -0.10297,0.74096c0,0 -0.79509,0.4664 -1.29391,0.4z" data-paper-data="{&quot;index&quot;:null}" fill="#ff9600" stroke="#57002a" stroke-width="0.2" stroke-linecap="round"/><path d="M243.422,180.23242c1.32672,1.36918 -0.07693,4.88462 -0.07693,4.88462c0,0 -1.20986,-2.59237 -0.84615,-4.11539" fill="#5d00ff" stroke="#23006c" stroke-width="0.2" stroke-linecap="round"/><path d="M237.50109,181.00166c0.36371,1.52302 -0.84615,4.11539 -0.84615,4.11539c0,0 -1.40365,-3.51544 -0.07693,-4.88462" data-paper-data="{&quot;index&quot;:null}" fill="#5d00ff" stroke="#23006c" stroke-width="0.2" stroke-linecap="round"/><path d="M230.37136,178.90336c0,-3.9539 9.62864,-30.21585 9.62864,-30.21585c0,0 9.62864,26.26195 9.62864,30.21585c0,3.9539 -4.3109,7.15915 -9.62864,7.15915c-5.31776,0 -9.62864,-3.20527 -9.62864,-7.15915z" fill="url(#color-1)" stroke="none" stroke-width="0" stroke-linecap="butt"/></g></g></svg>