<svg version="1.1" xmlns="http://www.w3.org/2000/svg" xmlns:xlink="http://www.w3.org/1999/xlink" width="650" height="418" viewBox="0,0,650,418"><defs><linearGradient x1="226" y1="-29" x2="226" y2="389" gradientUnits="userSpaceOnUse" id="color-1"><stop offset="0" stop-color="#8e0d79"/><stop offset="1" stop-color="#c832a7"/></linearGradient></defs><g transform="translate(85,29)"><g data-paper-data="{&quot;isPaintingLayer&quot;:true}" fill-rule="nonzero" stroke-linejoin="miter" stroke-miterlimit="10" stroke-dasharray="" stroke-dashoffset="0" style="mix-blend-mode: normal"><path d="M482,-29v418h-512v-418z" data-paper-data="{&quot;index&quot;:null}" fill="url(#color-1)" stroke="none" stroke-width="0" stroke-linecap="butt"/><path d="M565,255.0204c0,57.06845 -59.0477,43.99925 -131.88673,43.99925c-72.83903,0 -131.88673,13.0692 -131.88673,-43.99925c0,-57.06845 69.89855,-174.66537 131.88673,-174.66537c61.98818,0 131.88673,117.59692 131.88673,174.66537z" fill="#ac1693" stroke="none" stroke-width="0" stroke-linecap="butt"/><path d="M392,232.02106c0,48.24695 -49.92025,37.19796 -111.5,37.19796c-61.57975,0 -111.5,11.04899 -111.5,-37.19796c0,-48.24695 59.0938,-147.66602 111.5,-147.66602c52.4062,0 111.5,99.41908 111.5,147.66602z" fill="#ac1693" stroke="none" stroke-width="0" stroke-linecap="butt"/><path d="M267,239.63811c0,57.55017 -59.54613,44.37065 -133,44.37065c-73.45387,0 -133,13.17952 -133,-44.37065c0,-57.55017 70.48857,-176.13974 133,-176.13974c62.51143,0 133,118.58957 133,176.13974z" fill="#ac1693" stroke="none" stroke-width="0" stroke-linecap="butt"/><path d="M138,267.02106c0,48.24695 -49.92025,37.19796 -111.5,37.19796c-61.57975,0 -111.5,11.04899 -111.5,-37.19796c0,-48.24695 59.0938,-147.66603 111.5,-147.66603c52.4062,0 111.5,99.41908 111.5,147.66603z" fill="#ac1693" stroke="none" stroke-width="0" stroke-linecap="butt"/><path d="M201,320.15321c0,56.90111 -58.87456,43.87023 -131.5,43.87023c-72.62544,0 -131.5,13.03088 -131.5,-43.87023c0,-56.90111 69.69358,-174.15321 131.5,-174.15321c61.80642,0 131.5,117.2521 131.5,174.15321z" fill="#b32594" stroke="none" stroke-width="0" stroke-linecap="butt"/><path d="M388.96096,318.85812c0,69.87391 -72.29727,53.87214 -161.48048,53.87214c-89.18321,0 -161.48048,16.00176 -161.48048,-53.87214c0,-69.87391 85.58292,-213.85812 161.48048,-213.85812c75.89756,0 161.48048,143.98422 161.48048,213.85812z" fill="#b32594" stroke="none" stroke-width="0" stroke-linecap="butt"/><path d="M517,332.15321c0,56.90111 -58.87455,43.87023 -131.5,43.87023c-72.62545,0 -131.5,13.03088 -131.5,-43.87023c0,-56.90111 69.69358,-174.1532 131.5,-174.1532c61.80642,0 131.5,117.2521 131.5,174.15321z" fill="#b32594" stroke="none" stroke-width="0" stroke-linecap="butt"/><path d="M462,120.21666c0,-0.27614 0.22386,-0.5 0.5,-0.5c0.27614,0 0.5,0.22386 0.5,0.5c0,0.27614 -0.22386,0.5 -0.5,0.5c-0.27614,0 -0.5,-0.22386 -0.5,-0.5z" fill="#421478" stroke="none" stroke-width="0.5" stroke-linecap="butt"/><path d="M-5,373v-62h493v62z" fill="#5b004b" stroke="none" stroke-width="0" stroke-linecap="butt"/><path d="M489.5,316h-499" fill="none" stroke="#8c0067" stroke-width="10" stroke-linecap="round"/></g></g></svg>