<svg version="1.1" xmlns="http://www.w3.org/2000/svg" xmlns:xlink="http://www.w3.org/1999/xlink" width="50.56" height="50.56" viewBox="0,0,50.56,50.56"><defs><radialGradient cx="239.83824" cy="180.14067" r="21.36264" gradientUnits="userSpaceOnUse" id="color-1"><stop offset="0" stop-color="#1d3944"/><stop offset="1" stop-color="#1d3944" stop-opacity="0"/></radialGradient><radialGradient cx="239.97109" cy="180.15742" r="17.99009" gradientUnits="userSpaceOnUse" id="color-2"><stop offset="0" stop-color="#22944e"/><stop offset="1" stop-color="#22944e" stop-opacity="0"/></radialGradient></defs><g transform="translate(-214.72,-154.72)"><g data-paper-data="{&quot;isPaintingLayer&quot;:true}" fill-rule="nonzero" stroke-width="0" stroke-linejoin="miter" stroke-miterlimit="10" stroke-dasharray="" stroke-dashoffset="0" style="mix-blend-mode: normal"><path d="M214.72,180c0,-13.96176 11.31824,-25.28 25.28,-25.28c13.96176,0 25.28,11.31824 25.28,25.28c0,13.96176 -11.31824,25.28 -25.28,25.28c-13.96176,0 -25.28,-11.31824 -25.28,-25.28z" fill="#4f5268" stroke="none" stroke-linecap="butt"/><path d="M217.06667,180.21329c0,-12.66573 10.2676,-22.93333 22.93333,-22.93333c12.66573,0 22.93334,10.2676 22.93334,22.93333c0,12.66573 -10.26761,22.93334 -22.93333,22.93334c-12.66573,0 -22.93333,-10.2676 -22.93333,-22.93333z" fill="#00050a" stroke="none" stroke-linecap="butt"/><path d="M218.4756,180.14067c0,-11.79826 9.56438,-21.36264 21.36264,-21.36264c11.79826,0 21.36264,9.56438 21.36264,21.36264c0,11.79826 -9.56438,21.36264 -21.36264,21.36264c-11.79826,0 -21.36264,-9.56438 -21.36264,-21.36264z" fill="url(#color-1)" stroke="none" stroke-linecap="butt"/><g fill="#1d3944" stroke="none" stroke-linecap="butt"><path d="M226.91516,193.23952v-25.67033h25.67033v25.67033z"/><path d="M221.59866,180.40437l18.15166,-18.15166l18.15166,18.15166l-18.15166,18.15166z"/><path d="M223.30582,188.08951l8.75939,-24.12963l24.12963,8.75939l-8.75938,24.12963z"/><path d="M222.6881,174.21053l23.25605,-10.8684l10.8684,23.25605l-23.25605,10.8684z"/></g><path d="M242.43515,184.58206l-22.2439,6.63415l16.91057,-15.08943l19.76026,-5.27427z" fill="url(#color-2)" stroke="#000000" stroke-linecap="round"/><path d="M226.04303,188.44519l17.03597,-12.08633h4.259l-2.07194,3.45324z" fill="#013a2e" stroke="#000000" stroke-linecap="round"/><path d="M233.87037,183.61066l11.16547,-7.71223l9.20864,-3.56834l-7.71223,6.21582z" fill="#85ef92" stroke="#000000" stroke-linecap="round"/></g></g></svg>