<svg version="1.1" xmlns="http://www.w3.org/2000/svg" xmlns:xlink="http://www.w3.org/1999/xlink" width="24.72222" height="30.55556" viewBox="0,0,24.72222,30.55556"><g transform="translate(-227.63889,-163.72222)"><g data-paper-data="{&quot;isPaintingLayer&quot;:true}" fill-rule="nonzero" stroke-linejoin="miter" stroke-miterlimit="10" stroke-dasharray="" stroke-dashoffset="0" style="mix-blend-mode: normal"><g stroke-width="0.2" stroke-linecap="round"><path d="M239.72768,185.18261c0,0 -1.1208,0.9935 -1.1049,1.05244c0.35861,1.3298 0.99301,3.0979 0.99301,3.0979c0,0 -0.80622,0.20555 -1.57869,0.21204c-0.75266,0.00633 -2.26746,-0.2505 -2.26746,-0.2505c0,0 -0.92113,-2.92083 -0.45803,-3.42308c0.03591,-0.03895 2.84615,-1.58042 2.84615,-1.58042" fill="#291767" stroke="#140040"/><path d="M237.24704,190.38727c-0.68534,0.04293 -1.77776,0.04901 -1.77776,0.04901c0,0 -0.14147,-0.27292 -0.14147,-0.47917c0,-0.20625 0.14147,-0.5232 0.14147,-0.5232c0,0 0.98702,-0.24105 1.97582,-0.28355h0.14619c0.98879,0.0425 1.97582,0.28355 1.97582,0.28355c0,0 0.14147,0.31695 0.14147,0.5232c0,0.20625 -0.14147,0.47917 -0.14147,0.47917c0,0 -1.09242,-0.00607 -1.77777,-0.04901z" data-paper-data="{&quot;index&quot;:null}" fill="#ff9600" stroke="#57002a"/></g><g data-paper-data="{&quot;index&quot;:null}" stroke-width="0.2" stroke-linecap="round"><path d="M241.84224,184.29099c0,0 2.81024,1.54147 2.84615,1.58042c0.4631,0.50225 -0.45803,3.42308 -0.45803,3.42308c0,0 -1.5148,0.25683 -2.26746,0.2505c-0.77247,-0.00649 -1.57869,-0.21204 -1.57869,-0.21204c0,0 0.6344,-1.7681 0.99301,-3.0979c0.0159,-0.05894 -1.1049,-1.05244 -1.1049,-1.05244" fill="#291767" stroke="#140040"/><path d="M242.21066,190.38727c-0.68535,0.04294 -1.77777,0.04901 -1.77777,0.04901c0,0 -0.14147,-0.27292 -0.14147,-0.47917c0,-0.20625 0.14147,-0.5232 0.14147,-0.5232c0,0 0.98703,-0.24105 1.97582,-0.28355h0.14619c0.9888,0.0425 1.97582,0.28355 1.97582,0.28355c0,0 0.14147,0.31695 0.14147,0.5232c0,0.20625 -0.14147,0.47917 -0.14147,0.47917c0,0 -1.09242,-0.00608 -1.77776,-0.04901z" data-paper-data="{&quot;index&quot;:null}" fill="#ff9600" stroke="#57002a"/></g><path d="M241.78825,180.39239c0,0 1.29278,0.36317 1.30769,1.03846c0.02578,1.1676 -1.07693,1.23077 -1.07693,1.23077l0.42308,2.59091h-4.88417l0.42308,-2.59091c0,0 -1.10272,-0.06317 -1.07693,-1.23077c0.01491,-0.67529 1.30769,-1.03846 1.30769,-1.03846" fill="#54debe" stroke="#001a61" stroke-width="0.2" stroke-linecap="round"/><path d="M242.62981,180.79383c0,1.20945 -1.1774,2.18991 -2.62981,2.18991c-1.4524,0 -2.62981,-0.98046 -2.62981,-2.18991c0,-1.20945 1.1774,-2.1899 2.62981,-2.1899c1.4524,0 2.62981,0.98045 2.62981,2.1899z" fill="#1093ab" stroke="none" stroke-width="0" stroke-linecap="butt"/><g stroke-width="0.2"><path d="M233.39254,172.48191c0.80465,-0.58323 1.41743,-0.48711 2.03957,0.31994c0.62215,0.80704 0.56116,1.27164 -0.24349,1.85487c-0.80465,0.58323 -1.41744,0.48711 -2.03959,-0.31993c-0.62215,-0.80704 -0.56116,-1.27165 0.24351,-1.85487z" fill="#5d00ff" stroke="#23006c" stroke-linecap="butt"/><path d="M236.24231,177.61843c0,0 -2.08129,-1.94613 -2.19532,-1.98477c-1.26079,-0.42737 -1.03571,-0.93638 -1.03571,-0.93638l2.87625,-1.68503c0,0 1.2899,0.32825 0.54795,1.33715c-0.04304,0.05853 1.24399,3.03565 1.24399,3.03565" fill="#54debe" stroke="#001a61" stroke-linecap="round"/></g><g data-paper-data="{&quot;index&quot;:null}" stroke-width="0.2"><path d="M246.60747,172.48192c0.80466,0.58323 0.86565,1.04783 0.24351,1.85487c-0.62215,0.80704 -1.23494,0.90316 -2.03959,0.31993c-0.80465,-0.58323 -0.86564,-1.04783 -0.24349,-1.85487c0.62214,-0.80705 1.23492,-0.90318 2.03957,-0.31994z" fill="#5d00ff" stroke="#23006c" stroke-linecap="butt"/><path d="M242.32053,177.38505c0,0 1.28703,-2.97712 1.24399,-3.03565c-0.74195,-1.0089 0.54795,-1.33715 0.54795,-1.33715l2.87625,1.68503c0,0 0.22508,0.50901 -1.03571,0.93638c-0.11403,0.03865 -2.19532,1.98477 -2.19532,1.98477" fill="#54debe" stroke="#001a61" stroke-linecap="round"/></g><path d="M237.38463,180.35392c-2.28531,-0.17413 -3.03846,-1.53846 -3.03846,-1.53846l1.15384,-0.23077c0,0 -0.64697,-0.41777 -0.92534,-0.8552c-0.27837,-0.43744 -0.42082,-1.26018 -0.42082,-1.26018l2.46154,-0.03846" fill="#3700ad" stroke="#23006c" stroke-width="0.2" stroke-linecap="round"/><path d="M243.38462,176.43085l2.46154,0.03846c0,0 -0.14245,0.82274 -0.42082,1.26018c-0.27837,0.43743 -0.92534,0.8552 -0.92534,0.8552l1.15384,0.23077c0,0 -0.75315,1.36433 -3.03846,1.53846" data-paper-data="{&quot;index&quot;:null}" fill="#3700ad" stroke="#23006c" stroke-width="0.2" stroke-linecap="round"/><path d="M240.11619,171.79546c0,0 2.26276,0.53934 3.15245,2.08c0.78994,1.36791 0.23986,3.4 0.23986,3.4c0,0 0.63627,2.07264 0.10279,3.12c-0.53348,1.04736 -2.56993,1.44 -2.56993,1.44h-2.0827c0,0 -2.03645,-0.39264 -2.56993,-1.44c-0.53348,-1.04736 0.10279,-3.12 0.10279,-3.12c0,0 -0.55008,-2.03209 0.23986,-3.4c0.8897,-1.54067 3.15245,-2.08 3.15245,-2.08z" fill="#5d00ff" stroke="#23006c" stroke-width="0.2" stroke-linecap="round"/><path d="M238.53986,177.93281c0,0 -0.50015,-1.14963 -0.24254,-1.84c0.25761,-0.69037 1.60077,-1.8 1.60077,-1.8h0.07179c0,0 1.34316,1.10963 1.60077,1.8c0.25761,0.69037 -0.24254,1.84 -0.24254,1.84" data-paper-data="{&quot;index&quot;:null}" fill="none" stroke="#23006c" stroke-width="0.2" stroke-linecap="round"/><path d="M238.25681,178.79765c0.16618,-0.16037 0.43559,-0.16037 0.60177,0c0.16618,0.16037 0.16618,2.26686 0,2.42723c-0.16618,0.16037 -0.43559,0.16037 -0.60177,0c-0.16618,-0.16037 -0.16618,-2.26686 0,-2.42723z" fill="#140040" stroke="none" stroke-width="0" stroke-linecap="butt"/><path d="M241.14143,178.79765c0.16618,-0.16037 0.43559,-0.16037 0.60177,0c0.16618,0.16037 0.16618,2.26686 0,2.42723c-0.16618,0.16037 -0.43559,0.16037 -0.60177,0c-0.16618,-0.16037 -0.16618,-2.26686 0,-2.42723z" fill="#140040" stroke="none" stroke-width="0" stroke-linecap="butt"/><path d="M239.80265,182.70925c-0.49881,0.0664 -1.29391,-0.4 -1.29391,-0.4c0,0 -0.10297,-0.42202 -0.10297,-0.74096c0,-0.31894 0.10297,-0.80904 0.10297,-0.80904c0,0 0.71839,-0.37274 1.43806,-0.43846h0.1064c0.71967,0.06572 1.43806,0.43846 1.43806,0.43846c0,0 0.10297,0.4901 0.10297,0.80904c0,0.31894 -0.10297,0.74096 -0.10297,0.74096c0,0 -0.79509,0.4664 -1.29391,0.4z" data-paper-data="{&quot;index&quot;:null}" fill="#ff9600" stroke="#57002a" stroke-width="0.2" stroke-linecap="round"/><path d="M243.422,178.10742c1.32672,1.36918 -0.07693,4.88462 -0.07693,4.88462c0,0 -1.20986,-2.59237 -0.84615,-4.11539" fill="#5d00ff" stroke="#23006c" stroke-width="0.2" stroke-linecap="round"/><path d="M237.50109,178.87665c0.36371,1.52302 -0.84615,4.11539 -0.84615,4.11539c0,0 -1.40365,-3.51544 -0.07693,-4.88462" data-paper-data="{&quot;index&quot;:null}" fill="#5d00ff" stroke="#23006c" stroke-width="0.2" stroke-linecap="round"/><path d="M227.63889,194.27778v-30.55556h24.72222v30.55556z" fill="none" stroke="none" stroke-width="0" stroke-linecap="butt"/></g></g></svg>