<svg version="1.1" xmlns="http://www.w3.org/2000/svg" xmlns:xlink="http://www.w3.org/1999/xlink" width="50.56" height="50.56" viewBox="0,0,50.56,50.56"><defs><radialGradient cx="341.82604" cy="251.72489" r="21.36264" gradientUnits="userSpaceOnUse" id="color-1"><stop offset="0" stop-color="#1d3944"/><stop offset="1" stop-color="#1d3944" stop-opacity="0"/></radialGradient><linearGradient x1="322.17904" y1="255.25571" x2="344.42295" y2="255.25571" gradientUnits="userSpaceOnUse" id="color-2"><stop offset="0" stop-color="#22944e" stop-opacity="0"/><stop offset="1" stop-color="#22944e"/></linearGradient><radialGradient cx="348.9758" cy="249.27197" r="9.88618" gradientUnits="userSpaceOnUse" id="color-3"><stop offset="0" stop-color="#22944e"/><stop offset="1" stop-color="#22944e" stop-opacity="0"/></radialGradient></defs><g transform="translate(-316.7078,-226.30422)"><g data-paper-data="{&quot;isPaintingLayer&quot;:true}" fill-rule="nonzero" stroke-width="0" stroke-linejoin="miter" stroke-miterlimit="10" stroke-dasharray="" stroke-dashoffset="0" style="mix-blend-mode: normal"><path d="M316.7078,251.58422c0,-13.96176 11.31824,-25.28 25.28,-25.28c13.96176,0 25.28,11.31824 25.28,25.28c0,13.96176 -11.31824,25.28 -25.28,25.28c-13.96176,0 -25.28,-11.31824 -25.28,-25.28z" fill="#4f5268" stroke="none" stroke-linecap="butt"/><path d="M319.05447,251.79751c0,-12.66573 10.2676,-22.93333 22.93333,-22.93333c12.66573,0 22.93334,10.2676 22.93334,22.93333c0,12.66573 -10.26761,22.93334 -22.93333,22.93334c-12.66573,0 -22.93333,-10.2676 -22.93333,-22.93333z" fill="#00050a" stroke="none" stroke-linecap="butt"/><path d="M320.4634,251.72489c0,-11.79826 9.56438,-21.36264 21.36264,-21.36264c11.79826,0 21.36264,9.56438 21.36264,21.36264c0,11.79826 -9.56438,21.36264 -21.36264,21.36264c-11.79826,0 -21.36264,-9.56438 -21.36264,-21.36264z" fill="url(#color-1)" stroke="none" stroke-linecap="butt"/><g fill="#1d3944" stroke="none" stroke-linecap="butt"><path d="M328.90296,264.82374v-25.67033h25.67033v25.67033z"/><path d="M323.58646,251.98859l18.15166,-18.15166l18.15166,18.15166l-18.15166,18.15166z"/><path d="M325.29362,259.67373l8.75939,-24.12963l24.12963,8.75939l-8.75938,24.12963z"/><path d="M324.6759,245.79475l23.25605,-10.8684l10.8684,23.25605l-23.25605,10.8684z"/></g><path d="M344.42295,256.16628l-22.2439,6.63415l16.91057,-15.08943z" fill="url(#color-2)" stroke="#000000" stroke-linecap="round"/><path d="M339.08962,247.711l19.77236,-5.33334l-14.56911,13.78862z" fill="url(#color-3)" stroke="#000000" stroke-linecap="round"/></g></g></svg>