<svg version="1.1" xmlns="http://www.w3.org/2000/svg" xmlns:xlink="http://www.w3.org/1999/xlink" width="28.8" height="89.1" viewBox="0,0,28.8,89.1"><g transform="translate(-212.7,-160.3)"><g fill="#ffffff" stroke="none" stroke-miterlimit="10"><path d="M239.8,199h-25.1c-0.46667,0 -0.83333,-0.06667 -1.1,-0.2c-0.26667,-0.2 -0.46667,-0.46667 -0.6,-0.8c-0.13333,-0.33333 -0.13333,-0.7 0,-1.1c0.06667,-0.4 0.26667,-0.83333 0.6,-1.3l23.7,-33.8v1.5h-22.9c-0.53333,0 -0.93333,-0.1 -1.2,-0.3c-0.33333,-0.33333 -0.5,-0.73333 -0.5,-1.2c0,-0.46667 0.16667,-0.83333 0.5,-1.1c0.26667,-0.26667 0.66667,-0.4 1.2,-0.4h24.3c0.46667,0 0.83333,0.1 1.1,0.3c0.26667,0.2 0.46667,0.46667 0.6,0.8c0.13333,0.26667 0.13333,0.63333 0,1.1c-0.06667,0.4 -0.26667,0.8 -0.6,1.2l-23.7,33.8v-1.5h23.7c0.53333,0 0.93333,0.13333 1.2,0.4c0.33333,0.26667 0.5,0.63333 0.5,1.1c0,0.46667 -0.16667,0.83333 -0.5,1.1c-0.26667,0.26667 -0.66667,0.4 -1.2,0.4z"/><path d="M214.2,249.4c-0.33333,0 -0.66667,-0.1 -1,-0.3c-0.2,-0.26667 -0.33333,-0.56667 -0.4,-0.9c0,-0.4 0.16667,-0.83333 0.5,-1.3l10,-12.6v1.9l-9.3,-11.7c-0.4,-0.46667 -0.6,-0.86667 -0.6,-1.2c0.06667,-0.4 0.23333,-0.7 0.5,-0.9c0.26667,-0.26667 0.56667,-0.4 0.9,-0.4c0.46667,0 0.83333,0.1 1.1,0.3c0.33333,0.13333 0.6,0.36667 0.8,0.7l8.5,10.7h-1.2l8.4,-10.7c0.26667,-0.33333 0.53333,-0.56667 0.8,-0.7c0.33333,-0.2 0.7,-0.3 1.1,-0.3c0.4,0 0.73333,0.13333 1,0.4c0.26667,0.2 0.4,0.5 0.4,0.9c0,0.33333 -0.16667,0.73333 -0.5,1.2l-9.3,11.5v-1.5l9.9,12.4c0.4,0.46667 0.56667,0.9 0.5,1.3c0,0.33333 -0.13333,0.63333 -0.4,0.9c-0.26667,0.2 -0.56667,0.3 -0.9,0.3c-0.46667,0 -0.86667,-0.06667 -1.2,-0.2c-0.26667,-0.2 -0.53333,-0.46667 -0.8,-0.8l-9,-11.4h1.2l-9.1,11.4c-0.2,0.26667 -0.46667,0.5 -0.8,0.7c-0.33333,0.2 -0.7,0.3 -1.1,0.3z"/></g></g></svg>