<svg version="1.1" xmlns="http://www.w3.org/2000/svg" xmlns:xlink="http://www.w3.org/1999/xlink" width="84" height="78.12903" viewBox="0,0,84,78.12903"><defs><linearGradient x1="232.5" y1="165.3125" x2="232.5" y2="179.6875" gradientUnits="userSpaceOnUse" id="color-1"><stop offset="0" stop-color="#030030"/><stop offset="1" stop-color="#091441"/></linearGradient><linearGradient x1="247.5" y1="165.3125" x2="247.5" y2="179.6875" gradientUnits="userSpaceOnUse" id="color-2"><stop offset="0" stop-color="#030030"/><stop offset="1" stop-color="#091441"/></linearGradient><linearGradient x1="232.5" y1="180.3125" x2="232.5" y2="194.6875" gradientUnits="userSpaceOnUse" id="color-3"><stop offset="0" stop-color="#0a1542"/><stop offset="1" stop-color="#102954"/></linearGradient><linearGradient x1="247.5" y1="180.3125" x2="247.5" y2="194.6875" gradientUnits="userSpaceOnUse" id="color-4"><stop offset="0" stop-color="#0a1542"/><stop offset="1" stop-color="#102954"/></linearGradient><linearGradient x1="240" y1="165.325" x2="240" y2="194.675" gradientUnits="userSpaceOnUse" id="color-5"><stop offset="0" stop-color="#030030"/><stop offset="1" stop-color="#102954"/></linearGradient></defs><g transform="translate(-198,-140.93548)"><g data-paper-data="{&quot;isPaintingLayer&quot;:true}" fill-rule="nonzero" stroke="none" stroke-width="0" stroke-linecap="butt" stroke-linejoin="miter" stroke-miterlimit="10" stroke-dasharray="" stroke-dashoffset="0" style="mix-blend-mode: normal"><path d="M225.3125,172.5c0,-3.96955 3.21795,-7.1875 7.1875,-7.1875c3.96955,0 7.1875,3.21795 7.1875,7.1875c0,3.96955 -3.21795,7.1875 -7.1875,7.1875c-3.96955,0 -7.1875,-3.21795 -7.1875,-7.1875z" fill="url(#color-1)"/><path d="M240.3125,172.5c0,-3.96955 3.21795,-7.1875 7.1875,-7.1875c3.96955,0 7.1875,3.21795 7.1875,7.1875c0,3.96955 -3.21795,7.1875 -7.1875,7.1875c-3.96955,0 -7.1875,-3.21795 -7.1875,-7.1875z" fill="url(#color-2)"/><path d="M225.3125,187.5c0,-3.96955 3.21795,-7.1875 7.1875,-7.1875c3.96955,0 7.1875,3.21795 7.1875,7.1875c0,3.96955 -3.21795,7.1875 -7.1875,7.1875c-3.96955,0 -7.1875,-3.21795 -7.1875,-7.1875z" fill="url(#color-3)"/><path d="M240.3125,187.5c0,-3.96955 3.21795,-7.1875 7.1875,-7.1875c3.96955,0 7.1875,3.21795 7.1875,7.1875c0,3.96955 -3.21795,7.1875 -7.1875,7.1875c-3.96955,0 -7.1875,-3.21795 -7.1875,-7.1875z" fill="url(#color-4)"/><path d="M225.325,188.00455v-15.77192l8.03419,-6.90763h14.01616c0,0 -1.46003,8.70068 -0.58041,9.50073c1.05491,0.95949 7.88006,-3.03472 7.88006,-3.03472v15.73919l-7.55985,7.1448h-13.51879z" fill="url(#color-5)"/><path d="M231.7,180c0,-4.58396 3.71604,-8.3 8.3,-8.3c4.58396,0 8.3,3.71604 8.3,8.3c0,4.58396 -3.71604,8.3 -8.3,8.3c-4.58396,0 -8.3,-3.71604 -8.3,-8.3z" fill="#ffffff"/><path d="M235.6,180c0,-2.43005 1.96995,-4.4 4.4,-4.4c2.43005,0 4.4,1.96995 4.4,4.4c0,2.43005 -1.96995,4.4 -4.4,4.4c-2.43005,0 -4.4,-1.96995 -4.4,-4.4z" fill="#000000"/><path d="M240.4,177.5c0,-1.29787 1.05213,-2.35 2.35,-2.35c1.29787,0 2.35,1.05213 2.35,2.35c0,1.29787 -1.05213,2.35 -2.35,2.35c-1.29787,0 -2.35,-1.05213 -2.35,-2.35z" fill="#ffffff"/><path d="M198,219.06452v-78.12903h84v78.12903z" fill="none"/></g></g></svg>