<svg version="1.1" xmlns="http://www.w3.org/2000/svg" xmlns:xlink="http://www.w3.org/1999/xlink" width="7.66153" height="16.247" viewBox="0,0,7.66153,16.247"><g transform="translate(-236.16923,-168.43205)"><g data-paper-data="{&quot;isPaintingLayer&quot;:true}" fill-rule="nonzero" stroke-linecap="butt" stroke-linejoin="miter" stroke-miterlimit="10" stroke-dasharray="" stroke-dashoffset="0" style="mix-blend-mode: normal"><path d="M236.26923,183.24572v-13.76923c0,0 2.25144,-0.94444 3.76709,-0.94444c1.51566,0 3.69444,0.94444 3.69444,0.94444v13.76923c0,0 -2.16162,1.33333 -3.69444,1.33333c-1.53283,0 -3.76709,-1.33333 -3.76709,-1.33333z" fill="#3700ad" stroke="#23006c" stroke-width="0.2"/><path d="M241.61423,170.36829l-0.06323,0.0175c0.02697,0.07313 0.05091,0.14596 0.07216,0.21886c0.03279,-0.21031 0.03673,-0.41776 -0.03076,-0.61694c-0.00792,-0.02336 -0.01663,-0.0445 -0.02607,-0.06353l-0.04098,0.12294zM242.04305,169.77111c0.26235,0.51712 0.04879,1.5311 -0.18574,2.2967l0.03244,0.00295l-0.04504,0.49541c-0.01023,0.12867 -0.1179,0.2299 -0.2492,0.2299c-0.12579,0 -0.22989,-0.09291 -0.24741,-0.21385l-0.05495,-0.33779l0.0076,-0.00124l-0.00998,-0.01817c-0.00111,-0.17719 -0.03162,-0.39267 -0.06406,-0.61915c-0.11795,0.94812 -0.22197,2.01658 -0.59728,2.77598l0.08708,0.03483l-0.10895,0.27237c-0.03545,0.09495 -0.12697,0.16256 -0.23428,0.16256c-0.13716,0 -0.24852,-0.11045 -0.24999,-0.24726l-0.00313,-0.24967c-0.00338,-0.15998 -0.00676,-0.31995 -0.01013,-0.47993c-0.05051,-0.2927 -0.29545,-2.6322 -0.41611,-3.84976c-0.07564,0.76288 -0.32285,1.94761 -0.51294,2.68496l0.01197,0.08382l0.09359,0.0156l-0.05488,0.32928c-0.0179,0.1205 -0.12179,0.21295 -0.24727,0.21295c-0.12733,0 -0.23242,-0.09519 -0.24801,-0.21828l-0.05504,-0.38525l0.00623,-0.00089l-0.00811,-0.01668c-0.00037,-0.20593 -0.06064,-0.46812 -0.13625,-0.74304c-0.04031,0.08396 -0.12613,0.14192 -0.22549,0.14192c-0.13665,0 -0.24769,-0.10963 -0.24996,-0.24573l-0.008,-0.41012c-0.07469,-0.7868 0.30254,-2.20163 -0.30275,-1.13678c0,0 -0.12403,0.21706 -0.3411,0.09303c-0.21706,-0.12403 -0.09303,-0.3411 -0.09303,-0.3411c0.59462,-1.03566 0.88192,-0.79088 1.03564,-0.20647c0.01214,-0.00583 0.02481,-0.01073 0.03803,-0.01467c0.29643,-0.08817 0.48245,0.14067 0.59862,0.50294c0.12197,-0.82313 0.32143,-1.54048 0.56902,-1.57247c0.20167,-0.02605 0.36995,0.39773 0.50887,1.01044c0.02454,-0.00805 0.05076,-0.01241 0.078,-0.01241c0.08825,0 0.16582,0.04573 0.21031,0.11478c0.49415,-0.5744 1.24705,-0.99644 1.68168,-0.13975zM240.44393,172.29372c0.0017,0.0156 0.00338,0.03114 0.00506,0.04662c0.00315,-0.01507 0.00632,-0.03014 0.00951,-0.0452c-0.00497,-0.00037 -0.00982,-0.00084 -0.01457,-0.00142z" fill="#54debe" stroke="none" stroke-width="0.5"/><path d="M241.31531,182.29763c0.11113,0.17082 0.2211,0.3432 0.31352,0.51285c-0.07869,-0.78085 -0.22358,-1.63134 -0.24026,-2.42429c-0.05852,0.13733 -0.1273,0.26728 -0.20954,0.39188c0.0197,0.02441 0.03491,0.0526 0.04435,0.08331l0.0432,0.1296c0.06733,0.03515 0.11666,0.10006 0.13053,0.17728l0.05465,0.27324l-0.08832,0.01766l-0.01121,0.06727c0.03372,0.17162 0.04801,0.34795 0.04883,0.51965v0.05556c0,0 0,0.1225 -0.08575,0.196zM240.29468,181.81671c-0.033,-0.1694 -0.07026,-0.32343 -0.09196,-0.47674c-0.53845,1.19121 -0.90798,1.14745 -1.07491,0.66565c-0.08813,-0.02925 -0.1545,-0.10622 -0.16847,-0.20028l-0.01626,-0.09755c-0.13675,0.37138 -0.28682,0.70078 -0.44989,0.96579l0.09446,0.05668l-0.16431,0.27385c-0.04318,0.07489 -0.12407,0.12531 -0.21673,0.12531c-0.13807,0 -0.25,-0.11193 -0.25,-0.25v-0.44444l0.00233,0l-0.0022,-0.00832c0.00993,-0.14979 0.00622,-0.37361 -0.00282,-0.64335c-0.0395,0.1179 -0.08095,0.2348 -0.12435,0.35056c0,0 -0.08778,0.23408 -0.32186,0.1463c-0.23408,-0.08778 -0.1463,-0.32186 -0.1463,-0.32186c0.24708,-0.65869 0.42483,-1.35287 0.54039,-2.05808c0.00275,-0.60886 0.03969,-1.19023 0.15768,-1.58532c0.00582,-0.15384 0.00895,-0.30734 0.00947,-0.46025l0.01449,-0.0221l-0.01086,-0.00217l0.05465,-0.27324c0.02099,-0.11685 0.12317,-0.20551 0.24605,-0.20551c0.13807,0 0.25,0.11193 0.25,0.25v0.38889h-0.05695c-0.00005,0.00897 -0.00011,0.01794 -0.00017,0.02692c0.11309,0.64948 0.11466,1.37955 0.07552,2.10706c0.09988,-0.3909 0.20747,-0.78683 0.31072,-1.18489c0.06229,-0.97977 0.19781,-1.97864 0.48992,-2.62516c0.01013,-0.15394 0.01554,-0.30722 0.0155,-0.45967l0.01456,-0.02221l-0.01092,-0.00218l0.05465,-0.27324c0.02099,-0.11685 0.12317,-0.20551 0.24605,-0.20551c0.13807,0 0.25,0.11193 0.25,0.25v0.5l-0.05951,0c-0.00137,0.05269 -0.00324,0.10749 -0.00563,0.16424c0.07201,0.99391 -0.13755,2.05222 -0.31774,3.09588c0.25319,-0.89275 0.54082,-1.79804 0.61546,-2.1647l0.01512,-0.01857l-0.0076,-0.00304l0.10895,-0.27237c0.03545,-0.09495 0.12697,-0.16256 0.23428,-0.16256c0.12115,0 0.22217,0.08618 0.24511,0.20057l0.1074,0.48329l-0.09635,0.02141c0.19137,0.90265 0.02026,1.85028 -0.0419,2.79573c0.13766,-0.3532 0.31936,-0.73286 0.35973,-0.98935l0.00036,-0.00079l-0.00022,-0.00004l0.06744,-0.40862c0.01774,-0.12068 0.12172,-0.21332 0.24733,-0.21332c0.10393,0 0.19306,0.06342 0.23077,0.15368l0.20075,0.45169l-0.11324,0.05033c0.48432,1.25466 0.35937,3.04533 0.37608,4.30937l-0.00056,0.00156l0.00056,0l0.00007,0.2833c0,0.00002 0,0.00005 0,0.00007c0,0.13807 -0.11193,0.25 -0.25,0.25c-0.0965,0 -0.18024,-0.05468 -0.22191,-0.13475l-0.23699,-0.43449l0.02061,-0.01124c-0.31002,-0.38294 -0.58303,-0.78202 -0.81392,-1.21256c-0.00908,0.001 -0.01831,0.00151 -0.02766,0.00151c-0.07028,0 -0.13379,-0.029 -0.17921,-0.07569c-0.06208,-0.0362 -0.10715,-0.09838 -0.12031,-0.17164l-0.05465,-0.27324l0.00018,-0.00004zM239.62236,181.40806c-0.01545,0.04572 -0.03042,0.08903 -0.04453,0.12918l0.0069,0.00345c0.0251,-0.06187 0.05498,-0.13507 0.09016,-0.22064c-0.01714,0.02949 -0.03465,0.05883 -0.05253,0.08801zM239.49808,181.75671c0.0065,-0.01649 0.01438,-0.03635 0.02372,-0.05977l-0.00552,0.01104c-0.00675,0.01823 -0.01285,0.03455 -0.01821,0.04874zM240.27539,179.805c-0.00017,-0.01465 -0.00034,-0.02933 -0.00049,-0.04404c-0.00271,0.01093 -0.00543,0.02186 -0.00817,0.03277c0.00291,0.00372 0.0058,0.00747 0.00867,0.01126z" fill="#54debe" stroke="none" stroke-width="0.5"/><path d="M237.23012,169.53113c0.23717,0.07906 0.15811,0.31623 0.15811,0.31623l-0.10151,0.29432c0.00544,0.4942 0.22341,1.70331 0.03204,2.3826c0.00421,0.15062 -0.0045,0.30345 -0.03367,0.45972l-0.05465,0.27324c-0.02099,0.11685 -0.12317,0.20551 -0.24605,0.20551c-0.13807,0 -0.25,-0.11193 -0.25,-0.25v-0.38889h0.07286c0.00176,-0.00962 0.00343,-0.01923 0.00503,-0.02884c-0.04729,-0.34983 -0.06084,-0.72472 -0.05966,-1.10228c-0.08813,-0.50151 -0.18825,-1.00809 -0.0054,-1.55905c0,0 0.01499,-0.04498 0.05151,-0.08923l0.11516,-0.35521c0,0 0.07906,-0.23717 0.31623,-0.15811z" fill="#ff9600" stroke="none" stroke-width="0.5"/><path d="M238.84802,174.45517c0,0 0.03536,-0.24749 0.28284,-0.21213c0.24749,0.03536 0.21213,0.28284 0.21213,0.28284c-0.00682,0.04719 -0.01291,0.09421 -0.01829,0.14108c0.0208,0.05369 0.0208,0.10134 0.0208,0.10134v0.16667c-0.00076,0.26521 0.00859,0.53825 -0.03831,0.7905c0.00922,0.13711 0.02206,0.27508 0.03758,0.41471l-0.00541,0.0137l0.0058,-0.00001l0.00034,0.33635c0,0.0001 0,0.0002 0,0.0003c0,0.13807 -0.11193,0.25 -0.25,0.25c-0.13062,0 -0.23784,-0.10017 -0.24903,-0.22787l-0.04948,-0.49477l0.03265,-0.00326c-0.05043,-0.52526 -0.05609,-1.0324 0.01838,-1.55945z" fill="#ff9600" stroke="none" stroke-width="0.5"/><path d="M241.12328,176.54608c0,0 0,-0.25 0.25,-0.25c0.25,0 0.25,0.25 0.25,0.25c0,0.55917 -0.02244,1.11637 -0.04716,1.67334c0.02722,0.22418 0.05098,0.45168 0.0637,0.67872c0.04677,0.29618 0.05234,0.62791 0.04266,0.95415c0.01512,0.00262 0.03099,0.00662 0.04764,0.01217c0.23717,0.07906 0.15811,0.31623 0.15811,0.31623l-0.04524,0.12297c-0.05239,0.36668 -0.08972,0.60135 -0.17642,0.84352l0.06036,0.01509l-0.10984,0.43937c-0.02526,0.11133 -0.12483,0.19444 -0.2438,0.19444c-0.13807,0 -0.25,-0.11193 -0.25,-0.25v-0.44444c0,-0.09783 -0.00116,-0.19594 -0.00319,-0.29427c-0.06521,-0.04512 -0.10793,-0.12044 -0.10793,-0.20573v-0.33333c0,-0.5786 0.02404,-1.15516 0.04976,-1.7316c0.00196,-0.06406 0.00456,-0.12802 0.00789,-0.19185l-0.04926,0.00616l-0.06153,-0.49223c-0.00159,-0.01141 -0.00242,-0.02307 -0.00242,-0.03492c0,-0.10062 0.05945,-0.18736 0.14514,-0.22701c0.01269,-0.34977 0.02153,-0.69988 0.02153,-1.05077z" fill="#ff9600" stroke="none" stroke-width="0.5"/><path d="M242.40106,171.8728c-0.13794,0.13654 -0.31258,0.24562 -0.47908,0.33814l-0.06743,-0.56486c0.12568,-0.35376 0.2195,-0.63042 0.34786,-0.9085l-0.05622,-0.02061l0.10404,-0.28382c-0.02219,-0.1328 -0.05277,-0.26614 -0.10906,-0.40535c0,0 -0.09285,-0.23212 0.13927,-0.32497c0.23212,-0.09285 0.32497,0.13927 0.32497,0.13927c0.03862,0.09746 0.06819,0.19279 0.09178,0.28719c0.0525,0.03713 0.09005,0.09398 0.10187,0.15977l0.09715,0.48575l-0.00691,0.00138l0.01055,0.02301c-0.00252,0.0828 -0.02468,0.16257 -0.06066,0.2383c0.00172,0.01044 0.00347,0.02091 0.00527,0.03141l-0.02302,0.00358c-0.00943,0.0175 -0.01958,0.03477 -0.03036,0.05179l0.03655,0.01462l-0.02927,0.07318l0.05271,0.03953l-0.06402,0.08536l0.03183,0.12732c0.08219,0.07379 0.08219,0.19288 0.08219,0.19288v0.14826c0.02663,0.07793 0.05088,0.15659 0.07236,0.23602l-0.00523,0.02423l0.00816,-0.00062l0.0349,0.45936c0.00061,0.00713 0.00092,0.01435 0.00092,0.02165c0,0.13807 -0.11193,0.25 -0.25,0.25c-0.11246,0 -0.20758,-0.07426 -0.23899,-0.17641l-0.10929,-0.32786l0.07464,-0.02488c-0.05273,-0.12477 -0.08632,-0.2545 -0.08747,-0.38751z" fill="#ff9600" stroke="none" stroke-width="0.5"/><path d="M238.96342,183.82603c-0.0801,-0.27609 -0.20974,-0.61528 -0.31656,-0.95836c-0.00692,0.03069 -0.01411,0.06142 -0.02159,0.09222l0.0517,0.00574l-0.05488,0.49394c-0.01236,0.12652 -0.11904,0.22539 -0.2488,0.22539c-0.11618,0 -0.21385,-0.07925 -0.2419,-0.18663l-0.10959,-0.38357l0.01203,-0.00344l-0.01923,-0.03057c-0.00397,-0.69534 -0.08592,-1.37637 -0.00049,-2.06568c0,0 0.03101,-0.24807 0.27908,-0.21706c0.113,0.01412 0.16809,0.07329 0.19458,0.13352c0.03263,-0.01561 0.06916,-0.02434 0.10774,-0.02434c0.11618,0 0.21385,0.07925 0.2419,0.18663l0.10959,0.38357l-0.0716,0.02046c0.3222,0.7551 0.47619,1.66778 0.63192,2.44364l-0.28557,-0.05917l-0.20472,0.15723c-0.01288,-0.06466 -0.03096,-0.13525 -0.05275,-0.21058l-0.0002,-0.00004c0,0 -0.00025,-0.00101 -0.00066,-0.0029z" fill="#ff9600" stroke="none" stroke-width="0.5"/></g></g></svg>