<svg version="1.1" xmlns="http://www.w3.org/2000/svg" xmlns:xlink="http://www.w3.org/1999/xlink" width="111.375" height="111.375" viewBox="0,0,111.375,111.375"><defs><radialGradient cx="240" cy="180" r="55.6875" gradientUnits="userSpaceOnUse" id="color-1"><stop offset="0" stop-color="#befff8"/><stop offset="1" stop-color="#befff8" stop-opacity="0"/></radialGradient><radialGradient cx="240" cy="180" r="16.0625" gradientUnits="userSpaceOnUse" id="color-2"><stop offset="0" stop-color="#effffd"/><stop offset="1" stop-color="#effffd" stop-opacity="0"/></radialGradient></defs><g transform="translate(-184.3125,-124.3125)"><g data-paper-data="{&quot;isPaintingLayer&quot;:true}" fill-rule="nonzero" stroke-linecap="butt" stroke-linejoin="miter" stroke-miterlimit="10" stroke-dasharray="" stroke-dashoffset="0" style="mix-blend-mode: normal"><path d="M184.3125,180c0,-30.75536 24.93214,-55.6875 55.6875,-55.6875c30.75536,0 55.6875,24.93214 55.6875,55.6875c0,30.75536 -24.93214,55.6875 -55.6875,55.6875c-30.75536,0 -55.6875,-24.93214 -55.6875,-55.6875z" fill="url(#color-1)" stroke="none" stroke-width="0"/><path d="M223.9375,180c0,-8.87107 7.19143,-16.0625 16.0625,-16.0625c8.87107,0 16.0625,7.19143 16.0625,16.0625c0,8.87107 -7.19143,16.0625 -16.0625,16.0625c-8.87107,0 -16.0625,-7.19143 -16.0625,-16.0625z" fill="url(#color-2)" stroke="none" stroke-width="0"/><path d="M223.50923,179.47934l24.86702,0.17478l0.54736,0.33396l-0.54524,0.34037l-24.86542,0.33096c0,0 -0.30842,-0.35267 -0.30926,-0.6247c-0.00086,-0.27206 0.30555,-0.55538 0.30555,-0.55538z" fill="#541b94" stroke="#19105a" stroke-width="0.2"/><g><path d="M245.59593,176.8325l11.20037,3.13236l-11.18048,3.20264l4.97281,-3.18315z" fill="#c0f9ff" stroke="none" stroke-width="0"/><path d="M248.94983,178.51846l4.49791,1.45693l-4.48867,1.48517l1.9961,-1.47733z" fill="#7ad1ee" stroke="#649bd4" stroke-width="0.5"/><path d="M248.94983,178.51846l4.49791,1.45693l-4.48867,1.48517l1.9961,-1.47733z" fill="#1b3a94" stroke="none" stroke-width="0"/></g></g></g></svg>