<svg version="1.1" xmlns="http://www.w3.org/2000/svg" xmlns:xlink="http://www.w3.org/1999/xlink" width="149.66502" height="56.0816" viewBox="0,0,149.66502,56.0816"><defs><linearGradient x1="49.58251" y1="-826874.57233" x2="49.58251" y2="1599666.03079" gradientUnits="userSpaceOnUse" id="color-1"><stop offset="0" stop-color="#2e2e2e"/><stop offset="1" stop-color="#2e2e2e" stop-opacity="0"/></linearGradient></defs><g transform="translate(1.5,-307.9592)"><g data-paper-data="{&quot;isPaintingLayer&quot;:true}" fill-rule="nonzero" stroke="none" stroke-linejoin="miter" stroke-miterlimit="10" stroke-dasharray="" stroke-dashoffset="0" style="mix-blend-mode: normal"><path d="M-1.5,364.0408v-56.0816h149.66502l-23,56.0816z" data-paper-data="{&quot;index&quot;:null}" fill="url(#color-1)" stroke-width="0" stroke-linecap="butt"/><path d="M6.6568,349.64775c-0.44662,0 -0.82624,-0.14515 -1.13887,-0.43545c-0.2903,-0.2903 -0.43545,-0.66992 -0.43545,-1.13887v-28.1034c0,-0.44662 0.14515,-0.81507 0.43545,-1.10537c0.31264,-0.31264 0.69225,-0.46895 1.13887,-0.46895c0.44662,0 0.81508,0.15632 1.10538,0.46895c0.31263,0.2903 0.46895,0.65875 0.46895,1.10537v12.49412h19.49482v-12.49412c0,-0.44662 0.14515,-0.81507 0.43545,-1.10537c0.2903,-0.31264 0.66993,-0.46895 1.13888,-0.46895c0.44662,0 0.81508,0.15632 1.10538,0.46895c0.2903,0.2903 0.43545,0.65875 0.43545,1.10537v28.1034c0,0.46895 -0.14515,0.84857 -0.43545,1.13887c-0.2903,0.2903 -0.65876,0.43545 -1.10538,0.43545c-0.46895,0 -0.84858,-0.14515 -1.13888,-0.43545c-0.2903,-0.2903 -0.43545,-0.66992 -0.43545,-1.13887v-12.82909h-19.49481v12.82909c0,0.46895 -0.15632,0.84857 -0.46895,1.13887c-0.2903,0.2903 -0.65876,0.43545 -1.10538,0.43545zM40.41221,349.64775c-0.44662,0 -0.82624,-0.14515 -1.13887,-0.43545c-0.2903,-0.2903 -0.43545,-0.66992 -0.43545,-1.13887v-28.1034c0,-0.44662 0.14515,-0.81507 0.43545,-1.10537c0.31264,-0.31264 0.69225,-0.46895 1.13887,-0.46895h8.00562c1.96511,0 3.70692,0.43545 5.22542,1.30635c1.5185,0.8709 2.70204,2.0656 3.55061,3.58411c0.87091,1.51851 1.30635,3.28264 1.30635,5.29242c0,1.94279 -0.43545,3.67343 -1.30635,5.19193c-0.84857,1.49617 -2.03211,2.6797 -3.55061,3.5506c-1.5185,0.84857 -3.26031,1.27286 -5.22542,1.27286h-6.43129v9.47945c0,0.46895 -0.15631,0.84857 -0.46895,1.13887c-0.2903,0.2903 -0.65876,0.43545 -1.10538,0.43545zM41.98654,335.6128h6.43129c1.36218,0 2.56804,-0.30147 3.6176,-0.9044c1.07188,-0.60294 1.90928,-1.42917 2.51222,-2.47872c0.60294,-1.07188 0.9044,-2.28892 0.9044,-3.6511c0,-1.42917 -0.30147,-2.66854 -0.9044,-3.71809c-0.60294,-1.07188 -1.44034,-1.90929 -2.51222,-2.51222c-1.04955,-0.62526 -2.25542,-0.9379 -3.6176,-0.9379h-6.43129z" fill="#ffffff" stroke-width="1" stroke-linecap="square"/><path d="M61.25,354.9837l17.5,-41.5h19l-17.5,41.5z" data-paper-data="{&quot;index&quot;:null}" fill="#ffffff" stroke-width="0" stroke-linecap="butt"/><path d="M83.75,354.9837l17.5,-41.5h19l-17.5,41.5z" data-paper-data="{&quot;index&quot;:null}" fill="#2e2e2e" stroke-width="0" stroke-linecap="butt"/><path d="M106.25,354.9837l17.5,-41.5h19l-17.5,41.5z" data-paper-data="{&quot;index&quot;:null}" fill="#2e2e2e" stroke-width="0" stroke-linecap="butt"/></g></g></svg>