<svg version="1.1" xmlns="http://www.w3.org/2000/svg" xmlns:xlink="http://www.w3.org/1999/xlink" width="139.5" height="376" viewBox="0,0,139.5,376"><defs><linearGradient x1="-186.04419" y1="179.21666" x2="70.89699" y2="179.21666" gradientUnits="userSpaceOnUse" id="color-1"><stop offset="0" stop-color="#000000"/><stop offset="1" stop-color="#000000" stop-opacity="0"/></linearGradient><radialGradient cx="34.29398" cy="236.85833" r="47.5" gradientUnits="userSpaceOnUse" id="color-2"><stop offset="0" stop-color="#380123"/><stop offset="1" stop-color="#380123" stop-opacity="0"/></radialGradient></defs><g transform="translate(36.70602,8.78334)"><g data-paper-data="{&quot;isPaintingLayer&quot;:true}" fill-rule="nonzero" stroke-linejoin="miter" stroke-miterlimit="10" stroke-dasharray="" stroke-dashoffset="0" style="mix-blend-mode: normal"><path d="M-7.10301,367.21666v-376h78v376z" fill="url(#color-1)" stroke="none" stroke-width="0" stroke-linecap="butt"/><path d="M-36.70602,233.85833c0,-26.23353 47.76647,-75 74,-75c26.23353,0 65.5,55.76647 65.5,82c0,26.23353 -46.26647,64 -72.5,64c-26.23353,0 -67,-44.76647 -67,-71z" fill="url(#color-2)" stroke="none" stroke-width="0" stroke-linecap="butt"/><g stroke-linecap="round"><path d="M33.82962,264.09438c0,0 -15.56019,-9.9065 -22.82417,-22.48178c-7.25331,-12.55679 3.14862,-28.98641 13.58628,-25.13607c8.06493,2.97507 9.35878,10.96849 9.35878,10.96849h0.09898c0,0 1.29385,-7.99342 9.35878,-10.96849c10.43766,-3.85035 20.83959,12.57928 13.58628,25.13607c-7.26399,12.57528 -22.82418,22.48178 -22.82418,22.48178z" data-paper-data="{&quot;index&quot;:null}" fill="#155953" stroke="#00123b" stroke-width="0.5"/><path d="M33.85792,261.99315c0,0 -12.97486,-8.22027 -19.03193,-18.65503c-6.04817,-10.41943 2.62547,-24.05248 11.32891,-20.85753c6.72494,2.46866 7.80382,12.7562 7.80382,12.7562h0.08253c0,0 1.07887,-10.28754 7.80381,-12.7562c8.70344,-3.19495 17.37708,10.4381 11.32891,20.85753c-6.05708,10.43477 -19.03193,18.65503 -19.03193,18.65503z" data-paper-data="{&quot;index&quot;:null}" fill="#167831" stroke="none" stroke-width="0"/><path d="M33.89344,259.77093c0,0 -9.73122,-5.8904 -14.27407,-13.36764c-4.53616,-7.46625 1.96912,-17.23528 8.49676,-14.94586c5.04375,1.76897 5.85291,13.94957 5.85291,13.94957h0.0619c0,0 0.80916,-12.1806 5.85291,-13.94957c6.52764,-2.28941 13.03292,7.47961 8.49676,14.94586c-4.54284,7.47724 -14.27407,13.36764 -14.27407,13.36764z" data-paper-data="{&quot;index&quot;:null}" fill="#8cb24a" stroke="none" stroke-width="0"/><path d="M24.67094,248.61111c0,0 4.84194,6.44445 9.28205,6.44445c4.44011,0 9.37606,-6.44445 9.37606,-6.44445c0,0 -4.15373,9.44445 -9.33334,9.44445c-5.17961,0 -9.32478,-9.44445 -9.32478,-9.44445z" data-paper-data="{&quot;index&quot;:null}" fill="#ccd472" stroke="none" stroke-width="0"/><path d="M11.00426,224.88889c0,0 4.47851,-7.77778 9.65812,-7.77778c5.17961,0 10.55555,6.33334 10.55555,6.33334c0,0 -4.86884,-4.49289 -10.26495,-4.55555c-4.28499,-0.04977 -9.94872,6 -9.94872,6z" data-paper-data="{&quot;index&quot;:null}" fill="#167831" stroke="none" stroke-width="0"/><path d="M47.04699,218.88889c-5.39612,0.06267 -10.26495,4.55555 -10.26495,4.55555c0,0 5.37594,-6.33334 10.55555,-6.33334c5.17962,0 9.65812,7.77778 9.65812,7.77778c0,0 -5.66373,-6.04977 -9.94872,-6z" data-paper-data="{&quot;index&quot;:null}" fill="#167831" stroke="none" stroke-width="0"/></g><g stroke-linecap="round"><path d="M33.82962,144.09438c0,0 -15.56019,-9.9065 -22.82417,-22.48178c-7.25331,-12.55679 3.14862,-28.98641 13.58628,-25.13607c8.06493,2.97507 9.35878,10.96849 9.35878,10.96849h0.09898c0,0 1.29385,-7.99342 9.35878,-10.96849c10.43766,-3.85035 20.83959,12.57928 13.58628,25.13607c-7.26399,12.57528 -22.82418,22.48178 -22.82418,22.48178z" data-paper-data="{&quot;index&quot;:null}" fill="#0b0b0b" stroke="#000000" stroke-width="0.5"/><path d="M33.85225,142.64438c0,0 -13.49363,-8.59081 -19.79287,-19.49595c-6.28999,-10.88911 7.9939,3.58903 20.10854,3.58903c12.11463,0 26.06269,-14.47814 19.7727,-3.58903c-6.29925,10.90514 -19.79288,19.49595 -19.79288,19.49595z" data-paper-data="{&quot;index&quot;:null}" fill="#000000" stroke="none" stroke-width="0"/><path d="M11.00426,104.88889c0,0 4.47851,-7.77778 9.65812,-7.77778c5.17961,0 10.55555,6.33334 10.55555,6.33334c0,0 -4.86884,-4.49289 -10.26495,-4.55555c-4.28499,-0.04977 -9.94872,6 -9.94872,6z" data-paper-data="{&quot;index&quot;:null}" fill="#000000" stroke="none" stroke-width="0"/><path d="M47.04699,98.88889c-5.39612,0.06267 -10.26495,4.55555 -10.26495,4.55555c0,0 5.37594,-6.33334 10.55555,-6.33334c5.17962,0 9.65812,7.77778 9.65812,7.77778c0,0 -5.66373,-6.04977 -9.94872,-6z" data-paper-data="{&quot;index&quot;:null}" fill="#000000" stroke="none" stroke-width="0"/></g><g stroke-linecap="round"><path d="M33.82962,204.09438c0,0 -15.56019,-9.9065 -22.82417,-22.48178c-7.25331,-12.55679 3.14862,-28.98641 13.58628,-25.13607c8.06493,2.97507 9.35878,10.96849 9.35878,10.96849h0.09898c0,0 1.29385,-7.99342 9.35878,-10.96849c10.43766,-3.85035 20.83959,12.57928 13.58628,25.13607c-7.26399,12.57528 -22.82418,22.48178 -22.82418,22.48178z" data-paper-data="{&quot;index&quot;:null}" fill="#0b0b0b" stroke="#000000" stroke-width="0.5"/><path d="M33.85225,202.64438c0,0 -13.49363,-8.59081 -19.79287,-19.49595c-6.28999,-10.88911 7.9939,3.58903 20.10854,3.58903c12.11463,0 26.06269,-14.47814 19.7727,-3.58903c-6.29925,10.90514 -19.79288,19.49595 -19.79288,19.49595z" data-paper-data="{&quot;index&quot;:null}" fill="#000000" stroke="none" stroke-width="0"/><path d="M11.00426,164.88889c0,0 4.47851,-7.77778 9.65812,-7.77778c5.17961,0 10.55555,6.33334 10.55555,6.33334c0,0 -4.86884,-4.49289 -10.26495,-4.55555c-4.28499,-0.04977 -9.94872,6 -9.94872,6z" data-paper-data="{&quot;index&quot;:null}" fill="#000000" stroke="none" stroke-width="0"/><path d="M47.04699,158.88889c-5.39612,0.06267 -10.26495,4.55555 -10.26495,4.55555c0,0 5.37594,-6.33334 10.55555,-6.33334c5.17962,0 9.65812,7.77778 9.65812,7.77778c0,0 -5.66373,-6.04977 -9.94872,-6z" data-paper-data="{&quot;index&quot;:null}" fill="#000000" stroke="none" stroke-width="0"/></g></g></g></svg>