<svg version="1.1" xmlns="http://www.w3.org/2000/svg" xmlns:xlink="http://www.w3.org/1999/xlink" width="28.25" height="33.51875" viewBox="0,0,28.25,33.51875"><g transform="translate(-225.875,-165.875)"><g data-paper-data="{&quot;isPaintingLayer&quot;:true}" fill-rule="nonzero" stroke-linejoin="miter" stroke-miterlimit="10" stroke-dasharray="" stroke-dashoffset="0" style="mix-blend-mode: normal"><g fill="#e2ffee" stroke="#00134a" stroke-width="2" stroke-linecap="butt"><path d="M226.875,180c0,-7.24874 5.87626,-13.125 13.125,-13.125c7.24874,0 13.125,5.87626 13.125,13.125c0,7.24874 -5.87626,13.125 -13.125,13.125c-7.24874,0 -13.125,-5.87626 -13.125,-13.125z"/><path d="M240,197.97954l-7.29204,-7.29204l7.29204,-7.29204l7.29204,7.29204z"/></g><g fill="#e2ffee" stroke="none" stroke-width="0" stroke-linecap="butt"><path d="M226.875,180c0,-7.24874 5.87626,-13.125 13.125,-13.125c7.24874,0 13.125,5.87626 13.125,13.125c0,7.24874 -5.87626,13.125 -13.125,13.125c-7.24874,0 -13.125,-5.87626 -13.125,-13.125z"/><path d="M240,197.97954l-7.29204,-7.29204l7.29204,-7.29204l7.29204,7.29204z"/></g><path d="M237.50146,184.78659v-1.65384h5.19231v1.65384z" fill="#291767" stroke="#140040" stroke-width="0.2" stroke-linecap="butt"/><g stroke-width="0.2" stroke-linecap="round"><path d="M242.47947,183.92289c0,0 0.81024,3.26874 0.84615,3.30769c0.4631,0.50225 0.76924,1.92308 0.76924,1.92308c0,0 -1.5148,0.25683 -2.26746,0.2505c-0.77247,-0.00649 -1.57869,-0.21204 -1.57869,-0.21204c0,0 -0.32015,-0.63174 0.03846,-1.96154c0.0159,-0.05894 0.07692,-2.46153 0.07692,-2.46153" data-paper-data="{&quot;index&quot;:null}" fill="#291767" stroke="#140040"/><path d="M242.07516,190.24644c-0.68535,0.04294 -1.77777,0.04901 -1.77777,0.04901c0,0 -0.14147,-0.27292 -0.14147,-0.47917c0,-0.20625 0.14147,-0.5232 0.14147,-0.5232c0,0 0.98703,-0.24105 1.97582,-0.28355h0.14619c0.9888,0.0425 1.97582,0.28355 1.97582,0.28355c0,0 0.14147,0.31695 0.14147,0.5232c0,0.20625 -0.14147,0.47917 -0.14147,0.47917c0,0 -1.09242,-0.00608 -1.77776,-0.04901z" data-paper-data="{&quot;index&quot;:null}" fill="#ff9600" stroke="#57002a"/></g><g stroke-width="0.2" stroke-linecap="round"><path d="M239.63591,184.76905c0,0 0.06102,2.40259 0.07692,2.46153c0.35861,1.3298 0.03846,1.96154 0.03846,1.96154c0,0 -0.80622,0.20555 -1.57869,0.21204c-0.75266,0.00633 -2.26746,-0.2505 -2.26746,-0.2505c0,0 0.30614,-1.42083 0.76924,-1.92308c0.03591,-0.03895 0.84615,-3.30769 0.84615,-3.30769" fill="#291767" stroke="#140040"/><path d="M237.38254,190.24644c-0.68534,0.04293 -1.77776,0.04901 -1.77776,0.04901c0,0 -0.14147,-0.27292 -0.14147,-0.47917c0,-0.20625 0.14147,-0.5232 0.14147,-0.5232c0,0 0.98702,-0.24105 1.97582,-0.28355h0.14619c0.98879,0.0425 1.97582,0.28355 1.97582,0.28355c0,0 0.14147,0.31695 0.14147,0.5232c0,0.20625 -0.14147,0.47917 -0.14147,0.47917c0,0 -1.09242,-0.00607 -1.77777,-0.04901z" data-paper-data="{&quot;index&quot;:null}" fill="#ff9600" stroke="#57002a"/></g><path d="M241.78825,178.30148c0,0 1.29278,0.36317 1.30769,1.03846c0.02578,1.1676 -1.07693,1.23077 -1.07693,1.23077l0.42308,3.5h-4.88417l0.42308,-3.5c0,0 -1.10272,-0.06317 -1.07693,-1.23077c0.01491,-0.67529 1.30769,-1.03846 1.30769,-1.03846" fill="#54debe" stroke="#001a61" stroke-width="0.2" stroke-linecap="round"/><path d="M242.62981,178.70292c0,1.20945 -1.1774,2.18991 -2.62981,2.18991c-1.4524,0 -2.62981,-0.98046 -2.62981,-2.18991c0,-1.20945 1.1774,-2.1899 2.62981,-2.1899c1.4524,0 2.62981,0.98045 2.62981,2.1899z" fill="#1093ab" stroke="none" stroke-width="0" stroke-linecap="butt"/><g stroke-width="0.2"><path d="M235.05193,185.5854c-0.89543,-0.43108 -1.10189,-1.01598 -0.68718,-1.94679c0.4147,-0.93081 0.85251,-1.09781 1.74794,-0.66673c0.89543,0.43108 1.1019,1.01599 0.6872,1.9468c-0.4147,0.93081 -0.85252,1.09781 -1.74795,0.66672z" fill="#5d00ff" stroke="#23006c" stroke-linecap="butt"/><path d="M238.21853,180.6379c0,0 -0.72405,2.75589 -0.7039,2.87459c0.22275,1.31249 -0.33209,1.35618 -0.33209,1.35618l-2.84896,-1.73077c0,0 -0.3238,-1.29102 0.91644,-1.1173c0.07195,0.01008 2.08053,-2.53655 2.08053,-2.53655" fill="#54debe" stroke="#001a61" stroke-linecap="round"/></g><g stroke-width="0.2"><path d="M243.20012,184.91868c-0.4147,-0.93081 -0.20824,-1.51571 0.6872,-1.9468c0.89543,-0.43108 1.33324,-0.26408 1.74794,0.66673c0.4147,0.93081 0.20825,1.51571 -0.68718,1.94679c-0.89543,0.43108 -1.33325,0.26409 -1.74795,-0.66672z" data-paper-data="{&quot;index&quot;:null}" fill="#5d00ff" stroke="#23006c" stroke-linecap="butt"/><path d="M242.66946,179.48405c0,0 2.00858,2.54663 2.08053,2.53655c1.24024,-0.17372 0.91644,1.1173 0.91644,1.1173l-2.84896,1.73077c0,0 -0.55484,-0.04369 -0.33209,-1.35618c0.02015,-0.1187 -0.7039,-2.87459 -0.7039,-2.87459" data-paper-data="{&quot;index&quot;:null}" fill="#54debe" stroke="#001a61" stroke-linecap="round"/></g><g><path d="M237.38463,178.76301c-2.28531,-0.17413 -3.03846,-1.53846 -3.03846,-1.53846l1.15384,-0.23077c0,0 -0.64697,-0.41777 -0.92534,-0.8552c-0.27837,-0.43744 -0.42082,-1.26018 -0.42082,-1.26018l2.46154,-0.03846" fill="#3700ad" stroke="#23006c" stroke-width="0.2" stroke-linecap="round"/><path d="M243.38462,174.83994l2.46154,0.03846c0,0 -0.14245,0.82274 -0.42082,1.26018c-0.27837,0.43743 -0.92534,0.8552 -0.92534,0.8552l1.15384,0.23077c0,0 -0.75315,1.36433 -3.03846,1.53846" data-paper-data="{&quot;index&quot;:null}" fill="#3700ad" stroke="#23006c" stroke-width="0.2" stroke-linecap="round"/><path d="M240.11619,169.70455c0,0 2.26276,0.53934 3.15245,2.08c0.78994,1.36791 0.23986,3.4 0.23986,3.4c0,0 0.63627,2.07264 0.10279,3.12c-0.53348,1.04736 -2.56993,1.44 -2.56993,1.44h-2.0827c0,0 -2.03645,-0.39264 -2.56993,-1.44c-0.53348,-1.04736 0.10279,-3.12 0.10279,-3.12c0,0 -0.55008,-2.03209 0.23986,-3.4c0.8897,-1.54067 3.15245,-2.08 3.15245,-2.08z" fill="#5d00ff" stroke="#23006c" stroke-width="0.2" stroke-linecap="round"/><path d="M238.53986,174.56917c0,0 -0.50015,-1.14963 -0.24254,-1.84c0.25761,-0.69037 1.60077,-1.8 1.60077,-1.8h0.07179c0,0 1.34316,1.10963 1.60077,1.8c0.25761,0.69037 -0.24254,1.84 -0.24254,1.84" data-paper-data="{&quot;index&quot;:null}" fill="none" stroke="#23006c" stroke-width="0.2" stroke-linecap="round"/><path d="M238.25681,175.43401c0.16618,-0.16037 0.43559,-0.16037 0.60177,0c0.16618,0.16037 0.16618,2.26686 0,2.42723c-0.16618,0.16037 -0.43559,0.16037 -0.60177,0c-0.16618,-0.16037 -0.16618,-2.26686 0,-2.42723z" fill="#140040" stroke="none" stroke-width="0" stroke-linecap="butt"/><path d="M241.14143,175.43401c0.16618,-0.16037 0.43559,-0.16037 0.60177,0c0.16618,0.16037 0.16618,2.26686 0,2.42723c-0.16618,0.16037 -0.43559,0.16037 -0.60177,0c-0.16618,-0.16037 -0.16618,-2.26686 0,-2.42723z" fill="#140040" stroke="none" stroke-width="0" stroke-linecap="butt"/><path d="M239.80265,179.80016c-0.49881,0.0664 -1.29391,-0.4 -1.29391,-0.4c0,0 -0.10297,-0.42202 -0.10297,-0.74096c0,-0.31894 0.10297,-0.80904 0.10297,-0.80904c0,0 0.71839,-0.37274 1.43806,-0.43846h0.1064c0.71967,0.06572 1.43806,0.43846 1.43806,0.43846c0,0 0.10297,0.4901 0.10297,0.80904c0,0.31894 -0.10297,0.74096 -0.10297,0.74096c0,0 -0.79509,0.4664 -1.29391,0.4z" data-paper-data="{&quot;index&quot;:null}" fill="#ff9600" stroke="#57002a" stroke-width="0.2" stroke-linecap="round"/><path d="M243.422,174.74378c1.32672,1.36918 -0.07693,4.88462 -0.07693,4.88462c0,0 -1.20986,-2.59237 -0.84615,-4.11539" fill="#5d00ff" stroke="#23006c" stroke-width="0.2" stroke-linecap="round"/><path d="M237.50109,175.51301c0.36371,1.52302 -0.84615,4.11539 -0.84615,4.11539c0,0 -1.40365,-3.51544 -0.07693,-4.88462" data-paper-data="{&quot;index&quot;:null}" fill="#5d00ff" stroke="#23006c" stroke-width="0.2" stroke-linecap="round"/></g></g></g></svg>