<svg version="1.1" xmlns="http://www.w3.org/2000/svg" xmlns:xlink="http://www.w3.org/1999/xlink" width="32.43518" height="31.41813" viewBox="0,0,32.43518,31.41813"><g transform="translate(-303.78241,-164.29093)"><g stroke-width="0" stroke-miterlimit="10"><path d="M328.04373,176.09441l4.43496,-0.29949c0,0 0.16737,0.34348 -0.15373,1.19047c-0.48127,1.2694 -1.3149,1.91265 -1.3149,1.91265c0,0 0.67908,0.07674 1.44979,0.23629c0.89616,0.1855 3.07301,2.09199 3.07301,2.09199c0,0 -2.8251,1.08412 -4.83097,1.29847c-2.00587,0.21436 -2.33404,-0.53277 -2.33404,-0.53277" fill="#3700ad" stroke="#23006c" stroke-linecap="round"/><path d="M316.04615,192.00357c-4.35605,1.09663 -8.50845,-0.81413 -8.50845,-0.81413c0,0 0.91467,-0.66362 1.36362,-0.8804c0.42303,-0.20426 1.25707,-0.38495 1.25707,-0.38495c0,0 -1.98731,-0.54696 -2.9036,-2.11332c-0.53938,-0.92209 -1.20288,-2.94357 -1.20288,-2.94357c0,0 5.22648,-1.9001 7.42863,-2.0413" fill="#3700ad" stroke="#23006c" stroke-linecap="round"/><path d="M313.51593,182.44851c0,0 1.05366,5.09635 0.50081,7.3079c-0.53442,2.13766 0.07085,5.95266 0.07085,5.95266c0,0 -4.28587,-4.08141 -4.20737,-6.29283c0.07838,-2.20875 1.19284,-6.62792 1.19284,-6.62792" fill="#3700ad" stroke="#23006c" stroke-linecap="round"/><path d="M310.13491,185.50733c-0.5731,-4.89435 3.84426,-10.71165 8.623,-11.27122c4.77875,-0.55957 9.11732,2.95444 9.69044,7.84884c0.5731,4.89435 -4.49011,10.41118 -9.26886,10.97076c-4.77872,0.55957 -8.47144,-2.65398 -9.04456,-7.54838z" fill="#5d00ff" stroke="#23006c" stroke-linecap="butt"/><path d="M310.28816,186.53431c-4.58452,1.20099 -6.03913,-4.33132 -6.03913,-4.33132c0,0 1.24158,0.34229 1.73908,0.38945c0.49748,0.04715 1.27627,-0.10359 1.27627,-0.10359c0,0 -12.51768,-15.76596 9.91526,-18.09377c15.28889,-1.58646 17.89299,15.47652 17.89299,15.47652c0,0 -4.83493,-3.07453 -6.52374,-2.96344c-0.95027,0.0625 0.35008,3.8993 0.35008,3.8993" fill="#5d00ff" stroke="#23006c" stroke-linecap="round"/><path d="M328.50334,181.06679c2.17515,-0.37135 7.69923,0.26991 7.69923,0.26991c0,0 -0.17852,2.12009 -0.49028,3.14183c-0.5296,1.73567 -2.33688,2.72692 -2.33688,2.72692c0,0 0.85322,-0.01689 1.31202,0.0841c0.48694,0.10721 1.53016,0.54155 1.53016,0.54155c0,0 -5.05593,3.34833 -12.19702,3.02272" fill="#3700ad" stroke="#23006c" stroke-linecap="round"/><path d="M317.36437,184.88604c0.08988,-0.03668 3.58651,-1.92629 3.58651,-1.92629c6.61046,-0.94144 5.67,5.23487 3.23383,7.60847c-1.00757,0.98177 -4.43904,1.4539 -5.86551,0.14758c-1.41818,-1.29871 -0.83399,-4.36873 -0.9548,-5.82971z" fill="#ffffff" stroke="#23006c" stroke-linecap="round"/><path d="M310.6899,184.16131c0.37966,-0.01855 3.98319,1.01375 3.93452,1.0456c0.21998,1.44934 1.49761,4.30137 0.41783,5.8926c-0.50396,0.74264 -1.53302,1.14294 -2.57741,1.43062c-0.10814,0.02981 -1.51604,-1.97067 -1.93719,-4.00437c-0.44416,-2.14482 0.1018,-4.33048 0.16225,-4.36449z" fill="#ffffff" stroke="#23006c" stroke-linecap="round"/><path d="M328.9133,180.64552c0,0 1.3419,3.8264 1.56061,6.38054c0.21871,2.55414 1.26315,5.82018 1.26315,5.82018c0,0 -3.79363,-3.04105 -5.00223,-5.76292c-1.2086,-2.72187 -0.26443,-6.09801 -0.26443,-6.09801" fill="#5d00ff" stroke="#23006c" stroke-linecap="round"/><path d="M318.48008,190.6585c0.88622,0.10301 1.41381,1.96664 0.9946,2.24648c-1.83857,2.75273 -5.77516,1.79514 -5.77516,1.79514c0,0 -1.87531,-2.3214 -0.44285,-3.78198c0.31356,-0.31968 3.19531,-0.49533 5.22341,-0.25964z" fill="#ca3713" stroke="#57002a" stroke-linecap="round"/><path d="M313.43989,191.27395c0.25272,-0.25773 2.57555,-0.39928 4.21033,-0.2093c0.71438,0.08299 1.12303,1.92629 0.78511,2.15185c-1.95152,1.69349 -4.63848,1.10589 -4.63848,1.10589c0,0 -1.51163,-1.87121 -0.35698,-3.04852z" fill="#ff9600" stroke="none" stroke-linecap="round"/></g></g></svg>